# MagicaVoxel @ Ephtracy

# group
o 

# material
mtllib Axe01.mtl
usemtl palette

# normals
vn -1 0 0
vn 1 0 0
vn 0 0 1
vn 0 0 -1
vn 0 -1 0
vn 0 1 0

# texcoords
vt 0.263672 0.5
vt 0.271484 0.5
vt 0.310547 0.5
vt 0.318359 0.5
vt 0.365234 0.5

# verts
v -0.7 2 0.1
v -0.7 2 0
v -0.7 2.3 0.1
v -0.7 2.3 0
v -0.6 1.9 0.1
v -0.6 1.9 0
v -0.6 2 0.1
v -0.6 2 0
v -0.6 2.1 0.2
v -0.6 2.1 0.1
v -0.6 2.1 0
v -0.6 2.1 -0.1
v -0.6 2.3 0.2
v -0.6 2.3 0.1
v -0.6 2.3 0
v -0.6 2.3 -0.1
v -0.5 1.8 0.1
v -0.5 1.8 0
v -0.5 1.9 0.1
v -0.5 1.9 0
v -0.5 2 0.2
v -0.5 2 0.1
v -0.5 2 0
v -0.5 2 -0.1
v -0.5 2.1 0.2
v -0.5 2.1 0.1
v -0.5 2.1 0
v -0.5 2.1 -0.1
v -0.2 0.1 0.1
v -0.2 0.1 0
v -0.2 2 0.1
v -0.2 2 0
v -0.2 2.3 0.1
v -0.2 2.3 0
v -0.2 2.4 0.1
v -0.2 2.4 0
v -0.1 0 0.1
v -0.1 0 0
v -0.1 0.1 0.2
v -0.1 0.1 0.1
v -0.1 0.1 0
v -0.1 0.1 -0.1
v -0.1 2 0.2
v -0.1 2 0.1
v -0.1 2 0
v -0.1 2 -0.1
v -0.1 2.3 0.2
v -0.1 2.3 0.1
v -0.1 2.3 0
v -0.1 2.3 -0.1
v -0.1 2.4 0.2
v -0.1 2.4 0.1
v -0.1 2.4 0
v -0.1 2.4 -0.1
v -0.1 2.5 0.1
v -0.1 2.5 0
v -0.4 1.8 0.1
v -0.4 1.8 0
v -0.4 1.9 0.1
v -0.4 1.9 0
v -0.3 1.9 0.1
v -0.3 1.9 0
v -0.3 2 0.1
v -0.3 2 0
v 0 0 0.1
v 0 0 0
v 0 0.1 0.2
v 0 0.1 0.1
v 0 0.1 0
v 0 0.1 -0.1
v 0 2 0.2
v 0 2 0.1
v 0 2 0
v 0 2 -0.1
v 0 2.3 0.2
v 0 2.3 0.1
v 0 2.3 0
v 0 2.3 -0.1
v 0 2.4 0.2
v 0 2.4 0.1
v 0 2.4 0
v 0 2.4 -0.1
v 0 2.5 0.1
v 0 2.5 0
v 0.1 0.1 0.1
v 0.1 0.1 0
v 0.1 2 0.2
v 0.1 2 0.1
v 0.1 2 0
v 0.1 2 -0.1
v 0.1 2.1 0.2
v 0.1 2.1 0.1
v 0.1 2.1 0
v 0.1 2.1 -0.1
v 0.1 2.2 0.2
v 0.1 2.2 0.1
v 0.1 2.2 0
v 0.1 2.2 -0.1
v 0.1 2.3 0.2
v 0.1 2.3 0.1
v 0.1 2.3 0
v 0.1 2.3 -0.1
v 0.1 2.4 0.1
v 0.1 2.4 0
v 0.2 2 0.1
v 0.2 2 0
v 0.2 2.3 0.1
v 0.2 2.3 0
v -0.6 2.1 0.2
v -0.6 2.3 0.2
v -0.5 2 0.2
v -0.5 2.1 0.2
v -0.2 2 0.2
v -0.2 2.1 0.2
v -0.2 2.2 0.2
v -0.2 2.3 0.2
v -0.1 0.1 0.2
v -0.1 2 0.2
v -0.1 2.1 0.2
v -0.1 2.2 0.2
v -0.1 2.3 0.2
v -0.1 2.4 0.2
v 0 0.1 0.2
v 0 2 0.2
v 0 2.1 0.2
v 0 2.2 0.2
v 0 2.3 0.2
v 0 2.4 0.2
v 0.1 2 0.2
v 0.1 2.1 0.2
v 0.1 2.2 0.2
v 0.1 2.3 0.2
v -0.7 2 0.1
v -0.7 2.3 0.1
v -0.6 1.9 0.1
v -0.6 2 0.1
v -0.6 2.1 0.1
v -0.6 2.3 0.1
v -0.5 1.8 0.1
v -0.5 1.9 0.1
v -0.5 2 0.1
v -0.5 2.1 0.1
v -0.4 1.8 0.1
v -0.4 1.9 0.1
v -0.3 1.9 0.1
v -0.3 2 0.1
v -0.2 0.1 0.1
v -0.2 2 0.1
v -0.2 2.3 0.1
v -0.2 2.4 0.1
v -0.1 0 0.1
v -0.1 0.1 0.1
v -0.1 2 0.1
v -0.1 2.3 0.1
v -0.1 2.4 0.1
v -0.1 2.5 0.1
v 0 0 0.1
v 0 0.1 0.1
v 0 2 0.1
v 0 2.3 0.1
v 0 2.4 0.1
v 0 2.5 0.1
v 0.1 0.1 0.1
v 0.1 2 0.1
v 0.1 2.1 0.1
v 0.1 2.2 0.1
v 0.1 2.3 0.1
v 0.1 2.4 0.1
v 0.2 2 0.1
v 0.2 2.3 0.1
v -0.7 2 0
v -0.7 2.3 0
v -0.6 1.9 0
v -0.6 2 0
v -0.6 2.1 0
v -0.6 2.3 0
v -0.5 1.8 0
v -0.5 1.9 0
v -0.5 2 0
v -0.5 2.1 0
v -0.4 1.8 0
v -0.4 1.9 0
v -0.3 1.9 0
v -0.3 2 0
v -0.2 0.1 0
v -0.2 2 0
v -0.2 2.3 0
v -0.2 2.4 0
v -0.1 0 0
v -0.1 0.1 0
v -0.1 2 0
v -0.1 2.3 0
v -0.1 2.4 0
v -0.1 2.5 0
v 0 0 0
v 0 0.1 0
v 0 2 0
v 0 2.3 0
v 0 2.4 0
v 0 2.5 0
v 0.1 0.1 0
v 0.1 2 0
v 0.1 2.1 0
v 0.1 2.2 0
v 0.1 2.3 0
v 0.1 2.4 0
v 0.2 2 0
v 0.2 2.3 0
v -0.6 2.1 -0.1
v -0.6 2.3 -0.1
v -0.5 2 -0.1
v -0.5 2.1 -0.1
v -0.2 2 -0.1
v -0.2 2.1 -0.1
v -0.2 2.2 -0.1
v -0.2 2.3 -0.1
v -0.1 0.1 -0.1
v -0.1 2 -0.1
v -0.1 2.1 -0.1
v -0.1 2.2 -0.1
v -0.1 2.3 -0.1
v -0.1 2.4 -0.1
v 0 0.1 -0.1
v 0 2 -0.1
v 0 2.1 -0.1
v 0 2.2 -0.1
v 0 2.3 -0.1
v 0 2.4 -0.1
v 0.1 2 -0.1
v 0.1 2.1 -0.1
v 0.1 2.2 -0.1
v 0.1 2.3 -0.1
v -0.1 0 0.1
v 0 0 0.1
v -0.1 0 0
v 0 0 0
v -0.1 0.1 0.2
v 0 0.1 0.2
v -0.2 0.1 0.1
v -0.1 0.1 0.1
v 0 0.1 0.1
v 0.1 0.1 0.1
v -0.2 0.1 0
v -0.1 0.1 0
v 0 0.1 0
v 0.1 0.1 0
v -0.1 0.1 -0.1
v 0 0.1 -0.1
v -0.5 1.8 0.1
v -0.4 1.8 0.1
v -0.5 1.8 0
v -0.4 1.8 0
v -0.6 1.9 0.1
v -0.5 1.9 0.1
v -0.4 1.9 0.1
v -0.3 1.9 0.1
v -0.6 1.9 0
v -0.5 1.9 0
v -0.4 1.9 0
v -0.3 1.9 0
v -0.5 2 0.2
v -0.2 2 0.2
v -0.1 2 0.2
v 0 2 0.2
v 0.1 2 0.2
v -0.7 2 0.1
v -0.6 2 0.1
v -0.5 2 0.1
v -0.3 2 0.1
v -0.2 2 0.1
v -0.1 2 0.1
v 0 2 0.1
v 0.1 2 0.1
v 0.2 2 0.1
v -0.7 2 0
v -0.6 2 0
v -0.5 2 0
v -0.3 2 0
v -0.2 2 0
v -0.1 2 0
v 0 2 0
v 0.1 2 0
v 0.2 2 0
v -0.5 2 -0.1
v -0.2 2 -0.1
v -0.1 2 -0.1
v 0 2 -0.1
v 0.1 2 -0.1
v -0.6 2.1 0.2
v -0.5 2.1 0.2
v -0.6 2.1 0.1
v -0.5 2.1 0.1
v -0.6 2.1 0
v -0.5 2.1 0
v -0.6 2.1 -0.1
v -0.5 2.1 -0.1
v -0.6 2.3 0.2
v -0.2 2.3 0.2
v -0.1 2.3 0.2
v 0 2.3 0.2
v 0.1 2.3 0.2
v -0.7 2.3 0.1
v -0.6 2.3 0.1
v -0.2 2.3 0.1
v -0.1 2.3 0.1
v 0 2.3 0.1
v 0.1 2.3 0.1
v 0.2 2.3 0.1
v -0.7 2.3 0
v -0.6 2.3 0
v -0.2 2.3 0
v -0.1 2.3 0
v 0 2.3 0
v 0.1 2.3 0
v 0.2 2.3 0
v -0.6 2.3 -0.1
v -0.2 2.3 -0.1
v -0.1 2.3 -0.1
v 0 2.3 -0.1
v 0.1 2.3 -0.1
v -0.1 2.4 0.2
v 0 2.4 0.2
v -0.2 2.4 0.1
v -0.1 2.4 0.1
v 0 2.4 0.1
v 0.1 2.4 0.1
v -0.2 2.4 0
v -0.1 2.4 0
v 0 2.4 0
v 0.1 2.4 0
v -0.1 2.4 -0.1
v 0 2.4 -0.1
v -0.1 2.5 0.1
v 0 2.5 0.1
v -0.1 2.5 0
v 0 2.5 0

# faces
f 3/1/1 2/1/1 1/1/1
f 4/1/1 2/1/1 3/1/1
f 7/1/1 6/1/1 5/1/1
f 8/1/1 6/1/1 7/1/1
f 13/2/1 10/2/1 9/2/1
f 14/2/1 10/2/1 13/2/1
f 15/2/1 12/2/1 11/2/1
f 16/2/1 12/2/1 15/2/1
f 19/1/1 18/1/1 17/1/1
f 20/1/1 18/1/1 19/1/1
f 25/2/1 22/2/1 21/2/1
f 26/2/1 22/2/1 25/2/1
f 27/2/1 24/2/1 23/2/1
f 28/2/1 24/2/1 27/2/1
f 31/4/1 30/4/1 29/4/1
f 32/4/1 30/4/1 31/4/1
f 35/4/1 34/4/1 33/4/1
f 36/4/1 34/4/1 35/4/1
f 40/4/1 38/4/1 37/4/1
f 41/4/1 38/4/1 40/4/1
f 43/4/1 40/4/1 39/4/1
f 44/4/1 40/4/1 43/4/1
f 45/4/1 42/4/1 41/4/1
f 46/4/1 42/4/1 45/4/1
f 51/4/1 48/4/1 47/4/1
f 52/4/1 48/4/1 51/4/1
f 53/4/1 50/4/1 49/4/1
f 54/4/1 50/4/1 53/4/1
f 55/4/1 53/4/1 52/4/1
f 56/4/1 53/4/1 55/4/1
f 57/1/2 58/1/2 59/1/2
f 59/1/2 58/1/2 60/1/2
f 61/1/2 62/1/2 63/1/2
f 63/1/2 62/1/2 64/1/2
f 65/4/2 66/4/2 68/4/2
f 68/4/2 66/4/2 69/4/2
f 67/4/2 68/4/2 71/4/2
f 71/4/2 68/4/2 72/4/2
f 69/4/2 70/4/2 73/4/2
f 73/4/2 70/4/2 74/4/2
f 75/4/2 76/4/2 79/4/2
f 79/4/2 76/4/2 80/4/2
f 77/4/2 78/4/2 81/4/2
f 81/4/2 78/4/2 82/4/2
f 80/4/2 81/4/2 83/4/2
f 83/4/2 81/4/2 84/4/2
f 85/4/2 86/4/2 88/4/2
f 88/4/2 86/4/2 89/4/2
f 87/3/2 88/3/2 91/3/2
f 91/3/2 88/3/2 92/3/2
f 89/3/2 90/3/2 93/3/2
f 93/3/2 90/3/2 94/3/2
f 91/1/2 92/1/2 95/1/2
f 95/1/2 92/1/2 96/1/2
f 93/1/2 94/1/2 97/1/2
f 97/1/2 94/1/2 98/1/2
f 95/3/2 96/3/2 99/3/2
f 99/3/2 96/3/2 100/3/2
f 97/3/2 98/3/2 101/3/2
f 101/3/2 98/3/2 102/3/2
f 100/4/2 101/4/2 103/4/2
f 103/4/2 101/4/2 104/4/2
f 105/1/2 106/1/2 107/1/2
f 107/1/2 106/1/2 108/1/2
f 112/2/3 110/2/3 109/2/3
f 113/2/3 112/2/3 111/2/3
f 114/2/3 110/2/3 112/2/3
f 114/2/3 112/2/3 113/2/3
f 115/2/3 110/2/3 114/2/3
f 116/2/3 110/2/3 115/2/3
f 118/3/3 114/3/3 113/3/3
f 119/1/3 115/1/3 114/1/3
f 119/3/3 114/3/3 118/3/3
f 120/3/3 116/3/3 115/3/3
f 120/1/3 115/1/3 119/1/3
f 121/3/3 116/3/3 120/3/3
f 123/4/3 118/4/3 117/4/3
f 124/1/3 119/1/3 118/1/3
f 124/4/3 118/4/3 123/4/3
f 125/3/3 120/3/3 119/3/3
f 125/1/3 119/1/3 124/1/3
f 126/1/3 121/1/3 120/1/3
f 126/3/3 120/3/3 125/3/3
f 127/4/3 122/4/3 121/4/3
f 127/1/3 121/1/3 126/1/3
f 128/4/3 122/4/3 127/4/3
f 129/3/3 125/3/3 124/3/3
f 130/1/3 126/1/3 125/1/3
f 130/3/3 125/3/3 129/3/3
f 131/3/3 127/3/3 126/3/3
f 131/1/3 126/1/3 130/1/3
f 132/3/3 127/3/3 131/3/3
f 136/1/3 134/1/3 133/1/3
f 137/1/3 134/1/3 136/1/3
f 138/1/3 134/1/3 137/1/3
f 140/1/3 136/1/3 135/1/3
f 140/1/3 137/1/3 136/1/3
f 141/1/3 137/1/3 140/1/3
f 142/1/3 137/1/3 141/1/3
f 143/1/3 140/1/3 139/1/3
f 143/1/3 141/1/3 140/1/3
f 144/1/3 141/1/3 143/1/3
f 145/1/3 141/1/3 144/1/3
f 146/1/3 141/1/3 145/1/3
f 152/4/3 148/4/3 147/4/3
f 153/4/3 148/4/3 152/4/3
f 154/4/3 150/4/3 149/4/3
f 155/4/3 150/4/3 154/4/3
f 157/4/3 152/4/3 151/4/3
f 158/4/3 152/4/3 157/4/3
f 161/4/3 156/4/3 155/4/3
f 162/4/3 156/4/3 161/4/3
f 163/4/3 159/4/3 158/4/3
f 164/4/3 159/4/3 163/4/3
f 167/4/3 161/4/3 160/4/3
f 168/4/3 161/4/3 167/4/3
f 169/1/3 166/1/3 165/1/3
f 169/1/3 167/1/3 166/1/3
f 169/1/3 165/1/3 164/1/3
f 170/1/3 167/1/3 169/1/3
f 171/1/4 172/1/4 174/1/4
f 174/1/4 172/1/4 175/1/4
f 175/1/4 172/1/4 176/1/4
f 173/1/4 174/1/4 178/1/4
f 174/1/4 175/1/4 178/1/4
f 178/1/4 175/1/4 179/1/4
f 179/1/4 175/1/4 180/1/4
f 177/1/4 178/1/4 181/1/4
f 178/1/4 179/1/4 181/1/4
f 181/1/4 179/1/4 182/1/4
f 182/1/4 179/1/4 183/1/4
f 183/1/4 179/1/4 184/1/4
f 185/4/4 186/4/4 190/4/4
f 190/4/4 186/4/4 191/4/4
f 187/4/4 188/4/4 192/4/4
f 192/4/4 188/4/4 193/4/4
f 189/4/4 190/4/4 195/4/4
f 195/4/4 190/4/4 196/4/4
f 193/4/4 194/4/4 199/4/4
f 199/4/4 194/4/4 200/4/4
f 196/4/4 197/4/4 201/4/4
f 201/4/4 197/4/4 202/4/4
f 198/4/4 199/4/4 205/4/4
f 205/4/4 199/4/4 206/4/4
f 203/1/4 204/1/4 207/1/4
f 204/1/4 205/1/4 207/1/4
f 202/1/4 203/1/4 207/1/4
f 207/1/4 205/1/4 208/1/4
f 209/2/4 210/2/4 212/2/4
f 211/2/4 212/2/4 213/2/4
f 212/2/4 210/2/4 214/2/4
f 213/2/4 212/2/4 214/2/4
f 214/2/4 210/2/4 215/2/4
f 215/2/4 210/2/4 216/2/4
f 213/3/4 214/3/4 218/3/4
f 214/1/4 215/1/4 219/1/4
f 218/3/4 214/3/4 219/3/4
f 215/3/4 216/3/4 220/3/4
f 219/1/4 215/1/4 220/1/4
f 220/3/4 216/3/4 221/3/4
f 217/4/4 218/4/4 223/4/4
f 218/1/4 219/1/4 224/1/4
f 223/4/4 218/4/4 224/4/4
f 219/3/4 220/3/4 225/3/4
f 224/1/4 219/1/4 225/1/4
f 220/1/4 221/1/4 226/1/4
f 225/3/4 220/3/4 226/3/4
f 221/4/4 222/4/4 227/4/4
f 226/1/4 221/1/4 227/1/4
f 227/4/4 222/4/4 228/4/4
f 224/3/4 225/3/4 229/3/4
f 225/1/4 226/1/4 230/1/4
f 229/3/4 225/3/4 230/3/4
f 226/3/4 227/3/4 231/3/4
f 230/1/4 226/1/4 231/1/4
f 231/3/4 227/3/4 232/3/4
f 235/4/5 234/4/5 233/4/5
f 236/4/5 234/4/5 235/4/5
f 240/4/5 238/4/5 237/4/5
f 241/4/5 238/4/5 240/4/5
f 243/4/5 240/4/5 239/4/5
f 244/4/5 240/4/5 243/4/5
f 245/4/5 242/4/5 241/4/5
f 246/4/5 242/4/5 245/4/5
f 247/4/5 245/4/5 244/4/5
f 248/4/5 245/4/5 247/4/5
f 251/1/5 250/1/5 249/1/5
f 252/1/5 250/1/5 251/1/5
f 257/1/5 254/1/5 253/1/5
f 258/1/5 254/1/5 257/1/5
f 259/1/5 256/1/5 255/1/5
f 260/1/5 256/1/5 259/1/5
f 268/2/5 262/2/5 261/2/5
f 269/2/5 262/2/5 268/2/5
f 270/3/5 263/3/5 262/3/5
f 270/2/5 262/2/5 269/2/5
f 271/3/5 263/3/5 270/3/5
f 272/3/5 265/3/5 264/3/5
f 273/3/5 265/3/5 272/3/5
f 275/1/5 267/1/5 266/1/5
f 276/1/5 267/1/5 275/1/5
f 278/1/5 270/1/5 269/1/5
f 279/1/5 270/1/5 278/1/5
f 282/1/5 274/1/5 273/1/5
f 283/1/5 274/1/5 282/1/5
f 284/2/5 278/2/5 277/2/5
f 284/2/5 279/2/5 278/2/5
f 285/3/5 280/3/5 279/3/5
f 285/2/5 279/2/5 284/2/5
f 286/3/5 280/3/5 285/3/5
f 287/3/5 282/3/5 281/3/5
f 288/3/5 282/3/5 287/3/5
f 291/2/5 290/2/5 289/2/5
f 292/2/5 290/2/5 291/2/5
f 295/2/5 294/2/5 293/2/5
f 296/2/5 294/2/5 295/2/5
f 297/2/6 298/2/6 303/2/6
f 298/3/6 299/3/6 304/3/6
f 303/2/6 298/2/6 304/2/6
f 304/3/6 299/3/6 305/3/6
f 300/3/6 301/3/6 306/3/6
f 306/3/6 301/3/6 307/3/6
f 302/1/6 303/1/6 309/1/6
f 303/1/6 304/1/6 309/1/6
f 309/1/6 304/1/6 310/1/6
f 310/1/6 304/1/6 311/1/6
f 307/1/6 308/1/6 314/1/6
f 314/1/6 308/1/6 315/1/6
f 310/2/6 311/2/6 316/2/6
f 311/3/6 312/3/6 317/3/6
f 316/2/6 311/2/6 317/2/6
f 317/3/6 312/3/6 318/3/6
f 313/3/6 314/3/6 319/3/6
f 319/3/6 314/3/6 320/3/6
f 321/4/6 322/4/6 324/4/6
f 324/4/6 322/4/6 325/4/6
f 323/4/6 324/4/6 327/4/6
f 327/4/6 324/4/6 328/4/6
f 325/4/6 326/4/6 329/4/6
f 329/4/6 326/4/6 330/4/6
f 328/4/6 329/4/6 331/4/6
f 331/4/6 329/4/6 332/4/6
f 333/4/6 334/4/6 335/4/6
f 335/4/6 334/4/6 336/4/6
