# MagicaVoxel @ Ephtracy

# group
o 

# material
mtllib Hammer01.mtl
usemtl palette

# normals
vn -1 0 0
vn 1 0 0
vn 0 0 1
vn 0 0 -1
vn 0 -1 0
vn 0 1 0

# texcoords
vt 0.310547 0.5
vt 0.318359 0.5
vt 0.341797 0.5

# verts
v -0.7 2 0.2
v -0.7 2 -0.1
v -0.7 2.3 0.2
v -0.7 2.3 -0.1
v -0.2 0.1 0.1
v -0.2 0.1 0
v -0.2 2 0.1
v -0.2 2 0
v -0.2 2.3 0.1
v -0.2 2.3 0
v -0.2 2.4 0.1
v -0.2 2.4 0
v -0.1 0 0.1
v -0.1 0 0
v -0.1 0.1 0.2
v -0.1 0.1 0.1
v -0.1 0.1 0
v -0.1 0.1 -0.1
v -0.1 2 0.2
v -0.1 2 0.1
v -0.1 2 0
v -0.1 2 -0.1
v -0.1 2.3 0.2
v -0.1 2.3 0.1
v -0.1 2.3 0
v -0.1 2.3 -0.1
v -0.1 2.4 0.2
v -0.1 2.4 0.1
v -0.1 2.4 0
v -0.1 2.4 -0.1
v -0.1 2.5 0.1
v -0.1 2.5 0
v 0 0 0.1
v 0 0 0
v 0 0.1 0.2
v 0 0.1 0.1
v 0 0.1 0
v 0 0.1 -0.1
v 0 2 0.2
v 0 2 0.1
v 0 2 0
v 0 2 -0.1
v 0 2.3 0.2
v 0 2.3 0.1
v 0 2.3 0
v 0 2.3 -0.1
v 0 2.4 0.2
v 0 2.4 0.1
v 0 2.4 0
v 0 2.4 -0.1
v 0 2.5 0.1
v 0 2.5 0
v 0.1 0.1 0.1
v 0.1 0.1 0
v 0.1 2 0.1
v 0.1 2 0
v 0.1 2.3 0.1
v 0.1 2.3 0
v 0.1 2.4 0.1
v 0.1 2.4 0
v 0.6 2 0.2
v 0.6 2 -0.1
v 0.6 2.3 0.2
v 0.6 2.3 -0.1
v -0.7 2 0.2
v -0.7 2.3 0.2
v -0.2 2 0.2
v -0.2 2.1 0.2
v -0.2 2.2 0.2
v -0.2 2.3 0.2
v -0.1 0.1 0.2
v -0.1 2 0.2
v -0.1 2.1 0.2
v -0.1 2.2 0.2
v -0.1 2.3 0.2
v -0.1 2.4 0.2
v 0 0.1 0.2
v 0 2 0.2
v 0 2.1 0.2
v 0 2.2 0.2
v 0 2.3 0.2
v 0 2.4 0.2
v 0.1 2 0.2
v 0.1 2.1 0.2
v 0.1 2.2 0.2
v 0.1 2.3 0.2
v 0.6 2 0.2
v 0.6 2.3 0.2
v -0.2 0.1 0.1
v -0.2 2 0.1
v -0.2 2.3 0.1
v -0.2 2.4 0.1
v -0.1 0 0.1
v -0.1 0.1 0.1
v -0.1 2 0.1
v -0.1 2.3 0.1
v -0.1 2.4 0.1
v -0.1 2.5 0.1
v 0 0 0.1
v 0 0.1 0.1
v 0 2 0.1
v 0 2.3 0.1
v 0 2.4 0.1
v 0 2.5 0.1
v 0.1 0.1 0.1
v 0.1 2 0.1
v 0.1 2.3 0.1
v 0.1 2.4 0.1
v -0.2 0.1 0
v -0.2 2 0
v -0.2 2.3 0
v -0.2 2.4 0
v -0.1 0 0
v -0.1 0.1 0
v -0.1 2 0
v -0.1 2.3 0
v -0.1 2.4 0
v -0.1 2.5 0
v 0 0 0
v 0 0.1 0
v 0 2 0
v 0 2.3 0
v 0 2.4 0
v 0 2.5 0
v 0.1 0.1 0
v 0.1 2 0
v 0.1 2.3 0
v 0.1 2.4 0
v -0.7 2 -0.1
v -0.7 2.3 -0.1
v -0.2 2 -0.1
v -0.2 2.1 -0.1
v -0.2 2.2 -0.1
v -0.2 2.3 -0.1
v -0.1 0.1 -0.1
v -0.1 2 -0.1
v -0.1 2.1 -0.1
v -0.1 2.2 -0.1
v -0.1 2.3 -0.1
v -0.1 2.4 -0.1
v 0 0.1 -0.1
v 0 2 -0.1
v 0 2.1 -0.1
v 0 2.2 -0.1
v 0 2.3 -0.1
v 0 2.4 -0.1
v 0.1 2 -0.1
v 0.1 2.1 -0.1
v 0.1 2.2 -0.1
v 0.1 2.3 -0.1
v 0.6 2 -0.1
v 0.6 2.3 -0.1
v -0.1 0 0.1
v 0 0 0.1
v -0.1 0 0
v 0 0 0
v -0.1 0.1 0.2
v 0 0.1 0.2
v -0.2 0.1 0.1
v -0.1 0.1 0.1
v 0 0.1 0.1
v 0.1 0.1 0.1
v -0.2 0.1 0
v -0.1 0.1 0
v 0 0.1 0
v 0.1 0.1 0
v -0.1 0.1 -0.1
v 0 0.1 -0.1
v -0.7 2 0.2
v -0.2 2 0.2
v -0.1 2 0.2
v 0 2 0.2
v 0.1 2 0.2
v 0.6 2 0.2
v -0.2 2 0.1
v -0.1 2 0.1
v 0 2 0.1
v 0.1 2 0.1
v -0.2 2 0
v -0.1 2 0
v 0 2 0
v 0.1 2 0
v -0.7 2 -0.1
v -0.2 2 -0.1
v -0.1 2 -0.1
v 0 2 -0.1
v 0.1 2 -0.1
v 0.6 2 -0.1
v -0.7 2.3 0.2
v -0.2 2.3 0.2
v -0.1 2.3 0.2
v 0 2.3 0.2
v 0.1 2.3 0.2
v 0.6 2.3 0.2
v -0.2 2.3 0.1
v -0.1 2.3 0.1
v 0 2.3 0.1
v 0.1 2.3 0.1
v -0.2 2.3 0
v -0.1 2.3 0
v 0 2.3 0
v 0.1 2.3 0
v -0.7 2.3 -0.1
v -0.2 2.3 -0.1
v -0.1 2.3 -0.1
v 0 2.3 -0.1
v 0.1 2.3 -0.1
v 0.6 2.3 -0.1
v -0.1 2.4 0.2
v 0 2.4 0.2
v -0.2 2.4 0.1
v -0.1 2.4 0.1
v 0 2.4 0.1
v 0.1 2.4 0.1
v -0.2 2.4 0
v -0.1 2.4 0
v 0 2.4 0
v 0.1 2.4 0
v -0.1 2.4 -0.1
v 0 2.4 -0.1
v -0.1 2.5 0.1
v 0 2.5 0.1
v -0.1 2.5 0
v 0 2.5 0

# faces
f 3/3/1 2/3/1 1/3/1
f 4/3/1 2/3/1 3/3/1
f 7/2/1 6/2/1 5/2/1
f 8/2/1 6/2/1 7/2/1
f 11/2/1 10/2/1 9/2/1
f 12/2/1 10/2/1 11/2/1
f 16/2/1 14/2/1 13/2/1
f 17/2/1 14/2/1 16/2/1
f 19/2/1 16/2/1 15/2/1
f 20/2/1 16/2/1 19/2/1
f 21/2/1 18/2/1 17/2/1
f 22/2/1 18/2/1 21/2/1
f 27/2/1 24/2/1 23/2/1
f 28/2/1 24/2/1 27/2/1
f 29/2/1 26/2/1 25/2/1
f 30/2/1 26/2/1 29/2/1
f 31/2/1 29/2/1 28/2/1
f 32/2/1 29/2/1 31/2/1
f 33/2/2 34/2/2 36/2/2
f 36/2/2 34/2/2 37/2/2
f 35/2/2 36/2/2 39/2/2
f 39/2/2 36/2/2 40/2/2
f 37/2/2 38/2/2 41/2/2
f 41/2/2 38/2/2 42/2/2
f 43/2/2 44/2/2 47/2/2
f 47/2/2 44/2/2 48/2/2
f 45/2/2 46/2/2 49/2/2
f 49/2/2 46/2/2 50/2/2
f 48/2/2 49/2/2 51/2/2
f 51/2/2 49/2/2 52/2/2
f 53/2/2 54/2/2 55/2/2
f 55/2/2 54/2/2 56/2/2
f 57/2/2 58/2/2 59/2/2
f 59/2/2 58/2/2 60/2/2
f 61/3/2 62/3/2 63/3/2
f 63/3/2 62/3/2 64/3/2
f 67/3/3 66/3/3 65/3/3
f 68/3/3 66/3/3 67/3/3
f 69/3/3 66/3/3 68/3/3
f 70/3/3 66/3/3 69/3/3
f 72/1/3 68/1/3 67/1/3
f 73/3/3 69/3/3 68/3/3
f 73/1/3 68/1/3 72/1/3
f 74/1/3 70/1/3 69/1/3
f 74/3/3 69/3/3 73/3/3
f 75/1/3 70/1/3 74/1/3
f 77/2/3 72/2/3 71/2/3
f 78/3/3 73/3/3 72/3/3
f 78/2/3 72/2/3 77/2/3
f 79/1/3 74/1/3 73/1/3
f 79/3/3 73/3/3 78/3/3
f 80/3/3 75/3/3 74/3/3
f 80/1/3 74/1/3 79/1/3
f 81/2/3 76/2/3 75/2/3
f 81/3/3 75/3/3 80/3/3
f 82/2/3 76/2/3 81/2/3
f 83/1/3 79/1/3 78/1/3
f 84/3/3 80/3/3 79/3/3
f 84/1/3 79/1/3 83/1/3
f 85/1/3 81/1/3 80/1/3
f 85/3/3 80/3/3 84/3/3
f 86/1/3 81/1/3 85/1/3
f 87/3/3 84/3/3 83/3/3
f 87/3/3 85/3/3 84/3/3
f 87/3/3 86/3/3 85/3/3
f 88/3/3 86/3/3 87/3/3
f 94/2/3 90/2/3 89/2/3
f 95/2/3 90/2/3 94/2/3
f 96/2/3 92/2/3 91/2/3
f 97/2/3 92/2/3 96/2/3
f 99/2/3 94/2/3 93/2/3
f 100/2/3 94/2/3 99/2/3
f 103/2/3 98/2/3 97/2/3
f 104/2/3 98/2/3 103/2/3
f 105/2/3 101/2/3 100/2/3
f 106/2/3 101/2/3 105/2/3
f 107/2/3 103/2/3 102/2/3
f 108/2/3 103/2/3 107/2/3
f 109/2/4 110/2/4 114/2/4
f 114/2/4 110/2/4 115/2/4
f 111/2/4 112/2/4 116/2/4
f 116/2/4 112/2/4 117/2/4
f 113/2/4 114/2/4 119/2/4
f 119/2/4 114/2/4 120/2/4
f 117/2/4 118/2/4 123/2/4
f 123/2/4 118/2/4 124/2/4
f 120/2/4 121/2/4 125/2/4
f 125/2/4 121/2/4 126/2/4
f 122/2/4 123/2/4 127/2/4
f 127/2/4 123/2/4 128/2/4
f 129/3/4 130/3/4 131/3/4
f 131/3/4 130/3/4 132/3/4
f 132/3/4 130/3/4 133/3/4
f 133/3/4 130/3/4 134/3/4
f 131/1/4 132/1/4 136/1/4
f 132/3/4 133/3/4 137/3/4
f 136/1/4 132/1/4 137/1/4
f 133/1/4 134/1/4 138/1/4
f 137/3/4 133/3/4 138/3/4
f 138/1/4 134/1/4 139/1/4
f 135/2/4 136/2/4 141/2/4
f 136/3/4 137/3/4 142/3/4
f 141/2/4 136/2/4 142/2/4
f 137/1/4 138/1/4 143/1/4
f 142/3/4 137/3/4 143/3/4
f 138/3/4 139/3/4 144/3/4
f 143/1/4 138/1/4 144/1/4
f 139/2/4 140/2/4 145/2/4
f 144/3/4 139/3/4 145/3/4
f 145/2/4 140/2/4 146/2/4
f 142/1/4 143/1/4 147/1/4
f 143/3/4 144/3/4 148/3/4
f 147/1/4 143/1/4 148/1/4
f 144/1/4 145/1/4 149/1/4
f 148/3/4 144/3/4 149/3/4
f 149/1/4 145/1/4 150/1/4
f 147/3/4 148/3/4 151/3/4
f 148/3/4 149/3/4 151/3/4
f 149/3/4 150/3/4 151/3/4
f 151/3/4 150/3/4 152/3/4
f 155/2/5 154/2/5 153/2/5
f 156/2/5 154/2/5 155/2/5
f 160/2/5 158/2/5 157/2/5
f 161/2/5 158/2/5 160/2/5
f 163/2/5 160/2/5 159/2/5
f 164/2/5 160/2/5 163/2/5
f 165/2/5 162/2/5 161/2/5
f 166/2/5 162/2/5 165/2/5
f 167/2/5 165/2/5 164/2/5
f 168/2/5 165/2/5 167/2/5
f 175/3/5 170/3/5 169/3/5
f 175/1/5 171/1/5 170/1/5
f 176/1/5 171/1/5 175/1/5
f 177/1/5 173/1/5 172/1/5
f 178/3/5 174/3/5 173/3/5
f 178/1/5 173/1/5 177/1/5
f 179/3/5 175/3/5 169/3/5
f 182/3/5 174/3/5 178/3/5
f 183/3/5 179/3/5 169/3/5
f 184/1/5 180/1/5 179/1/5
f 184/3/5 179/3/5 183/3/5
f 185/1/5 180/1/5 184/1/5
f 186/1/5 182/1/5 181/1/5
f 187/3/5 174/3/5 182/3/5
f 187/1/5 182/1/5 186/1/5
f 188/3/5 174/3/5 187/3/5
f 189/3/6 190/3/6 195/3/6
f 190/1/6 191/1/6 195/1/6
f 195/1/6 191/1/6 196/1/6
f 192/1/6 193/1/6 197/1/6
f 193/3/6 194/3/6 198/3/6
f 197/1/6 193/1/6 198/1/6
f 189/3/6 195/3/6 199/3/6
f 198/3/6 194/3/6 202/3/6
f 189/3/6 199/3/6 203/3/6
f 199/1/6 200/1/6 204/1/6
f 203/3/6 199/3/6 204/3/6
f 204/1/6 200/1/6 205/1/6
f 201/1/6 202/1/6 206/1/6
f 202/3/6 194/3/6 207/3/6
f 206/1/6 202/1/6 207/1/6
f 207/3/6 194/3/6 208/3/6
f 209/2/6 210/2/6 212/2/6
f 212/2/6 210/2/6 213/2/6
f 211/2/6 212/2/6 215/2/6
f 215/2/6 212/2/6 216/2/6
f 213/2/6 214/2/6 217/2/6
f 217/2/6 214/2/6 218/2/6
f 216/2/6 217/2/6 219/2/6
f 219/2/6 217/2/6 220/2/6
f 221/2/6 222/2/6 223/2/6
f 223/2/6 222/2/6 224/2/6
