# MagicaVoxel @ Ephtracy

# group
o 

# material
mtllib LogPile01.mtl
usemtl palette

# normals
vn -1 0 0
vn 1 0 0
vn 0 0 1
vn 0 0 -1
vn 0 -1 0
vn 0 1 0

# texcoords
vt 0.310547 0.5
vt 0.318359 0.5
vt 0.365234 0.5

# verts
v -0.5 0.4 1
v -0.5 0.4 -1
v -0.5 0.6 1
v -0.5 0.6 -1
v -0.4 0.2 1
v -0.4 0.2 -1
v -0.4 0.4 1
v -0.4 0.4 -1
v -0.4 0.6 1
v -0.4 0.6 -1
v -0.4 0.8 1
v -0.4 0.8 -1
v -0.3 0.1 1
v -0.3 0.1 -1
v -0.3 0.2 1
v -0.3 0.2 -1
v -0.3 0.8 1
v -0.3 0.8 -1
v -0.3 0.9 1
v -0.3 0.9 -1
v -0.1 0 1
v -0.1 0 -1
v -0.1 0.1 1
v -0.1 0.1 -1
v -0.1 0.9 1
v -0.1 0.9 -1
v -0.1 1 1
v -0.1 1 -1
v 0 1.2 1
v 0 1.2 -1
v 0 1.4 1
v 0 1.4 -1
v 0.1 1 1
v 0.1 1 -1
v 0.1 1.2 1
v 0.1 1.2 -1
v 0.1 1.4 1
v 0.1 1.4 -1
v 0.1 1.6 1
v 0.1 1.6 -1
v 0.2 0.9 1
v 0.2 0.9 -1
v 0.2 1 1
v 0.2 1 -1
v 0.2 1.6 1
v 0.2 1.6 -1
v 0.2 1.7 1
v 0.2 1.7 -1
v 0.4 0.8 1
v 0.4 0.8 -1
v 0.4 0.9 1
v 0.4 0.9 -1
v 0.4 1.7 1
v 0.4 1.7 -1
v 0.4 1.8 1
v 0.4 1.8 -1
v 0.6 0.2 1
v 0.6 0.2 -1
v 0.6 0.4 1
v 0.6 0.4 -1
v 0.6 0.6 1
v 0.6 0.6 -1
v 0.6 0.8 1
v 0.6 0.8 -1
v 0.7 0.1 1
v 0.7 0.1 -1
v 0.7 0.2 1
v 0.7 0.2 -1
v 0.7 0.8 1
v 0.7 0.8 -1
v 0.7 0.9 1
v 0.7 0.9 -1
v 0.9 0 1
v 0.9 0 -1
v 0.9 0.1 1
v 0.9 0.1 -1
v 0.9 0.9 1
v 0.9 0.9 -1
v 0.9 1 1
v 0.9 1 -1
v 0.1 0 1
v 0.1 0 -1
v 0.1 0.1 1
v 0.1 0.1 -1
v 0.1 0.9 1
v 0.1 0.9 -1
v 0.1 1 1
v 0.1 1 -1
v 0.3 0.1 1
v 0.3 0.1 -1
v 0.3 0.2 1
v 0.3 0.2 -1
v 0.3 0.8 1
v 0.3 0.8 -1
v 0.3 0.9 1
v 0.3 0.9 -1
v 0.4 0.2 1
v 0.4 0.2 -1
v 0.4 0.4 1
v 0.4 0.4 -1
v 0.4 0.6 1
v 0.4 0.6 -1
v 0.4 0.8 1
v 0.4 0.8 -1
v 0.6 0.8 1
v 0.6 0.8 -1
v 0.6 0.9 1
v 0.6 0.9 -1
v 0.6 1.7 1
v 0.6 1.7 -1
v 0.6 1.8 1
v 0.6 1.8 -1
v 0.8 0.9 1
v 0.8 0.9 -1
v 0.8 1 1
v 0.8 1 -1
v 0.8 1.6 1
v 0.8 1.6 -1
v 0.8 1.7 1
v 0.8 1.7 -1
v 0.9 1 1
v 0.9 1 -1
v 0.9 1.2 1
v 0.9 1.2 -1
v 0.9 1.4 1
v 0.9 1.4 -1
v 0.9 1.6 1
v 0.9 1.6 -1
v 1 1.2 1
v 1 1.2 -1
v 1 1.4 1
v 1 1.4 -1
v 1.1 0 1
v 1.1 0 -1
v 1.1 0.1 1
v 1.1 0.1 -1
v 1.1 0.9 1
v 1.1 0.9 -1
v 1.1 1 1
v 1.1 1 -1
v 1.3 0.1 1
v 1.3 0.1 -1
v 1.3 0.2 1
v 1.3 0.2 -1
v 1.3 0.8 1
v 1.3 0.8 -1
v 1.3 0.9 1
v 1.3 0.9 -1
v 1.4 0.2 1
v 1.4 0.2 -1
v 1.4 0.4 1
v 1.4 0.4 -1
v 1.4 0.6 1
v 1.4 0.6 -1
v 1.4 0.8 1
v 1.4 0.8 -1
v 1.5 0.4 1
v 1.5 0.4 -1
v 1.5 0.6 1
v 1.5 0.6 -1
v -0.5 0.4 1
v -0.5 0.6 1
v -0.4 0.2 1
v -0.4 0.4 1
v -0.4 0.6 1
v -0.4 0.8 1
v -0.3 0.1 1
v -0.3 0.2 1
v -0.3 0.4 1
v -0.3 0.6 1
v -0.3 0.8 1
v -0.3 0.9 1
v -0.2 0.4 1
v -0.2 0.6 1
v -0.1 0 1
v -0.1 0.1 1
v -0.1 0.2 1
v -0.1 0.3 1
v -0.1 0.4 1
v -0.1 0.6 1
v -0.1 0.7 1
v -0.1 0.8 1
v -0.1 0.9 1
v -0.1 1 1
v 0 1.2 1
v 0 1.4 1
v 0.1 0 1
v 0.1 0.1 1
v 0.1 0.2 1
v 0.1 0.3 1
v 0.1 0.4 1
v 0.1 0.6 1
v 0.1 0.7 1
v 0.1 0.8 1
v 0.1 0.9 1
v 0.1 1 1
v 0.1 1.2 1
v 0.1 1.4 1
v 0.1 1.6 1
v 0.2 0.4 1
v 0.2 0.6 1
v 0.2 0.9 1
v 0.2 1 1
v 0.2 1.2 1
v 0.2 1.4 1
v 0.2 1.6 1
v 0.2 1.7 1
v 0.3 0.1 1
v 0.3 0.2 1
v 0.3 0.4 1
v 0.3 0.6 1
v 0.3 0.8 1
v 0.3 0.9 1
v 0.3 1.2 1
v 0.3 1.4 1
v 0.4 0.2 1
v 0.4 0.4 1
v 0.4 0.6 1
v 0.4 0.8 1
v 0.4 0.9 1
v 0.4 1 1
v 0.4 1.1 1
v 0.4 1.2 1
v 0.4 1.4 1
v 0.4 1.5 1
v 0.4 1.6 1
v 0.4 1.7 1
v 0.4 1.8 1
v 0.6 0.2 1
v 0.6 0.4 1
v 0.6 0.6 1
v 0.6 0.8 1
v 0.6 0.9 1
v 0.6 1 1
v 0.6 1.1 1
v 0.6 1.2 1
v 0.6 1.4 1
v 0.6 1.5 1
v 0.6 1.6 1
v 0.6 1.7 1
v 0.6 1.8 1
v 0.7 0.1 1
v 0.7 0.2 1
v 0.7 0.4 1
v 0.7 0.6 1
v 0.7 0.8 1
v 0.7 0.9 1
v 0.7 1.2 1
v 0.7 1.4 1
v 0.8 0.4 1
v 0.8 0.6 1
v 0.8 0.9 1
v 0.8 1 1
v 0.8 1.2 1
v 0.8 1.4 1
v 0.8 1.6 1
v 0.8 1.7 1
v 0.9 0 1
v 0.9 0.1 1
v 0.9 0.2 1
v 0.9 0.3 1
v 0.9 0.4 1
v 0.9 0.6 1
v 0.9 0.7 1
v 0.9 0.8 1
v 0.9 0.9 1
v 0.9 1 1
v 0.9 1.2 1
v 0.9 1.4 1
v 0.9 1.6 1
v 1 1.2 1
v 1 1.4 1
v 1.1 0 1
v 1.1 0.1 1
v 1.1 0.2 1
v 1.1 0.3 1
v 1.1 0.4 1
v 1.1 0.6 1
v 1.1 0.7 1
v 1.1 0.8 1
v 1.1 0.9 1
v 1.1 1 1
v 1.2 0.4 1
v 1.2 0.6 1
v 1.3 0.1 1
v 1.3 0.2 1
v 1.3 0.4 1
v 1.3 0.6 1
v 1.3 0.8 1
v 1.3 0.9 1
v 1.4 0.2 1
v 1.4 0.4 1
v 1.4 0.6 1
v 1.4 0.8 1
v 1.5 0.4 1
v 1.5 0.6 1
v -0.5 0.4 -1
v -0.5 0.6 -1
v -0.4 0.2 -1
v -0.4 0.4 -1
v -0.4 0.6 -1
v -0.4 0.8 -1
v -0.3 0.1 -1
v -0.3 0.2 -1
v -0.3 0.4 -1
v -0.3 0.6 -1
v -0.3 0.8 -1
v -0.3 0.9 -1
v -0.2 0.4 -1
v -0.2 0.6 -1
v -0.1 0 -1
v -0.1 0.1 -1
v -0.1 0.2 -1
v -0.1 0.3 -1
v -0.1 0.4 -1
v -0.1 0.6 -1
v -0.1 0.7 -1
v -0.1 0.8 -1
v -0.1 0.9 -1
v -0.1 1 -1
v 0 1.2 -1
v 0 1.4 -1
v 0.1 0 -1
v 0.1 0.1 -1
v 0.1 0.2 -1
v 0.1 0.3 -1
v 0.1 0.4 -1
v 0.1 0.6 -1
v 0.1 0.7 -1
v 0.1 0.8 -1
v 0.1 0.9 -1
v 0.1 1 -1
v 0.1 1.2 -1
v 0.1 1.4 -1
v 0.1 1.6 -1
v 0.2 0.4 -1
v 0.2 0.6 -1
v 0.2 0.9 -1
v 0.2 1 -1
v 0.2 1.2 -1
v 0.2 1.4 -1
v 0.2 1.6 -1
v 0.2 1.7 -1
v 0.3 0.1 -1
v 0.3 0.2 -1
v 0.3 0.4 -1
v 0.3 0.6 -1
v 0.3 0.8 -1
v 0.3 0.9 -1
v 0.3 1.2 -1
v 0.3 1.4 -1
v 0.4 0.2 -1
v 0.4 0.4 -1
v 0.4 0.6 -1
v 0.4 0.8 -1
v 0.4 0.9 -1
v 0.4 1 -1
v 0.4 1.1 -1
v 0.4 1.2 -1
v 0.4 1.4 -1
v 0.4 1.5 -1
v 0.4 1.6 -1
v 0.4 1.7 -1
v 0.4 1.8 -1
v 0.6 0.2 -1
v 0.6 0.4 -1
v 0.6 0.6 -1
v 0.6 0.8 -1
v 0.6 0.9 -1
v 0.6 1 -1
v 0.6 1.1 -1
v 0.6 1.2 -1
v 0.6 1.4 -1
v 0.6 1.5 -1
v 0.6 1.6 -1
v 0.6 1.7 -1
v 0.6 1.8 -1
v 0.7 0.1 -1
v 0.7 0.2 -1
v 0.7 0.4 -1
v 0.7 0.6 -1
v 0.7 0.8 -1
v 0.7 0.9 -1
v 0.7 1.2 -1
v 0.7 1.4 -1
v 0.8 0.4 -1
v 0.8 0.6 -1
v 0.8 0.9 -1
v 0.8 1 -1
v 0.8 1.2 -1
v 0.8 1.4 -1
v 0.8 1.6 -1
v 0.8 1.7 -1
v 0.9 0 -1
v 0.9 0.1 -1
v 0.9 0.2 -1
v 0.9 0.3 -1
v 0.9 0.4 -1
v 0.9 0.6 -1
v 0.9 0.7 -1
v 0.9 0.8 -1
v 0.9 0.9 -1
v 0.9 1 -1
v 0.9 1.2 -1
v 0.9 1.4 -1
v 0.9 1.6 -1
v 1 1.2 -1
v 1 1.4 -1
v 1.1 0 -1
v 1.1 0.1 -1
v 1.1 0.2 -1
v 1.1 0.3 -1
v 1.1 0.4 -1
v 1.1 0.6 -1
v 1.1 0.7 -1
v 1.1 0.8 -1
v 1.1 0.9 -1
v 1.1 1 -1
v 1.2 0.4 -1
v 1.2 0.6 -1
v 1.3 0.1 -1
v 1.3 0.2 -1
v 1.3 0.4 -1
v 1.3 0.6 -1
v 1.3 0.8 -1
v 1.3 0.9 -1
v 1.4 0.2 -1
v 1.4 0.4 -1
v 1.4 0.6 -1
v 1.4 0.8 -1
v 1.5 0.4 -1
v 1.5 0.6 -1
v -0.1 0 1
v 0.1 0 1
v 0.9 0 1
v 1.1 0 1
v -0.1 0 -1
v 0.1 0 -1
v 0.9 0 -1
v 1.1 0 -1
v -0.3 0.1 1
v -0.1 0.1 1
v 0.1 0.1 1
v 0.3 0.1 1
v 0.7 0.1 1
v 0.9 0.1 1
v 1.1 0.1 1
v 1.3 0.1 1
v -0.3 0.1 -1
v -0.1 0.1 -1
v 0.1 0.1 -1
v 0.3 0.1 -1
v 0.7 0.1 -1
v 0.9 0.1 -1
v 1.1 0.1 -1
v 1.3 0.1 -1
v -0.4 0.2 1
v -0.3 0.2 1
v 0.3 0.2 1
v 0.4 0.2 1
v 0.6 0.2 1
v 0.7 0.2 1
v 1.3 0.2 1
v 1.4 0.2 1
v -0.4 0.2 -1
v -0.3 0.2 -1
v 0.3 0.2 -1
v 0.4 0.2 -1
v 0.6 0.2 -1
v 0.7 0.2 -1
v 1.3 0.2 -1
v 1.4 0.2 -1
v -0.5 0.4 1
v -0.4 0.4 1
v 0.4 0.4 1
v 0.6 0.4 1
v 1.4 0.4 1
v 1.5 0.4 1
v -0.5 0.4 -1
v -0.4 0.4 -1
v 0.4 0.4 -1
v 0.6 0.4 -1
v 1.4 0.4 -1
v 1.5 0.4 -1
v 0.4 0.8 1
v 0.6 0.8 1
v 0.4 0.8 -1
v 0.6 0.8 -1
v 0.3 0.9 1
v 0.4 0.9 1
v 0.6 0.9 1
v 0.7 0.9 1
v 0.3 0.9 -1
v 0.4 0.9 -1
v 0.6 0.9 -1
v 0.7 0.9 -1
v 0.1 1 1
v 0.2 1 1
v 0.8 1 1
v 0.9 1 1
v 0.1 1 -1
v 0.2 1 -1
v 0.8 1 -1
v 0.9 1 -1
v 0 1.2 1
v 0.1 1.2 1
v 0.9 1.2 1
v 1 1.2 1
v 0 1.2 -1
v 0.1 1.2 -1
v 0.9 1.2 -1
v 1 1.2 -1
v -0.5 0.6 1
v -0.4 0.6 1
v 0.4 0.6 1
v 0.6 0.6 1
v 1.4 0.6 1
v 1.5 0.6 1
v -0.5 0.6 -1
v -0.4 0.6 -1
v 0.4 0.6 -1
v 0.6 0.6 -1
v 1.4 0.6 -1
v 1.5 0.6 -1
v -0.4 0.8 1
v -0.3 0.8 1
v 0.3 0.8 1
v 0.4 0.8 1
v 0.6 0.8 1
v 0.7 0.8 1
v 1.3 0.8 1
v 1.4 0.8 1
v -0.4 0.8 -1
v -0.3 0.8 -1
v 0.3 0.8 -1
v 0.4 0.8 -1
v 0.6 0.8 -1
v 0.7 0.8 -1
v 1.3 0.8 -1
v 1.4 0.8 -1
v -0.3 0.9 1
v -0.1 0.9 1
v 0.1 0.9 1
v 0.2 0.9 1
v 0.8 0.9 1
v 0.9 0.9 1
v 1.1 0.9 1
v 1.3 0.9 1
v -0.3 0.9 -1
v -0.1 0.9 -1
v 0.1 0.9 -1
v 0.2 0.9 -1
v 0.8 0.9 -1
v 0.9 0.9 -1
v 1.1 0.9 -1
v 1.3 0.9 -1
v -0.1 1 1
v 0.1 1 1
v 0.9 1 1
v 1.1 1 1
v -0.1 1 -1
v 0.1 1 -1
v 0.9 1 -1
v 1.1 1 -1
v 0 1.4 1
v 0.1 1.4 1
v 0.9 1.4 1
v 1 1.4 1
v 0 1.4 -1
v 0.1 1.4 -1
v 0.9 1.4 -1
v 1 1.4 -1
v 0.1 1.6 1
v 0.2 1.6 1
v 0.8 1.6 1
v 0.9 1.6 1
v 0.1 1.6 -1
v 0.2 1.6 -1
v 0.8 1.6 -1
v 0.9 1.6 -1
v 0.2 1.7 1
v 0.4 1.7 1
v 0.6 1.7 1
v 0.8 1.7 1
v 0.2 1.7 -1
v 0.4 1.7 -1
v 0.6 1.7 -1
v 0.8 1.7 -1
v 0.4 1.8 1
v 0.6 1.8 1
v 0.4 1.8 -1
v 0.6 1.8 -1

# faces
f 3/1/1 2/1/1 1/1/1
f 4/1/1 2/1/1 3/1/1
f 7/1/1 6/1/1 5/1/1
f 8/1/1 6/1/1 7/1/1
f 11/1/1 10/1/1 9/1/1
f 12/1/1 10/1/1 11/1/1
f 15/1/1 14/1/1 13/1/1
f 16/1/1 14/1/1 15/1/1
f 19/1/1 18/1/1 17/1/1
f 20/1/1 18/1/1 19/1/1
f 23/1/1 22/1/1 21/1/1
f 24/1/1 22/1/1 23/1/1
f 27/1/1 26/1/1 25/1/1
f 28/1/1 26/1/1 27/1/1
f 31/1/1 30/1/1 29/1/1
f 32/1/1 30/1/1 31/1/1
f 35/1/1 34/1/1 33/1/1
f 36/1/1 34/1/1 35/1/1
f 39/1/1 38/1/1 37/1/1
f 40/1/1 38/1/1 39/1/1
f 43/1/1 42/1/1 41/1/1
f 44/1/1 42/1/1 43/1/1
f 47/1/1 46/1/1 45/1/1
f 48/1/1 46/1/1 47/1/1
f 51/1/1 50/1/1 49/1/1
f 52/1/1 50/1/1 51/1/1
f 55/1/1 54/1/1 53/1/1
f 56/1/1 54/1/1 55/1/1
f 59/1/1 58/1/1 57/1/1
f 60/1/1 58/1/1 59/1/1
f 63/1/1 62/1/1 61/1/1
f 64/1/1 62/1/1 63/1/1
f 67/1/1 66/1/1 65/1/1
f 68/1/1 66/1/1 67/1/1
f 71/1/1 70/1/1 69/1/1
f 72/1/1 70/1/1 71/1/1
f 75/1/1 74/1/1 73/1/1
f 76/1/1 74/1/1 75/1/1
f 79/1/1 78/1/1 77/1/1
f 80/1/1 78/1/1 79/1/1
f 81/1/2 82/1/2 83/1/2
f 83/1/2 82/1/2 84/1/2
f 85/1/2 86/1/2 87/1/2
f 87/1/2 86/1/2 88/1/2
f 89/1/2 90/1/2 91/1/2
f 91/1/2 90/1/2 92/1/2
f 93/1/2 94/1/2 95/1/2
f 95/1/2 94/1/2 96/1/2
f 97/1/2 98/1/2 99/1/2
f 99/1/2 98/1/2 100/1/2
f 101/1/2 102/1/2 103/1/2
f 103/1/2 102/1/2 104/1/2
f 105/1/2 106/1/2 107/1/2
f 107/1/2 106/1/2 108/1/2
f 109/1/2 110/1/2 111/1/2
f 111/1/2 110/1/2 112/1/2
f 113/1/2 114/1/2 115/1/2
f 115/1/2 114/1/2 116/1/2
f 117/1/2 118/1/2 119/1/2
f 119/1/2 118/1/2 120/1/2
f 121/1/2 122/1/2 123/1/2
f 123/1/2 122/1/2 124/1/2
f 125/1/2 126/1/2 127/1/2
f 127/1/2 126/1/2 128/1/2
f 129/1/2 130/1/2 131/1/2
f 131/1/2 130/1/2 132/1/2
f 133/1/2 134/1/2 135/1/2
f 135/1/2 134/1/2 136/1/2
f 137/1/2 138/1/2 139/1/2
f 139/1/2 138/1/2 140/1/2
f 141/1/2 142/1/2 143/1/2
f 143/1/2 142/1/2 144/1/2
f 145/1/2 146/1/2 147/1/2
f 147/1/2 146/1/2 148/1/2
f 149/1/2 150/1/2 151/1/2
f 151/1/2 150/1/2 152/1/2
f 153/1/2 154/1/2 155/1/2
f 155/1/2 154/1/2 156/1/2
f 157/1/2 158/1/2 159/1/2
f 159/1/2 158/1/2 160/1/2
f 164/1/3 162/1/3 161/1/3
f 165/1/3 162/1/3 164/1/3
f 168/1/3 164/1/3 163/1/3
f 169/3/3 165/3/3 164/3/3
f 169/1/3 164/1/3 168/1/3
f 170/1/3 166/1/3 165/1/3
f 170/3/3 165/3/3 169/3/3
f 171/1/3 166/1/3 170/1/3
f 173/3/3 169/3/3 168/3/3
f 173/3/3 170/3/3 169/3/3
f 173/3/3 171/3/3 170/3/3
f 174/3/3 171/3/3 173/3/3
f 176/1/3 168/1/3 167/1/3
f 177/3/3 173/3/3 168/3/3
f 177/1/3 168/1/3 176/1/3
f 178/3/3 173/3/3 177/3/3
f 179/2/3 174/2/3 173/2/3
f 179/3/3 173/3/3 178/3/3
f 180/3/3 171/3/3 174/3/3
f 180/2/3 174/2/3 179/2/3
f 181/3/3 171/3/3 180/3/3
f 182/1/3 172/1/3 171/1/3
f 182/3/3 171/3/3 181/3/3
f 183/1/3 172/1/3 182/1/3
f 187/1/3 176/1/3 175/1/3
f 188/3/3 178/3/3 177/3/3
f 188/1/3 176/1/3 187/1/3
f 188/3/3 177/3/3 176/3/3
f 189/3/3 178/3/3 188/3/3
f 190/2/3 179/2/3 178/2/3
f 190/3/3 178/3/3 189/3/3
f 191/3/3 180/3/3 179/3/3
f 191/2/3 179/2/3 190/2/3
f 192/2/3 181/2/3 180/2/3
f 192/3/3 180/3/3 191/3/3
f 193/3/3 182/3/3 181/3/3
f 193/2/3 181/2/3 192/2/3
f 193/3/3 183/3/3 182/3/3
f 194/3/3 183/3/3 193/3/3
f 195/1/3 184/1/3 183/1/3
f 195/3/3 183/3/3 194/3/3
f 196/1/3 184/1/3 195/1/3
f 197/1/3 186/1/3 185/1/3
f 198/1/3 186/1/3 197/1/3
f 200/3/3 191/3/3 190/3/3
f 200/3/3 190/3/3 189/3/3
f 200/2/3 192/2/3 191/2/3
f 201/3/3 194/3/3 193/3/3
f 201/2/3 192/2/3 200/2/3
f 201/3/3 193/3/3 192/3/3
f 202/1/3 195/1/3 194/1/3
f 203/1/3 197/1/3 196/1/3
f 204/3/3 198/3/3 197/3/3
f 204/1/3 197/1/3 203/1/3
f 205/1/3 199/1/3 198/1/3
f 205/3/3 198/3/3 204/3/3
f 206/1/3 199/1/3 205/1/3
f 208/1/3 189/1/3 188/1/3
f 209/3/3 200/3/3 189/3/3
f 209/1/3 189/1/3 208/1/3
f 209/3/3 201/3/3 200/3/3
f 210/3/3 201/3/3 209/3/3
f 211/3/3 194/3/3 201/3/3
f 211/3/3 201/3/3 210/3/3
f 212/1/3 203/1/3 202/1/3
f 212/3/3 194/3/3 211/3/3
f 212/1/3 202/1/3 194/1/3
f 213/1/3 203/1/3 212/1/3
f 214/3/3 204/3/3 203/3/3
f 214/3/3 206/3/3 205/3/3
f 214/3/3 205/3/3 204/3/3
f 215/3/3 206/3/3 214/3/3
f 216/1/3 210/1/3 209/1/3
f 217/3/3 211/3/3 210/3/3
f 217/1/3 210/1/3 216/1/3
f 218/1/3 212/1/3 211/1/3
f 218/3/3 211/3/3 217/3/3
f 219/1/3 212/1/3 218/1/3
f 220/1/3 203/1/3 213/1/3
f 221/3/3 214/3/3 203/3/3
f 221/1/3 203/1/3 220/1/3
f 222/3/3 214/3/3 221/3/3
f 223/2/3 215/2/3 214/2/3
f 223/3/3 214/3/3 222/3/3
f 224/3/3 206/3/3 215/3/3
f 224/2/3 215/2/3 223/2/3
f 225/3/3 206/3/3 224/3/3
f 226/1/3 207/1/3 206/1/3
f 226/3/3 206/3/3 225/3/3
f 227/1/3 207/1/3 226/1/3
f 230/1/3 218/1/3 217/1/3
f 231/1/3 218/1/3 230/1/3
f 232/1/3 220/1/3 219/1/3
f 233/3/3 222/3/3 221/3/3
f 233/3/3 221/3/3 220/3/3
f 233/1/3 220/1/3 232/1/3
f 234/3/3 222/3/3 233/3/3
f 235/2/3 223/2/3 222/2/3
f 235/3/3 222/3/3 234/3/3
f 236/3/3 224/3/3 223/3/3
f 236/2/3 223/2/3 235/2/3
f 237/2/3 225/2/3 224/2/3
f 237/3/3 224/3/3 236/3/3
f 238/3/3 227/3/3 226/3/3
f 238/2/3 225/2/3 237/2/3
f 238/3/3 226/3/3 225/3/3
f 239/3/3 227/3/3 238/3/3
f 240/1/3 228/1/3 227/1/3
f 240/3/3 227/3/3 239/3/3
f 241/1/3 228/1/3 240/1/3
f 243/1/3 230/1/3 229/1/3
f 244/3/3 231/3/3 230/3/3
f 244/1/3 230/1/3 243/1/3
f 245/1/3 232/1/3 231/1/3
f 245/3/3 231/3/3 244/3/3
f 246/1/3 232/1/3 245/1/3
f 247/1/3 234/1/3 233/1/3
f 248/3/3 236/3/3 235/3/3
f 248/2/3 237/2/3 236/2/3
f 248/3/3 235/3/3 234/3/3
f 249/3/3 239/3/3 238/3/3
f 249/2/3 237/2/3 248/2/3
f 249/3/3 238/3/3 237/3/3
f 250/3/3 246/3/3 245/3/3
f 250/3/3 244/3/3 243/3/3
f 250/3/3 245/3/3 244/3/3
f 251/3/3 246/3/3 250/3/3
f 252/1/3 247/1/3 246/1/3
f 252/1/3 234/1/3 247/1/3
f 253/3/3 248/3/3 234/3/3
f 253/1/3 234/1/3 252/1/3
f 253/3/3 249/3/3 248/3/3
f 254/3/3 249/3/3 253/3/3
f 255/3/3 239/3/3 249/3/3
f 255/3/3 249/3/3 254/3/3
f 256/1/3 240/1/3 239/1/3
f 256/3/3 239/3/3 255/3/3
f 257/1/3 240/1/3 256/1/3
f 259/1/3 243/1/3 242/1/3
f 260/3/3 250/3/3 243/3/3
f 260/1/3 243/1/3 259/1/3
f 261/3/3 250/3/3 260/3/3
f 262/2/3 251/2/3 250/2/3
f 262/3/3 250/3/3 261/3/3
f 263/3/3 246/3/3 251/3/3
f 263/2/3 251/2/3 262/2/3
f 264/3/3 246/3/3 263/3/3
f 265/1/3 252/1/3 246/1/3
f 265/3/3 246/3/3 264/3/3
f 266/1/3 252/1/3 265/1/3
f 267/1/3 254/1/3 253/1/3
f 268/3/3 255/3/3 254/3/3
f 268/1/3 254/1/3 267/1/3
f 269/1/3 256/1/3 255/1/3
f 269/3/3 255/3/3 268/3/3
f 270/1/3 256/1/3 269/1/3
f 271/1/3 269/1/3 268/1/3
f 272/1/3 269/1/3 271/1/3
f 273/1/3 259/1/3 258/1/3
f 274/3/3 261/3/3 260/3/3
f 274/1/3 259/1/3 273/1/3
f 274/3/3 260/3/3 259/3/3
f 275/3/3 261/3/3 274/3/3
f 276/2/3 262/2/3 261/2/3
f 276/3/3 261/3/3 275/3/3
f 277/3/3 263/3/3 262/3/3
f 277/2/3 262/2/3 276/2/3
f 278/2/3 264/2/3 263/2/3
f 278/3/3 263/3/3 277/3/3
f 279/3/3 266/3/3 265/3/3
f 279/2/3 264/2/3 278/2/3
f 279/3/3 265/3/3 264/3/3
f 280/3/3 266/3/3 279/3/3
f 281/1/3 267/1/3 266/1/3
f 281/3/3 266/3/3 280/3/3
f 282/1/3 267/1/3 281/1/3
f 283/3/3 277/3/3 276/3/3
f 283/2/3 278/2/3 277/2/3
f 283/3/3 276/3/3 275/3/3
f 284/3/3 280/3/3 279/3/3
f 284/2/3 278/2/3 283/2/3
f 284/3/3 279/3/3 278/3/3
f 285/1/3 275/1/3 274/1/3
f 286/3/3 283/3/3 275/3/3
f 286/1/3 275/1/3 285/1/3
f 286/3/3 284/3/3 283/3/3
f 287/3/3 284/3/3 286/3/3
f 288/3/3 280/3/3 284/3/3
f 288/3/3 284/3/3 287/3/3
f 289/1/3 281/1/3 280/1/3
f 289/3/3 280/3/3 288/3/3
f 290/1/3 281/1/3 289/1/3
f 291/1/3 287/1/3 286/1/3
f 292/3/3 288/3/3 287/3/3
f 292/1/3 287/1/3 291/1/3
f 293/1/3 289/1/3 288/1/3
f 293/3/3 288/3/3 292/3/3
f 294/1/3 289/1/3 293/1/3
f 295/1/3 293/1/3 292/1/3
f 296/1/3 293/1/3 295/1/3
f 297/1/4 298/1/4 300/1/4
f 300/1/4 298/1/4 301/1/4
f 299/1/4 300/1/4 304/1/4
f 300/3/4 301/3/4 305/3/4
f 304/1/4 300/1/4 305/1/4
f 301/1/4 302/1/4 306/1/4
f 305/3/4 301/3/4 306/3/4
f 306/1/4 302/1/4 307/1/4
f 304/3/4 305/3/4 309/3/4
f 305/3/4 306/3/4 309/3/4
f 306/3/4 307/3/4 309/3/4
f 309/3/4 307/3/4 310/3/4
f 303/1/4 304/1/4 312/1/4
f 304/3/4 309/3/4 313/3/4
f 312/1/4 304/1/4 313/1/4
f 313/3/4 309/3/4 314/3/4
f 309/2/4 310/2/4 315/2/4
f 314/3/4 309/3/4 315/3/4
f 310/3/4 307/3/4 316/3/4
f 315/2/4 310/2/4 316/2/4
f 316/3/4 307/3/4 317/3/4
f 307/1/4 308/1/4 318/1/4
f 317/3/4 307/3/4 318/3/4
f 318/1/4 308/1/4 319/1/4
f 311/1/4 312/1/4 323/1/4
f 313/3/4 314/3/4 324/3/4
f 323/1/4 312/1/4 324/1/4
f 312/3/4 313/3/4 324/3/4
f 324/3/4 314/3/4 325/3/4
f 314/2/4 315/2/4 326/2/4
f 325/3/4 314/3/4 326/3/4
f 315/3/4 316/3/4 327/3/4
f 326/2/4 315/2/4 327/2/4
f 316/2/4 317/2/4 328/2/4
f 327/3/4 316/3/4 328/3/4
f 317/3/4 318/3/4 329/3/4
f 328/2/4 317/2/4 329/2/4
f 318/3/4 319/3/4 329/3/4
f 329/3/4 319/3/4 330/3/4
f 319/1/4 320/1/4 331/1/4
f 330/3/4 319/3/4 331/3/4
f 331/1/4 320/1/4 332/1/4
f 321/1/4 322/1/4 333/1/4
f 333/1/4 322/1/4 334/1/4
f 326/3/4 327/3/4 336/3/4
f 325/3/4 326/3/4 336/3/4
f 327/2/4 328/2/4 336/2/4
f 329/3/4 330/3/4 337/3/4
f 336/2/4 328/2/4 337/2/4
f 328/3/4 329/3/4 337/3/4
f 330/1/4 331/1/4 338/1/4
f 332/1/4 333/1/4 339/1/4
f 333/3/4 334/3/4 340/3/4
f 339/1/4 333/1/4 340/1/4
f 334/1/4 335/1/4 341/1/4
f 340/3/4 334/3/4 341/3/4
f 341/1/4 335/1/4 342/1/4
f 324/1/4 325/1/4 344/1/4
f 325/3/4 336/3/4 345/3/4
f 344/1/4 325/1/4 345/1/4
f 336/3/4 337/3/4 345/3/4
f 345/3/4 337/3/4 346/3/4
f 337/3/4 330/3/4 347/3/4
f 346/3/4 337/3/4 347/3/4
f 338/1/4 339/1/4 348/1/4
f 347/3/4 330/3/4 348/3/4
f 330/1/4 338/1/4 348/1/4
f 348/1/4 339/1/4 349/1/4
f 339/3/4 340/3/4 350/3/4
f 341/3/4 342/3/4 350/3/4
f 340/3/4 341/3/4 350/3/4
f 350/3/4 342/3/4 351/3/4
f 345/1/4 346/1/4 352/1/4
f 346/3/4 347/3/4 353/3/4
f 352/1/4 346/1/4 353/1/4
f 347/1/4 348/1/4 354/1/4
f 353/3/4 347/3/4 354/3/4
f 354/1/4 348/1/4 355/1/4
f 349/1/4 339/1/4 356/1/4
f 339/3/4 350/3/4 357/3/4
f 356/1/4 339/1/4 357/1/4
f 357/3/4 350/3/4 358/3/4
f 350/2/4 351/2/4 359/2/4
f 358/3/4 350/3/4 359/3/4
f 351/3/4 342/3/4 360/3/4
f 359/2/4 351/2/4 360/2/4
f 360/3/4 342/3/4 361/3/4
f 342/1/4 343/1/4 362/1/4
f 361/3/4 342/3/4 362/3/4
f 362/1/4 343/1/4 363/1/4
f 353/1/4 354/1/4 366/1/4
f 366/1/4 354/1/4 367/1/4
f 355/1/4 356/1/4 368/1/4
f 357/3/4 358/3/4 369/3/4
f 356/3/4 357/3/4 369/3/4
f 368/1/4 356/1/4 369/1/4
f 369/3/4 358/3/4 370/3/4
f 358/2/4 359/2/4 371/2/4
f 370/3/4 358/3/4 371/3/4
f 359/3/4 360/3/4 372/3/4
f 371/2/4 359/2/4 372/2/4
f 360/2/4 361/2/4 373/2/4
f 372/3/4 360/3/4 373/3/4
f 362/3/4 363/3/4 374/3/4
f 373/2/4 361/2/4 374/2/4
f 361/3/4 362/3/4 374/3/4
f 374/3/4 363/3/4 375/3/4
f 363/1/4 364/1/4 376/1/4
f 375/3/4 363/3/4 376/3/4
f 376/1/4 364/1/4 377/1/4
f 365/1/4 366/1/4 379/1/4
f 366/3/4 367/3/4 380/3/4
f 379/1/4 366/1/4 380/1/4
f 367/1/4 368/1/4 381/1/4
f 380/3/4 367/3/4 381/3/4
f 381/1/4 368/1/4 382/1/4
f 369/1/4 370/1/4 383/1/4
f 371/3/4 372/3/4 384/3/4
f 372/2/4 373/2/4 384/2/4
f 370/3/4 371/3/4 384/3/4
f 374/3/4 375/3/4 385/3/4
f 384/2/4 373/2/4 385/2/4
f 373/3/4 374/3/4 385/3/4
f 381/3/4 382/3/4 386/3/4
f 379/3/4 380/3/4 386/3/4
f 380/3/4 381/3/4 386/3/4
f 386/3/4 382/3/4 387/3/4
f 382/1/4 383/1/4 388/1/4
f 383/1/4 370/1/4 388/1/4
f 370/3/4 384/3/4 389/3/4
f 388/1/4 370/1/4 389/1/4
f 384/3/4 385/3/4 389/3/4
f 389/3/4 385/3/4 390/3/4
f 385/3/4 375/3/4 391/3/4
f 390/3/4 385/3/4 391/3/4
f 375/1/4 376/1/4 392/1/4
f 391/3/4 375/3/4 392/3/4
f 392/1/4 376/1/4 393/1/4
f 378/1/4 379/1/4 395/1/4
f 379/3/4 386/3/4 396/3/4
f 395/1/4 379/1/4 396/1/4
f 396/3/4 386/3/4 397/3/4
f 386/2/4 387/2/4 398/2/4
f 397/3/4 386/3/4 398/3/4
f 387/3/4 382/3/4 399/3/4
f 398/2/4 387/2/4 399/2/4
f 399/3/4 382/3/4 400/3/4
f 382/1/4 388/1/4 401/1/4
f 400/3/4 382/3/4 401/3/4
f 401/1/4 388/1/4 402/1/4
f 389/1/4 390/1/4 403/1/4
f 390/3/4 391/3/4 404/3/4
f 403/1/4 390/1/4 404/1/4
f 391/1/4 392/1/4 405/1/4
f 404/3/4 391/3/4 405/3/4
f 405/1/4 392/1/4 406/1/4
f 404/1/4 405/1/4 407/1/4
f 407/1/4 405/1/4 408/1/4
f 394/1/4 395/1/4 409/1/4
f 396/3/4 397/3/4 410/3/4
f 409/1/4 395/1/4 410/1/4
f 395/3/4 396/3/4 410/3/4
f 410/3/4 397/3/4 411/3/4
f 397/2/4 398/2/4 412/2/4
f 411/3/4 397/3/4 412/3/4
f 398/3/4 399/3/4 413/3/4
f 412/2/4 398/2/4 413/2/4
f 399/2/4 400/2/4 414/2/4
f 413/3/4 399/3/4 414/3/4
f 401/3/4 402/3/4 415/3/4
f 414/2/4 400/2/4 415/2/4
f 400/3/4 401/3/4 415/3/4
f 415/3/4 402/3/4 416/3/4
f 402/1/4 403/1/4 417/1/4
f 416/3/4 402/3/4 417/3/4
f 417/1/4 403/1/4 418/1/4
f 412/3/4 413/3/4 419/3/4
f 413/2/4 414/2/4 419/2/4
f 411/3/4 412/3/4 419/3/4
f 415/3/4 416/3/4 420/3/4
f 419/2/4 414/2/4 420/2/4
f 414/3/4 415/3/4 420/3/4
f 410/1/4 411/1/4 421/1/4
f 411/3/4 419/3/4 422/3/4
f 421/1/4 411/1/4 422/1/4
f 419/3/4 420/3/4 422/3/4
f 422/3/4 420/3/4 423/3/4
f 420/3/4 416/3/4 424/3/4
f 423/3/4 420/3/4 424/3/4
f 416/1/4 417/1/4 425/1/4
f 424/3/4 416/3/4 425/3/4
f 425/1/4 417/1/4 426/1/4
f 422/1/4 423/1/4 427/1/4
f 423/3/4 424/3/4 428/3/4
f 427/1/4 423/1/4 428/1/4
f 424/1/4 425/1/4 429/1/4
f 428/3/4 424/3/4 429/3/4
f 429/1/4 425/1/4 430/1/4
f 428/1/4 429/1/4 431/1/4
f 431/1/4 429/1/4 432/1/4
f 437/1/5 434/1/5 433/1/5
f 438/1/5 434/1/5 437/1/5
f 439/1/5 436/1/5 435/1/5
f 440/1/5 436/1/5 439/1/5
f 449/1/5 442/1/5 441/1/5
f 450/1/5 442/1/5 449/1/5
f 451/1/5 444/1/5 443/1/5
f 452/1/5 444/1/5 451/1/5
f 453/1/5 446/1/5 445/1/5
f 454/1/5 446/1/5 453/1/5
f 455/1/5 448/1/5 447/1/5
f 456/1/5 448/1/5 455/1/5
f 465/1/5 458/1/5 457/1/5
f 466/1/5 458/1/5 465/1/5
f 467/1/5 460/1/5 459/1/5
f 468/1/5 460/1/5 467/1/5
f 469/1/5 462/1/5 461/1/5
f 470/1/5 462/1/5 469/1/5
f 471/1/5 464/1/5 463/1/5
f 472/1/5 464/1/5 471/1/5
f 479/1/5 474/1/5 473/1/5
f 480/1/5 474/1/5 479/1/5
f 481/1/5 476/1/5 475/1/5
f 482/1/5 476/1/5 481/1/5
f 483/1/5 478/1/5 477/1/5
f 484/1/5 478/1/5 483/1/5
f 487/1/5 486/1/5 485/1/5
f 488/1/5 486/1/5 487/1/5
f 493/1/5 490/1/5 489/1/5
f 494/1/5 490/1/5 493/1/5
f 495/1/5 492/1/5 491/1/5
f 496/1/5 492/1/5 495/1/5
f 501/1/5 498/1/5 497/1/5
f 502/1/5 498/1/5 501/1/5
f 503/1/5 500/1/5 499/1/5
f 504/1/5 500/1/5 503/1/5
f 509/1/5 506/1/5 505/1/5
f 510/1/5 506/1/5 509/1/5
f 511/1/5 508/1/5 507/1/5
f 512/1/5 508/1/5 511/1/5
f 513/1/6 514/1/6 519/1/6
f 519/1/6 514/1/6 520/1/6
f 515/1/6 516/1/6 521/1/6
f 521/1/6 516/1/6 522/1/6
f 517/1/6 518/1/6 523/1/6
f 523/1/6 518/1/6 524/1/6
f 525/1/6 526/1/6 533/1/6
f 533/1/6 526/1/6 534/1/6
f 527/1/6 528/1/6 535/1/6
f 535/1/6 528/1/6 536/1/6
f 529/1/6 530/1/6 537/1/6
f 537/1/6 530/1/6 538/1/6
f 531/1/6 532/1/6 539/1/6
f 539/1/6 532/1/6 540/1/6
f 541/1/6 542/1/6 549/1/6
f 549/1/6 542/1/6 550/1/6
f 543/1/6 544/1/6 551/1/6
f 551/1/6 544/1/6 552/1/6
f 545/1/6 546/1/6 553/1/6
f 553/1/6 546/1/6 554/1/6
f 547/1/6 548/1/6 555/1/6
f 555/1/6 548/1/6 556/1/6
f 557/1/6 558/1/6 561/1/6
f 561/1/6 558/1/6 562/1/6
f 559/1/6 560/1/6 563/1/6
f 563/1/6 560/1/6 564/1/6
f 565/1/6 566/1/6 569/1/6
f 569/1/6 566/1/6 570/1/6
f 567/1/6 568/1/6 571/1/6
f 571/1/6 568/1/6 572/1/6
f 573/1/6 574/1/6 577/1/6
f 577/1/6 574/1/6 578/1/6
f 575/1/6 576/1/6 579/1/6
f 579/1/6 576/1/6 580/1/6
f 581/1/6 582/1/6 585/1/6
f 585/1/6 582/1/6 586/1/6
f 583/1/6 584/1/6 587/1/6
f 587/1/6 584/1/6 588/1/6
f 589/1/6 590/1/6 591/1/6
f 591/1/6 590/1/6 592/1/6
