# MagicaVoxel @ Ephtracy

# group
o 

# material
mtllib Maul01.mtl
usemtl palette

# normals
vn -1 0 0
vn 1 0 0
vn 0 0 1
vn 0 0 -1
vn 0 -1 0
vn 0 1 0

# texcoords
vt 0.310547 0.5
vt 0.318359 0.5
vt 0.341797 0.5

# verts
v -0.9 2 0.2
v -0.9 2 -0.1
v -0.9 2.3 0.2
v -0.9 2.3 -0.1
v -0.8 1.9 0.2
v -0.8 1.9 -0.1
v -0.8 2 0.3
v -0.8 2 0.2
v -0.8 2 -0.1
v -0.8 2 -0.2
v -0.8 2.3 0.3
v -0.8 2.3 0.2
v -0.8 2.3 -0.1
v -0.8 2.3 -0.2
v -0.8 2.4 0.2
v -0.8 2.4 -0.1
v -0.7 1.8 0.2
v -0.7 1.8 -0.1
v -0.7 1.9 0.3
v -0.7 1.9 0.2
v -0.7 1.9 -0.1
v -0.7 1.9 -0.2
v -0.7 2 0.4
v -0.7 2 0.3
v -0.7 2 0.2
v -0.7 2 -0.1
v -0.7 2 -0.2
v -0.7 2 -0.3
v -0.7 2.3 0.4
v -0.7 2.3 0.3
v -0.7 2.3 0.2
v -0.7 2.3 -0.1
v -0.7 2.3 -0.2
v -0.7 2.3 -0.3
v -0.7 2.4 0.3
v -0.7 2.4 0.2
v -0.7 2.4 -0.1
v -0.7 2.4 -0.2
v -0.7 2.5 0.2
v -0.7 2.5 -0.1
v -0.2 0.1 0.1
v -0.2 0.1 0
v -0.2 2 0.1
v -0.2 2 0
v -0.2 2.3 0.1
v -0.2 2.3 0
v -0.2 2.4 0.1
v -0.2 2.4 0
v -0.1 0 0.1
v -0.1 0 0
v -0.1 0.1 0.2
v -0.1 0.1 0.1
v -0.1 0.1 0
v -0.1 0.1 -0.1
v -0.1 2 0.2
v -0.1 2 0.1
v -0.1 2 0
v -0.1 2 -0.1
v -0.1 2.3 0.2
v -0.1 2.3 0.1
v -0.1 2.3 0
v -0.1 2.3 -0.1
v -0.1 2.4 0.2
v -0.1 2.4 0.1
v -0.1 2.4 0
v -0.1 2.4 -0.1
v -0.1 2.5 0.1
v -0.1 2.5 0
v -0.4 1.8 0.2
v -0.4 1.8 -0.1
v -0.4 1.9 0.3
v -0.4 1.9 0.2
v -0.4 1.9 -0.1
v -0.4 1.9 -0.2
v -0.4 2 0.4
v -0.4 2 0.3
v -0.4 2 0.2
v -0.4 2 -0.1
v -0.4 2 -0.2
v -0.4 2 -0.3
v -0.4 2.3 0.4
v -0.4 2.3 0.3
v -0.4 2.3 0.2
v -0.4 2.3 -0.1
v -0.4 2.3 -0.2
v -0.4 2.3 -0.3
v -0.4 2.4 0.3
v -0.4 2.4 0.2
v -0.4 2.4 -0.1
v -0.4 2.4 -0.2
v -0.4 2.5 0.2
v -0.4 2.5 -0.1
v -0.3 1.9 0.2
v -0.3 1.9 -0.1
v -0.3 2 0.3
v -0.3 2 0.2
v -0.3 2 -0.1
v -0.3 2 -0.2
v -0.3 2.3 0.3
v -0.3 2.3 0.2
v -0.3 2.3 -0.1
v -0.3 2.3 -0.2
v -0.3 2.4 0.2
v -0.3 2.4 -0.1
v 0 0 0.1
v 0 0 0
v 0 0.1 0.2
v 0 0.1 0.1
v 0 0.1 0
v 0 0.1 -0.1
v 0 2 0.2
v 0 2 0.1
v 0 2 0
v 0 2 -0.1
v 0 2.3 0.2
v 0 2.3 0.1
v 0 2.3 0
v 0 2.3 -0.1
v 0 2.4 0.2
v 0 2.4 0.1
v 0 2.4 0
v 0 2.4 -0.1
v 0 2.5 0.1
v 0 2.5 0
v 0.1 0.1 0.1
v 0.1 0.1 0
v 0.1 2 0.1
v 0.1 2 0
v 0.1 2.3 0.1
v 0.1 2.3 0
v 0.1 2.4 0.1
v 0.1 2.4 0
v 0.2 2 0.2
v 0.2 2 -0.1
v 0.2 2.3 0.2
v 0.2 2.3 -0.1
v -0.7 2 0.4
v -0.7 2.3 0.4
v -0.4 2 0.4
v -0.4 2.3 0.4
v -0.8 2 0.3
v -0.8 2.3 0.3
v -0.7 1.9 0.3
v -0.7 2 0.3
v -0.7 2.3 0.3
v -0.7 2.4 0.3
v -0.4 1.9 0.3
v -0.4 2 0.3
v -0.4 2.3 0.3
v -0.4 2.4 0.3
v -0.3 2 0.3
v -0.3 2.3 0.3
v -0.9 2 0.2
v -0.9 2.3 0.2
v -0.8 1.9 0.2
v -0.8 2 0.2
v -0.8 2.3 0.2
v -0.8 2.4 0.2
v -0.7 1.8 0.2
v -0.7 1.9 0.2
v -0.7 2 0.2
v -0.7 2.3 0.2
v -0.7 2.4 0.2
v -0.7 2.5 0.2
v -0.4 1.8 0.2
v -0.4 1.9 0.2
v -0.4 2 0.2
v -0.4 2.3 0.2
v -0.4 2.4 0.2
v -0.4 2.5 0.2
v -0.3 1.9 0.2
v -0.3 2 0.2
v -0.3 2.3 0.2
v -0.3 2.4 0.2
v -0.2 2 0.2
v -0.2 2.1 0.2
v -0.2 2.2 0.2
v -0.2 2.3 0.2
v -0.1 0.1 0.2
v -0.1 2 0.2
v -0.1 2.1 0.2
v -0.1 2.2 0.2
v -0.1 2.3 0.2
v -0.1 2.4 0.2
v 0 0.1 0.2
v 0 2 0.2
v 0 2.1 0.2
v 0 2.2 0.2
v 0 2.3 0.2
v 0 2.4 0.2
v 0.1 2 0.2
v 0.1 2.1 0.2
v 0.1 2.2 0.2
v 0.1 2.3 0.2
v 0.2 2 0.2
v 0.2 2.3 0.2
v -0.2 0.1 0.1
v -0.2 2 0.1
v -0.2 2.3 0.1
v -0.2 2.4 0.1
v -0.1 0 0.1
v -0.1 0.1 0.1
v -0.1 2 0.1
v -0.1 2.3 0.1
v -0.1 2.4 0.1
v -0.1 2.5 0.1
v 0 0 0.1
v 0 0.1 0.1
v 0 2 0.1
v 0 2.3 0.1
v 0 2.4 0.1
v 0 2.5 0.1
v 0.1 0.1 0.1
v 0.1 2 0.1
v 0.1 2.3 0.1
v 0.1 2.4 0.1
v -0.2 0.1 0
v -0.2 2 0
v -0.2 2.3 0
v -0.2 2.4 0
v -0.1 0 0
v -0.1 0.1 0
v -0.1 2 0
v -0.1 2.3 0
v -0.1 2.4 0
v -0.1 2.5 0
v 0 0 0
v 0 0.1 0
v 0 2 0
v 0 2.3 0
v 0 2.4 0
v 0 2.5 0
v 0.1 0.1 0
v 0.1 2 0
v 0.1 2.3 0
v 0.1 2.4 0
v -0.9 2 -0.1
v -0.9 2.3 -0.1
v -0.8 1.9 -0.1
v -0.8 2 -0.1
v -0.8 2.3 -0.1
v -0.8 2.4 -0.1
v -0.7 1.8 -0.1
v -0.7 1.9 -0.1
v -0.7 2 -0.1
v -0.7 2.3 -0.1
v -0.7 2.4 -0.1
v -0.7 2.5 -0.1
v -0.4 1.8 -0.1
v -0.4 1.9 -0.1
v -0.4 2 -0.1
v -0.4 2.3 -0.1
v -0.4 2.4 -0.1
v -0.4 2.5 -0.1
v -0.3 1.9 -0.1
v -0.3 2 -0.1
v -0.3 2.3 -0.1
v -0.3 2.4 -0.1
v -0.2 2 -0.1
v -0.2 2.1 -0.1
v -0.2 2.2 -0.1
v -0.2 2.3 -0.1
v -0.1 0.1 -0.1
v -0.1 2 -0.1
v -0.1 2.1 -0.1
v -0.1 2.2 -0.1
v -0.1 2.3 -0.1
v -0.1 2.4 -0.1
v 0 0.1 -0.1
v 0 2 -0.1
v 0 2.1 -0.1
v 0 2.2 -0.1
v 0 2.3 -0.1
v 0 2.4 -0.1
v 0.1 2 -0.1
v 0.1 2.1 -0.1
v 0.1 2.2 -0.1
v 0.1 2.3 -0.1
v 0.2 2 -0.1
v 0.2 2.3 -0.1
v -0.8 2 -0.2
v -0.8 2.3 -0.2
v -0.7 1.9 -0.2
v -0.7 2 -0.2
v -0.7 2.3 -0.2
v -0.7 2.4 -0.2
v -0.4 1.9 -0.2
v -0.4 2 -0.2
v -0.4 2.3 -0.2
v -0.4 2.4 -0.2
v -0.3 2 -0.2
v -0.3 2.3 -0.2
v -0.7 2 -0.3
v -0.7 2.3 -0.3
v -0.4 2 -0.3
v -0.4 2.3 -0.3
v -0.1 0 0.1
v 0 0 0.1
v -0.1 0 0
v 0 0 0
v -0.1 0.1 0.2
v 0 0.1 0.2
v -0.2 0.1 0.1
v -0.1 0.1 0.1
v 0 0.1 0.1
v 0.1 0.1 0.1
v -0.2 0.1 0
v -0.1 0.1 0
v 0 0.1 0
v 0.1 0.1 0
v -0.1 0.1 -0.1
v 0 0.1 -0.1
v -0.7 1.8 0.2
v -0.4 1.8 0.2
v -0.7 1.8 -0.1
v -0.4 1.8 -0.1
v -0.7 1.9 0.3
v -0.4 1.9 0.3
v -0.8 1.9 0.2
v -0.7 1.9 0.2
v -0.4 1.9 0.2
v -0.3 1.9 0.2
v -0.8 1.9 -0.1
v -0.7 1.9 -0.1
v -0.4 1.9 -0.1
v -0.3 1.9 -0.1
v -0.7 1.9 -0.2
v -0.4 1.9 -0.2
v -0.7 2 0.4
v -0.4 2 0.4
v -0.8 2 0.3
v -0.7 2 0.3
v -0.4 2 0.3
v -0.3 2 0.3
v -0.9 2 0.2
v -0.8 2 0.2
v -0.7 2 0.2
v -0.4 2 0.2
v -0.3 2 0.2
v -0.2 2 0.2
v -0.1 2 0.2
v 0 2 0.2
v 0.1 2 0.2
v 0.2 2 0.2
v -0.2 2 0.1
v -0.1 2 0.1
v 0 2 0.1
v 0.1 2 0.1
v -0.2 2 0
v -0.1 2 0
v 0 2 0
v 0.1 2 0
v -0.9 2 -0.1
v -0.8 2 -0.1
v -0.7 2 -0.1
v -0.4 2 -0.1
v -0.3 2 -0.1
v -0.2 2 -0.1
v -0.1 2 -0.1
v 0 2 -0.1
v 0.1 2 -0.1
v 0.2 2 -0.1
v -0.8 2 -0.2
v -0.7 2 -0.2
v -0.4 2 -0.2
v -0.3 2 -0.2
v -0.7 2 -0.3
v -0.4 2 -0.3
v -0.7 2.3 0.4
v -0.4 2.3 0.4
v -0.8 2.3 0.3
v -0.7 2.3 0.3
v -0.4 2.3 0.3
v -0.3 2.3 0.3
v -0.9 2.3 0.2
v -0.8 2.3 0.2
v -0.7 2.3 0.2
v -0.4 2.3 0.2
v -0.3 2.3 0.2
v -0.2 2.3 0.2
v -0.1 2.3 0.2
v 0 2.3 0.2
v 0.1 2.3 0.2
v 0.2 2.3 0.2
v -0.2 2.3 0.1
v -0.1 2.3 0.1
v 0 2.3 0.1
v 0.1 2.3 0.1
v -0.2 2.3 0
v -0.1 2.3 0
v 0 2.3 0
v 0.1 2.3 0
v -0.9 2.3 -0.1
v -0.8 2.3 -0.1
v -0.7 2.3 -0.1
v -0.4 2.3 -0.1
v -0.3 2.3 -0.1
v -0.2 2.3 -0.1
v -0.1 2.3 -0.1
v 0 2.3 -0.1
v 0.1 2.3 -0.1
v 0.2 2.3 -0.1
v -0.8 2.3 -0.2
v -0.7 2.3 -0.2
v -0.4 2.3 -0.2
v -0.3 2.3 -0.2
v -0.7 2.3 -0.3
v -0.4 2.3 -0.3
v -0.7 2.4 0.3
v -0.4 2.4 0.3
v -0.8 2.4 0.2
v -0.7 2.4 0.2
v -0.4 2.4 0.2
v -0.3 2.4 0.2
v -0.1 2.4 0.2
v 0 2.4 0.2
v -0.2 2.4 0.1
v -0.1 2.4 0.1
v 0 2.4 0.1
v 0.1 2.4 0.1
v -0.2 2.4 0
v -0.1 2.4 0
v 0 2.4 0
v 0.1 2.4 0
v -0.8 2.4 -0.1
v -0.7 2.4 -0.1
v -0.4 2.4 -0.1
v -0.3 2.4 -0.1
v -0.1 2.4 -0.1
v 0 2.4 -0.1
v -0.7 2.4 -0.2
v -0.4 2.4 -0.2
v -0.7 2.5 0.2
v -0.4 2.5 0.2
v -0.1 2.5 0.1
v 0 2.5 0.1
v -0.1 2.5 0
v 0 2.5 0
v -0.7 2.5 -0.1
v -0.4 2.5 -0.1

# faces
f 3/3/1 2/3/1 1/3/1
f 4/3/1 2/3/1 3/3/1
f 8/3/1 6/3/1 5/3/1
f 9/3/1 6/3/1 8/3/1
f 11/3/1 8/3/1 7/3/1
f 12/3/1 8/3/1 11/3/1
f 13/3/1 10/3/1 9/3/1
f 14/3/1 10/3/1 13/3/1
f 15/3/1 13/3/1 12/3/1
f 16/3/1 13/3/1 15/3/1
f 20/3/1 18/3/1 17/3/1
f 21/3/1 18/3/1 20/3/1
f 24/3/1 20/3/1 19/3/1
f 25/3/1 20/3/1 24/3/1
f 26/3/1 22/3/1 21/3/1
f 27/3/1 22/3/1 26/3/1
f 29/3/1 24/3/1 23/3/1
f 30/3/1 24/3/1 29/3/1
f 33/3/1 28/3/1 27/3/1
f 34/3/1 28/3/1 33/3/1
f 35/3/1 31/3/1 30/3/1
f 36/3/1 31/3/1 35/3/1
f 37/3/1 33/3/1 32/3/1
f 38/3/1 33/3/1 37/3/1
f 39/3/1 37/3/1 36/3/1
f 40/3/1 37/3/1 39/3/1
f 43/2/1 42/2/1 41/2/1
f 44/2/1 42/2/1 43/2/1
f 47/2/1 46/2/1 45/2/1
f 48/2/1 46/2/1 47/2/1
f 52/2/1 50/2/1 49/2/1
f 53/2/1 50/2/1 52/2/1
f 55/2/1 52/2/1 51/2/1
f 56/2/1 52/2/1 55/2/1
f 57/2/1 54/2/1 53/2/1
f 58/2/1 54/2/1 57/2/1
f 63/2/1 60/2/1 59/2/1
f 64/2/1 60/2/1 63/2/1
f 65/2/1 62/2/1 61/2/1
f 66/2/1 62/2/1 65/2/1
f 67/2/1 65/2/1 64/2/1
f 68/2/1 65/2/1 67/2/1
f 69/3/2 70/3/2 72/3/2
f 72/3/2 70/3/2 73/3/2
f 71/3/2 72/3/2 76/3/2
f 76/3/2 72/3/2 77/3/2
f 73/3/2 74/3/2 78/3/2
f 78/3/2 74/3/2 79/3/2
f 75/3/2 76/3/2 81/3/2
f 81/3/2 76/3/2 82/3/2
f 79/3/2 80/3/2 85/3/2
f 85/3/2 80/3/2 86/3/2
f 82/3/2 83/3/2 87/3/2
f 87/3/2 83/3/2 88/3/2
f 84/3/2 85/3/2 89/3/2
f 89/3/2 85/3/2 90/3/2
f 88/3/2 89/3/2 91/3/2
f 91/3/2 89/3/2 92/3/2
f 93/3/2 94/3/2 96/3/2
f 96/3/2 94/3/2 97/3/2
f 95/3/2 96/3/2 99/3/2
f 99/3/2 96/3/2 100/3/2
f 97/3/2 98/3/2 101/3/2
f 101/3/2 98/3/2 102/3/2
f 100/3/2 101/3/2 103/3/2
f 103/3/2 101/3/2 104/3/2
f 105/2/2 106/2/2 108/2/2
f 108/2/2 106/2/2 109/2/2
f 107/2/2 108/2/2 111/2/2
f 111/2/2 108/2/2 112/2/2
f 109/2/2 110/2/2 113/2/2
f 113/2/2 110/2/2 114/2/2
f 115/2/2 116/2/2 119/2/2
f 119/2/2 116/2/2 120/2/2
f 117/2/2 118/2/2 121/2/2
f 121/2/2 118/2/2 122/2/2
f 120/2/2 121/2/2 123/2/2
f 123/2/2 121/2/2 124/2/2
f 125/2/2 126/2/2 127/2/2
f 127/2/2 126/2/2 128/2/2
f 129/2/2 130/2/2 131/2/2
f 131/2/2 130/2/2 132/2/2
f 133/3/2 134/3/2 135/3/2
f 135/3/2 134/3/2 136/3/2
f 139/3/3 138/3/3 137/3/3
f 140/3/3 138/3/3 139/3/3
f 144/3/3 142/3/3 141/3/3
f 145/3/3 142/3/3 144/3/3
f 147/3/3 144/3/3 143/3/3
f 148/3/3 144/3/3 147/3/3
f 149/3/3 146/3/3 145/3/3
f 150/3/3 146/3/3 149/3/3
f 151/3/3 149/3/3 148/3/3
f 152/3/3 149/3/3 151/3/3
f 156/3/3 154/3/3 153/3/3
f 157/3/3 154/3/3 156/3/3
f 160/3/3 156/3/3 155/3/3
f 161/3/3 156/3/3 160/3/3
f 162/3/3 158/3/3 157/3/3
f 163/3/3 158/3/3 162/3/3
f 165/3/3 160/3/3 159/3/3
f 166/3/3 160/3/3 165/3/3
f 169/3/3 164/3/3 163/3/3
f 170/3/3 164/3/3 169/3/3
f 171/3/3 167/3/3 166/3/3
f 172/3/3 167/3/3 171/3/3
f 173/3/3 169/3/3 168/3/3
f 174/3/3 169/3/3 173/3/3
f 175/3/3 173/3/3 172/3/3
f 176/3/3 173/3/3 175/3/3
f 177/3/3 173/3/3 176/3/3
f 178/3/3 173/3/3 177/3/3
f 180/1/3 176/1/3 175/1/3
f 181/3/3 177/3/3 176/3/3
f 181/1/3 176/1/3 180/1/3
f 182/1/3 178/1/3 177/1/3
f 182/3/3 177/3/3 181/3/3
f 183/1/3 178/1/3 182/1/3
f 185/2/3 180/2/3 179/2/3
f 186/3/3 181/3/3 180/3/3
f 186/2/3 180/2/3 185/2/3
f 187/1/3 182/1/3 181/1/3
f 187/3/3 181/3/3 186/3/3
f 188/3/3 183/3/3 182/3/3
f 188/1/3 182/1/3 187/1/3
f 189/2/3 184/2/3 183/2/3
f 189/3/3 183/3/3 188/3/3
f 190/2/3 184/2/3 189/2/3
f 191/1/3 187/1/3 186/1/3
f 192/3/3 188/3/3 187/3/3
f 192/1/3 187/1/3 191/1/3
f 193/1/3 189/1/3 188/1/3
f 193/3/3 188/3/3 192/3/3
f 194/1/3 189/1/3 193/1/3
f 195/3/3 192/3/3 191/3/3
f 195/3/3 193/3/3 192/3/3
f 195/3/3 194/3/3 193/3/3
f 196/3/3 194/3/3 195/3/3
f 202/2/3 198/2/3 197/2/3
f 203/2/3 198/2/3 202/2/3
f 204/2/3 200/2/3 199/2/3
f 205/2/3 200/2/3 204/2/3
f 207/2/3 202/2/3 201/2/3
f 208/2/3 202/2/3 207/2/3
f 211/2/3 206/2/3 205/2/3
f 212/2/3 206/2/3 211/2/3
f 213/2/3 209/2/3 208/2/3
f 214/2/3 209/2/3 213/2/3
f 215/2/3 211/2/3 210/2/3
f 216/2/3 211/2/3 215/2/3
f 217/2/4 218/2/4 222/2/4
f 222/2/4 218/2/4 223/2/4
f 219/2/4 220/2/4 224/2/4
f 224/2/4 220/2/4 225/2/4
f 221/2/4 222/2/4 227/2/4
f 227/2/4 222/2/4 228/2/4
f 225/2/4 226/2/4 231/2/4
f 231/2/4 226/2/4 232/2/4
f 228/2/4 229/2/4 233/2/4
f 233/2/4 229/2/4 234/2/4
f 230/2/4 231/2/4 235/2/4
f 235/2/4 231/2/4 236/2/4
f 237/3/4 238/3/4 240/3/4
f 240/3/4 238/3/4 241/3/4
f 239/3/4 240/3/4 244/3/4
f 244/3/4 240/3/4 245/3/4
f 241/3/4 242/3/4 246/3/4
f 246/3/4 242/3/4 247/3/4
f 243/3/4 244/3/4 249/3/4
f 249/3/4 244/3/4 250/3/4
f 247/3/4 248/3/4 253/3/4
f 253/3/4 248/3/4 254/3/4
f 250/3/4 251/3/4 255/3/4
f 255/3/4 251/3/4 256/3/4
f 252/3/4 253/3/4 257/3/4
f 257/3/4 253/3/4 258/3/4
f 256/3/4 257/3/4 259/3/4
f 259/3/4 257/3/4 260/3/4
f 260/3/4 257/3/4 261/3/4
f 261/3/4 257/3/4 262/3/4
f 259/1/4 260/1/4 264/1/4
f 260/3/4 261/3/4 265/3/4
f 264/1/4 260/1/4 265/1/4
f 261/1/4 262/1/4 266/1/4
f 265/3/4 261/3/4 266/3/4
f 266/1/4 262/1/4 267/1/4
f 263/2/4 264/2/4 269/2/4
f 264/3/4 265/3/4 270/3/4
f 269/2/4 264/2/4 270/2/4
f 265/1/4 266/1/4 271/1/4
f 270/3/4 265/3/4 271/3/4
f 266/3/4 267/3/4 272/3/4
f 271/1/4 266/1/4 272/1/4
f 267/2/4 268/2/4 273/2/4
f 272/3/4 267/3/4 273/3/4
f 273/2/4 268/2/4 274/2/4
f 270/1/4 271/1/4 275/1/4
f 271/3/4 272/3/4 276/3/4
f 275/1/4 271/1/4 276/1/4
f 272/1/4 273/1/4 277/1/4
f 276/3/4 272/3/4 277/3/4
f 277/1/4 273/1/4 278/1/4
f 275/3/4 276/3/4 279/3/4
f 276/3/4 277/3/4 279/3/4
f 277/3/4 278/3/4 279/3/4
f 279/3/4 278/3/4 280/3/4
f 281/3/4 282/3/4 284/3/4
f 284/3/4 282/3/4 285/3/4
f 283/3/4 284/3/4 287/3/4
f 287/3/4 284/3/4 288/3/4
f 285/3/4 286/3/4 289/3/4
f 289/3/4 286/3/4 290/3/4
f 288/3/4 289/3/4 291/3/4
f 291/3/4 289/3/4 292/3/4
f 293/3/4 294/3/4 295/3/4
f 295/3/4 294/3/4 296/3/4
f 299/2/5 298/2/5 297/2/5
f 300/2/5 298/2/5 299/2/5
f 304/2/5 302/2/5 301/2/5
f 305/2/5 302/2/5 304/2/5
f 307/2/5 304/2/5 303/2/5
f 308/2/5 304/2/5 307/2/5
f 309/2/5 306/2/5 305/2/5
f 310/2/5 306/2/5 309/2/5
f 311/2/5 309/2/5 308/2/5
f 312/2/5 309/2/5 311/2/5
f 315/3/5 314/3/5 313/3/5
f 316/3/5 314/3/5 315/3/5
f 320/3/5 318/3/5 317/3/5
f 321/3/5 318/3/5 320/3/5
f 323/3/5 320/3/5 319/3/5
f 324/3/5 320/3/5 323/3/5
f 325/3/5 322/3/5 321/3/5
f 326/3/5 322/3/5 325/3/5
f 327/3/5 325/3/5 324/3/5
f 328/3/5 325/3/5 327/3/5
f 332/3/5 330/3/5 329/3/5
f 333/3/5 330/3/5 332/3/5
f 336/3/5 332/3/5 331/3/5
f 337/3/5 332/3/5 336/3/5
f 338/3/5 334/3/5 333/3/5
f 339/3/5 334/3/5 338/3/5
f 345/3/5 340/3/5 339/3/5
f 345/1/5 341/1/5 340/1/5
f 346/1/5 341/1/5 345/1/5
f 347/1/5 343/1/5 342/1/5
f 348/3/5 344/3/5 343/3/5
f 348/1/5 343/1/5 347/1/5
f 349/3/5 345/3/5 339/3/5
f 352/3/5 344/3/5 348/3/5
f 353/3/5 336/3/5 335/3/5
f 354/3/5 336/3/5 353/3/5
f 357/3/5 349/3/5 339/3/5
f 358/1/5 350/1/5 349/1/5
f 358/3/5 349/3/5 357/3/5
f 359/1/5 350/1/5 358/1/5
f 360/1/5 352/1/5 351/1/5
f 361/3/5 344/3/5 352/3/5
f 361/1/5 352/1/5 360/1/5
f 362/3/5 344/3/5 361/3/5
f 363/3/5 355/3/5 354/3/5
f 364/3/5 355/3/5 363/3/5
f 365/3/5 357/3/5 356/3/5
f 366/3/5 357/3/5 365/3/5
f 367/3/5 365/3/5 364/3/5
f 368/3/5 365/3/5 367/3/5
f 369/3/6 370/3/6 372/3/6
f 372/3/6 370/3/6 373/3/6
f 371/3/6 372/3/6 376/3/6
f 376/3/6 372/3/6 377/3/6
f 373/3/6 374/3/6 378/3/6
f 378/3/6 374/3/6 379/3/6
f 379/3/6 380/3/6 385/3/6
f 380/1/6 381/1/6 385/1/6
f 385/1/6 381/1/6 386/1/6
f 382/1/6 383/1/6 387/1/6
f 383/3/6 384/3/6 388/3/6
f 387/1/6 383/1/6 388/1/6
f 379/3/6 385/3/6 389/3/6
f 388/3/6 384/3/6 392/3/6
f 375/3/6 376/3/6 393/3/6
f 393/3/6 376/3/6 394/3/6
f 379/3/6 389/3/6 397/3/6
f 389/1/6 390/1/6 398/1/6
f 397/3/6 389/3/6 398/3/6
f 398/1/6 390/1/6 399/1/6
f 391/1/6 392/1/6 400/1/6
f 392/3/6 384/3/6 401/3/6
f 400/1/6 392/1/6 401/1/6
f 401/3/6 384/3/6 402/3/6
f 394/3/6 395/3/6 403/3/6
f 403/3/6 395/3/6 404/3/6
f 396/3/6 397/3/6 405/3/6
f 405/3/6 397/3/6 406/3/6
f 404/3/6 405/3/6 407/3/6
f 407/3/6 405/3/6 408/3/6
f 409/3/6 410/3/6 412/3/6
f 412/3/6 410/3/6 413/3/6
f 415/2/6 416/2/6 418/2/6
f 418/2/6 416/2/6 419/2/6
f 417/2/6 418/2/6 421/2/6
f 421/2/6 418/2/6 422/2/6
f 419/2/6 420/2/6 423/2/6
f 423/2/6 420/2/6 424/2/6
f 411/3/6 412/3/6 425/3/6
f 425/3/6 412/3/6 426/3/6
f 413/3/6 414/3/6 427/3/6
f 427/3/6 414/3/6 428/3/6
f 422/2/6 423/2/6 429/2/6
f 429/2/6 423/2/6 430/2/6
f 426/3/6 427/3/6 431/3/6
f 431/3/6 427/3/6 432/3/6
f 435/2/6 436/2/6 437/2/6
f 437/2/6 436/2/6 438/2/6
f 433/3/6 434/3/6 439/3/6
f 439/3/6 434/3/6 440/3/6
