# MagicaVoxel @ Ephtracy

# group
o 

# material
mtllib Pickaxe01.mtl
usemtl palette

# normals
vn -1 0 0
vn 1 0 0
vn 0 0 1
vn 0 0 -1
vn 0 -1 0
vn 0 1 0

# texcoords
vt 0.310547 0.5
vt 0.318359 0.5
vt 0.341797 0.5

# verts
v -1 1.8 0.1
v -1 1.8 0
v -1 1.9 0.1
v -1 1.9 0
v -0.9 1.9 0.1
v -0.9 1.9 0
v -0.9 2 0.1
v -0.9 2 0
v -0.8 1.9 0.2
v -0.8 1.9 0.1
v -0.8 1.9 0
v -0.8 1.9 -0.1
v -0.8 2 0.2
v -0.8 2 0.1
v -0.8 2 0
v -0.8 2 -0.1
v -0.8 2.1 0.1
v -0.8 2.1 0
v -0.7 2 0.2
v -0.7 2 0.1
v -0.7 2 0
v -0.7 2 -0.1
v -0.7 2.1 0.2
v -0.7 2.1 0.1
v -0.7 2.1 0
v -0.7 2.1 -0.1
v -0.7 2.2 0.1
v -0.7 2.2 0
v -0.6 2.1 0.2
v -0.6 2.1 0.1
v -0.6 2.1 0
v -0.6 2.1 -0.1
v -0.6 2.2 0.2
v -0.6 2.2 0.1
v -0.6 2.2 0
v -0.6 2.2 -0.1
v -0.6 2.3 0.1
v -0.6 2.3 0
v -0.5 2.2 0.2
v -0.5 2.2 0.1
v -0.5 2.2 0
v -0.5 2.2 -0.1
v -0.5 2.3 0.2
v -0.5 2.3 0.1
v -0.5 2.3 0
v -0.5 2.3 -0.1
v -0.2 0.1 0.1
v -0.2 0.1 0
v -0.2 2 0.1
v -0.2 2 0
v -0.2 2.3 0.1
v -0.2 2.3 0
v -0.2 2.4 0.1
v -0.2 2.4 0
v -0.1 0 0.1
v -0.1 0 0
v -0.1 0.1 0.2
v -0.1 0.1 0.1
v -0.1 0.1 0
v -0.1 0.1 -0.1
v -0.1 2 0.2
v -0.1 2 0.1
v -0.1 2 0
v -0.1 2 -0.1
v -0.1 2.3 0.2
v -0.1 2.3 0.1
v -0.1 2.3 0
v -0.1 2.3 -0.1
v -0.1 2.4 0.2
v -0.1 2.4 0.1
v -0.1 2.4 0
v -0.1 2.4 -0.1
v -0.1 2.5 0.1
v -0.1 2.5 0
v 0.4 1.9 0.1
v 0.4 1.9 0
v 0.4 2 0.1
v 0.4 2 0
v 0.5 1.8 0.1
v 0.5 1.8 0
v 0.5 1.9 0.2
v 0.5 1.9 0.1
v 0.5 1.9 0
v 0.5 1.9 -0.1
v 0.5 2 0.2
v 0.5 2 0.1
v 0.5 2 0
v 0.5 2 -0.1
v -0.6 1.8 0.1
v -0.6 1.8 0
v -0.6 1.9 0.2
v -0.6 1.9 0.1
v -0.6 1.9 0
v -0.6 1.9 -0.1
v -0.6 2 0.2
v -0.6 2 0.1
v -0.6 2 0
v -0.6 2 -0.1
v -0.5 1.9 0.1
v -0.5 1.9 0
v -0.5 2 0.1
v -0.5 2 0
v 0 0 0.1
v 0 0 0
v 0 0.1 0.2
v 0 0.1 0.1
v 0 0.1 0
v 0 0.1 -0.1
v 0 2 0.2
v 0 2 0.1
v 0 2 0
v 0 2 -0.1
v 0 2.3 0.2
v 0 2.3 0.1
v 0 2.3 0
v 0 2.3 -0.1
v 0 2.4 0.2
v 0 2.4 0.1
v 0 2.4 0
v 0 2.4 -0.1
v 0 2.5 0.1
v 0 2.5 0
v 0.1 0.1 0.1
v 0.1 0.1 0
v 0.1 2 0.1
v 0.1 2 0
v 0.1 2.3 0.1
v 0.1 2.3 0
v 0.1 2.4 0.1
v 0.1 2.4 0
v 0.4 2.2 0.2
v 0.4 2.2 0.1
v 0.4 2.2 0
v 0.4 2.2 -0.1
v 0.4 2.3 0.2
v 0.4 2.3 0.1
v 0.4 2.3 0
v 0.4 2.3 -0.1
v 0.5 2.1 0.2
v 0.5 2.1 0.1
v 0.5 2.1 0
v 0.5 2.1 -0.1
v 0.5 2.2 0.2
v 0.5 2.2 0.1
v 0.5 2.2 0
v 0.5 2.2 -0.1
v 0.5 2.3 0.1
v 0.5 2.3 0
v 0.6 2 0.2
v 0.6 2 0.1
v 0.6 2 0
v 0.6 2 -0.1
v 0.6 2.1 0.2
v 0.6 2.1 0.1
v 0.6 2.1 0
v 0.6 2.1 -0.1
v 0.6 2.2 0.1
v 0.6 2.2 0
v 0.7 1.9 0.2
v 0.7 1.9 0.1
v 0.7 1.9 0
v 0.7 1.9 -0.1
v 0.7 2 0.2
v 0.7 2 0.1
v 0.7 2 0
v 0.7 2 -0.1
v 0.7 2.1 0.1
v 0.7 2.1 0
v 0.8 1.9 0.1
v 0.8 1.9 0
v 0.8 2 0.1
v 0.8 2 0
v 0.9 1.8 0.1
v 0.9 1.8 0
v 0.9 1.9 0.1
v 0.9 1.9 0
v -0.8 1.9 0.2
v -0.8 2 0.2
v -0.7 2 0.2
v -0.7 2.1 0.2
v -0.6 1.9 0.2
v -0.6 2 0.2
v -0.6 2.1 0.2
v -0.6 2.2 0.2
v -0.5 2.2 0.2
v -0.5 2.3 0.2
v -0.2 2 0.2
v -0.2 2.1 0.2
v -0.2 2.2 0.2
v -0.2 2.3 0.2
v -0.1 0.1 0.2
v -0.1 2 0.2
v -0.1 2.1 0.2
v -0.1 2.2 0.2
v -0.1 2.3 0.2
v -0.1 2.4 0.2
v 0 0.1 0.2
v 0 2 0.2
v 0 2.1 0.2
v 0 2.2 0.2
v 0 2.3 0.2
v 0 2.4 0.2
v 0.1 2 0.2
v 0.1 2.1 0.2
v 0.1 2.2 0.2
v 0.1 2.3 0.2
v 0.4 2.2 0.2
v 0.4 2.3 0.2
v 0.5 1.9 0.2
v 0.5 2 0.2
v 0.5 2.1 0.2
v 0.5 2.2 0.2
v 0.6 2 0.2
v 0.6 2.1 0.2
v 0.7 1.9 0.2
v 0.7 2 0.2
v -1 1.8 0.1
v -1 1.9 0.1
v -0.9 1.9 0.1
v -0.9 2 0.1
v -0.8 1.9 0.1
v -0.8 2 0.1
v -0.8 2.1 0.1
v -0.7 2 0.1
v -0.7 2.1 0.1
v -0.7 2.2 0.1
v -0.6 1.8 0.1
v -0.6 1.9 0.1
v -0.6 2 0.1
v -0.6 2.1 0.1
v -0.6 2.2 0.1
v -0.6 2.3 0.1
v -0.5 1.9 0.1
v -0.5 2 0.1
v -0.5 2.2 0.1
v -0.5 2.3 0.1
v -0.2 0.1 0.1
v -0.2 2 0.1
v -0.2 2.3 0.1
v -0.2 2.4 0.1
v -0.1 0 0.1
v -0.1 0.1 0.1
v -0.1 2 0.1
v -0.1 2.3 0.1
v -0.1 2.4 0.1
v -0.1 2.5 0.1
v 0 0 0.1
v 0 0.1 0.1
v 0 2 0.1
v 0 2.3 0.1
v 0 2.4 0.1
v 0 2.5 0.1
v 0.1 0.1 0.1
v 0.1 2 0.1
v 0.1 2.3 0.1
v 0.1 2.4 0.1
v 0.4 1.9 0.1
v 0.4 2 0.1
v 0.4 2.2 0.1
v 0.4 2.3 0.1
v 0.5 1.8 0.1
v 0.5 1.9 0.1
v 0.5 2 0.1
v 0.5 2.1 0.1
v 0.5 2.2 0.1
v 0.5 2.3 0.1
v 0.6 2 0.1
v 0.6 2.1 0.1
v 0.6 2.2 0.1
v 0.7 1.9 0.1
v 0.7 2 0.1
v 0.7 2.1 0.1
v 0.8 1.9 0.1
v 0.8 2 0.1
v 0.9 1.8 0.1
v 0.9 1.9 0.1
v -1 1.8 0
v -1 1.9 0
v -0.9 1.9 0
v -0.9 2 0
v -0.8 1.9 0
v -0.8 2 0
v -0.8 2.1 0
v -0.7 2 0
v -0.7 2.1 0
v -0.7 2.2 0
v -0.6 1.8 0
v -0.6 1.9 0
v -0.6 2 0
v -0.6 2.1 0
v -0.6 2.2 0
v -0.6 2.3 0
v -0.5 1.9 0
v -0.5 2 0
v -0.5 2.2 0
v -0.5 2.3 0
v -0.2 0.1 0
v -0.2 2 0
v -0.2 2.3 0
v -0.2 2.4 0
v -0.1 0 0
v -0.1 0.1 0
v -0.1 2 0
v -0.1 2.3 0
v -0.1 2.4 0
v -0.1 2.5 0
v 0 0 0
v 0 0.1 0
v 0 2 0
v 0 2.3 0
v 0 2.4 0
v 0 2.5 0
v 0.1 0.1 0
v 0.1 2 0
v 0.1 2.3 0
v 0.1 2.4 0
v 0.4 1.9 0
v 0.4 2 0
v 0.4 2.2 0
v 0.4 2.3 0
v 0.5 1.8 0
v 0.5 1.9 0
v 0.5 2 0
v 0.5 2.1 0
v 0.5 2.2 0
v 0.5 2.3 0
v 0.6 2 0
v 0.6 2.1 0
v 0.6 2.2 0
v 0.7 1.9 0
v 0.7 2 0
v 0.7 2.1 0
v 0.8 1.9 0
v 0.8 2 0
v 0.9 1.8 0
v 0.9 1.9 0
v -0.8 1.9 -0.1
v -0.8 2 -0.1
v -0.7 2 -0.1
v -0.7 2.1 -0.1
v -0.6 1.9 -0.1
v -0.6 2 -0.1
v -0.6 2.1 -0.1
v -0.6 2.2 -0.1
v -0.5 2.2 -0.1
v -0.5 2.3 -0.1
v -0.2 2 -0.1
v -0.2 2.1 -0.1
v -0.2 2.2 -0.1
v -0.2 2.3 -0.1
v -0.1 0.1 -0.1
v -0.1 2 -0.1
v -0.1 2.1 -0.1
v -0.1 2.2 -0.1
v -0.1 2.3 -0.1
v -0.1 2.4 -0.1
v 0 0.1 -0.1
v 0 2 -0.1
v 0 2.1 -0.1
v 0 2.2 -0.1
v 0 2.3 -0.1
v 0 2.4 -0.1
v 0.1 2 -0.1
v 0.1 2.1 -0.1
v 0.1 2.2 -0.1
v 0.1 2.3 -0.1
v 0.4 2.2 -0.1
v 0.4 2.3 -0.1
v 0.5 1.9 -0.1
v 0.5 2 -0.1
v 0.5 2.1 -0.1
v 0.5 2.2 -0.1
v 0.6 2 -0.1
v 0.6 2.1 -0.1
v 0.7 1.9 -0.1
v 0.7 2 -0.1
v -0.1 0 0.1
v 0 0 0.1
v -0.1 0 0
v 0 0 0
v -0.1 0.1 0.2
v 0 0.1 0.2
v -0.2 0.1 0.1
v -0.1 0.1 0.1
v 0 0.1 0.1
v 0.1 0.1 0.1
v -0.2 0.1 0
v -0.1 0.1 0
v 0 0.1 0
v 0.1 0.1 0
v -0.1 0.1 -0.1
v 0 0.1 -0.1
v -1 1.8 0.1
v -0.6 1.8 0.1
v 0.5 1.8 0.1
v 0.9 1.8 0.1
v -1 1.8 0
v -0.6 1.8 0
v 0.5 1.8 0
v 0.9 1.8 0
v -0.8 1.9 0.2
v -0.6 1.9 0.2
v 0.5 1.9 0.2
v 0.7 1.9 0.2
v -0.8 1.9 0.1
v -0.6 1.9 0.1
v -0.5 1.9 0.1
v 0.4 1.9 0.1
v 0.5 1.9 0.1
v 0.7 1.9 0.1
v -0.8 1.9 0
v -0.6 1.9 0
v -0.5 1.9 0
v 0.4 1.9 0
v 0.5 1.9 0
v 0.7 1.9 0
v -0.8 1.9 -0.1
v -0.6 1.9 -0.1
v 0.5 1.9 -0.1
v 0.7 1.9 -0.1
v -0.6 2 0.2
v -0.2 2 0.2
v -0.1 2 0.2
v 0 2 0.2
v 0.1 2 0.2
v 0.5 2 0.2
v -0.6 2 0.1
v -0.5 2 0.1
v -0.2 2 0.1
v -0.1 2 0.1
v 0 2 0.1
v 0.1 2 0.1
v 0.4 2 0.1
v 0.5 2 0.1
v -0.6 2 0
v -0.5 2 0
v -0.2 2 0
v -0.1 2 0
v 0 2 0
v 0.1 2 0
v 0.4 2 0
v 0.5 2 0
v -0.6 2 -0.1
v -0.2 2 -0.1
v -0.1 2 -0.1
v 0 2 -0.1
v 0.1 2 -0.1
v 0.5 2 -0.1
v -1 1.9 0.1
v -0.9 1.9 0.1
v 0.8 1.9 0.1
v 0.9 1.9 0.1
v -1 1.9 0
v -0.9 1.9 0
v 0.8 1.9 0
v 0.9 1.9 0
v -0.8 2 0.2
v -0.7 2 0.2
v 0.6 2 0.2
v 0.7 2 0.2
v -0.9 2 0.1
v -0.8 2 0.1
v -0.7 2 0.1
v 0.6 2 0.1
v 0.7 2 0.1
v 0.8 2 0.1
v -0.9 2 0
v -0.8 2 0
v -0.7 2 0
v 0.6 2 0
v 0.7 2 0
v 0.8 2 0
v -0.8 2 -0.1
v -0.7 2 -0.1
v 0.6 2 -0.1
v 0.7 2 -0.1
v -0.7 2.1 0.2
v -0.6 2.1 0.2
v 0.5 2.1 0.2
v 0.6 2.1 0.2
v -0.8 2.1 0.1
v -0.7 2.1 0.1
v -0.6 2.1 0.1
v 0.5 2.1 0.1
v 0.6 2.1 0.1
v 0.7 2.1 0.1
v -0.8 2.1 0
v -0.7 2.1 0
v -0.6 2.1 0
v 0.5 2.1 0
v 0.6 2.1 0
v 0.7 2.1 0
v -0.7 2.1 -0.1
v -0.6 2.1 -0.1
v 0.5 2.1 -0.1
v 0.6 2.1 -0.1
v -0.6 2.2 0.2
v -0.5 2.2 0.2
v 0.4 2.2 0.2
v 0.5 2.2 0.2
v -0.7 2.2 0.1
v -0.6 2.2 0.1
v -0.5 2.2 0.1
v 0.4 2.2 0.1
v 0.5 2.2 0.1
v 0.6 2.2 0.1
v -0.7 2.2 0
v -0.6 2.2 0
v -0.5 2.2 0
v 0.4 2.2 0
v 0.5 2.2 0
v 0.6 2.2 0
v -0.6 2.2 -0.1
v -0.5 2.2 -0.1
v 0.4 2.2 -0.1
v 0.5 2.2 -0.1
v -0.5 2.3 0.2
v -0.2 2.3 0.2
v -0.1 2.3 0.2
v 0 2.3 0.2
v 0.1 2.3 0.2
v 0.4 2.3 0.2
v -0.6 2.3 0.1
v -0.5 2.3 0.1
v -0.2 2.3 0.1
v -0.1 2.3 0.1
v 0 2.3 0.1
v 0.1 2.3 0.1
v 0.4 2.3 0.1
v 0.5 2.3 0.1
v -0.6 2.3 0
v -0.5 2.3 0
v -0.2 2.3 0
v -0.1 2.3 0
v 0 2.3 0
v 0.1 2.3 0
v 0.4 2.3 0
v 0.5 2.3 0
v -0.5 2.3 -0.1
v -0.2 2.3 -0.1
v -0.1 2.3 -0.1
v 0 2.3 -0.1
v 0.1 2.3 -0.1
v 0.4 2.3 -0.1
v -0.1 2.4 0.2
v 0 2.4 0.2
v -0.2 2.4 0.1
v -0.1 2.4 0.1
v 0 2.4 0.1
v 0.1 2.4 0.1
v -0.2 2.4 0
v -0.1 2.4 0
v 0 2.4 0
v 0.1 2.4 0
v -0.1 2.4 -0.1
v 0 2.4 -0.1
v -0.1 2.5 0.1
v 0 2.5 0.1
v -0.1 2.5 0
v 0 2.5 0

# faces
f 3/1/1 2/1/1 1/1/1
f 4/1/1 2/1/1 3/1/1
f 7/1/1 6/1/1 5/1/1
f 8/1/1 6/1/1 7/1/1
f 13/2/1 10/2/1 9/2/1
f 14/2/1 10/2/1 13/2/1
f 15/2/1 12/2/1 11/2/1
f 16/2/1 12/2/1 15/2/1
f 17/1/1 15/1/1 14/1/1
f 18/1/1 15/1/1 17/1/1
f 23/2/1 20/2/1 19/2/1
f 24/2/1 20/2/1 23/2/1
f 25/2/1 22/2/1 21/2/1
f 26/2/1 22/2/1 25/2/1
f 27/1/1 25/1/1 24/1/1
f 28/1/1 25/1/1 27/1/1
f 33/2/1 30/2/1 29/2/1
f 34/2/1 30/2/1 33/2/1
f 35/2/1 32/2/1 31/2/1
f 36/2/1 32/2/1 35/2/1
f 37/1/1 35/1/1 34/1/1
f 38/1/1 35/1/1 37/1/1
f 43/2/1 40/2/1 39/2/1
f 44/2/1 40/2/1 43/2/1
f 45/2/1 42/2/1 41/2/1
f 46/2/1 42/2/1 45/2/1
f 49/2/1 48/2/1 47/2/1
f 50/2/1 48/2/1 49/2/1
f 53/2/1 52/2/1 51/2/1
f 54/2/1 52/2/1 53/2/1
f 58/2/1 56/2/1 55/2/1
f 59/2/1 56/2/1 58/2/1
f 61/2/1 58/2/1 57/2/1
f 62/2/1 58/2/1 61/2/1
f 63/2/1 60/2/1 59/2/1
f 64/2/1 60/2/1 63/2/1
f 69/2/1 66/2/1 65/2/1
f 70/2/1 66/2/1 69/2/1
f 71/2/1 68/2/1 67/2/1
f 72/2/1 68/2/1 71/2/1
f 73/2/1 71/2/1 70/2/1
f 74/2/1 71/2/1 73/2/1
f 77/1/1 76/1/1 75/1/1
f 78/1/1 76/1/1 77/1/1
f 82/1/1 80/1/1 79/1/1
f 83/1/1 80/1/1 82/1/1
f 85/2/1 82/2/1 81/2/1
f 86/2/1 82/2/1 85/2/1
f 87/2/1 84/2/1 83/2/1
f 88/2/1 84/2/1 87/2/1
f 89/1/2 90/1/2 92/1/2
f 92/1/2 90/1/2 93/1/2
f 91/2/2 92/2/2 95/2/2
f 95/2/2 92/2/2 96/2/2
f 93/2/2 94/2/2 97/2/2
f 97/2/2 94/2/2 98/2/2
f 99/1/2 100/1/2 101/1/2
f 101/1/2 100/1/2 102/1/2
f 103/2/2 104/2/2 106/2/2
f 106/2/2 104/2/2 107/2/2
f 105/2/2 106/2/2 109/2/2
f 109/2/2 106/2/2 110/2/2
f 107/2/2 108/2/2 111/2/2
f 111/2/2 108/2/2 112/2/2
f 113/2/2 114/2/2 117/2/2
f 117/2/2 114/2/2 118/2/2
f 115/2/2 116/2/2 119/2/2
f 119/2/2 116/2/2 120/2/2
f 118/2/2 119/2/2 121/2/2
f 121/2/2 119/2/2 122/2/2
f 123/2/2 124/2/2 125/2/2
f 125/2/2 124/2/2 126/2/2
f 127/2/2 128/2/2 129/2/2
f 129/2/2 128/2/2 130/2/2
f 131/2/2 132/2/2 135/2/2
f 135/2/2 132/2/2 136/2/2
f 133/2/2 134/2/2 137/2/2
f 137/2/2 134/2/2 138/2/2
f 139/2/2 140/2/2 143/2/2
f 143/2/2 140/2/2 144/2/2
f 141/2/2 142/2/2 145/2/2
f 145/2/2 142/2/2 146/2/2
f 144/1/2 145/1/2 147/1/2
f 147/1/2 145/1/2 148/1/2
f 149/2/2 150/2/2 153/2/2
f 153/2/2 150/2/2 154/2/2
f 151/2/2 152/2/2 155/2/2
f 155/2/2 152/2/2 156/2/2
f 154/1/2 155/1/2 157/1/2
f 157/1/2 155/1/2 158/1/2
f 159/2/2 160/2/2 163/2/2
f 163/2/2 160/2/2 164/2/2
f 161/2/2 162/2/2 165/2/2
f 165/2/2 162/2/2 166/2/2
f 164/1/2 165/1/2 167/1/2
f 167/1/2 165/1/2 168/1/2
f 169/1/2 170/1/2 171/1/2
f 171/1/2 170/1/2 172/1/2
f 173/1/2 174/1/2 175/1/2
f 175/1/2 174/1/2 176/1/2
f 179/2/3 178/2/3 177/2/3
f 181/2/3 179/2/3 177/2/3
f 181/2/3 180/2/3 179/2/3
f 182/2/3 180/2/3 181/2/3
f 183/2/3 180/2/3 182/2/3
f 185/2/3 184/2/3 183/2/3
f 185/2/3 183/2/3 182/2/3
f 187/2/3 185/2/3 182/2/3
f 187/2/3 186/2/3 185/2/3
f 188/2/3 186/2/3 187/2/3
f 189/2/3 186/2/3 188/2/3
f 190/2/3 186/2/3 189/2/3
f 192/1/3 188/1/3 187/1/3
f 193/3/3 189/3/3 188/3/3
f 193/1/3 188/1/3 192/1/3
f 194/1/3 190/1/3 189/1/3
f 194/3/3 189/3/3 193/3/3
f 195/1/3 190/1/3 194/1/3
f 197/2/3 192/2/3 191/2/3
f 197/2/3 193/2/3 192/2/3
f 198/2/3 193/2/3 197/2/3
f 199/1/3 194/1/3 193/1/3
f 199/2/3 193/2/3 198/2/3
f 200/2/3 195/2/3 194/2/3
f 200/1/3 194/1/3 199/1/3
f 200/2/3 196/2/3 195/2/3
f 201/2/3 196/2/3 200/2/3
f 202/2/3 196/2/3 201/2/3
f 203/1/3 199/1/3 198/1/3
f 204/3/3 200/3/3 199/3/3
f 204/1/3 199/1/3 203/1/3
f 205/1/3 201/1/3 200/1/3
f 205/3/3 200/3/3 204/3/3
f 206/1/3 201/1/3 205/1/3
f 207/2/3 204/2/3 203/2/3
f 207/2/3 205/2/3 204/2/3
f 207/2/3 206/2/3 205/2/3
f 208/2/3 206/2/3 207/2/3
f 210/2/3 207/2/3 203/2/3
f 211/2/3 207/2/3 210/2/3
f 212/2/3 207/2/3 211/2/3
f 213/2/3 210/2/3 209/2/3
f 213/2/3 211/2/3 210/2/3
f 214/2/3 211/2/3 213/2/3
f 215/2/3 213/2/3 209/2/3
f 216/2/3 213/2/3 215/2/3
f 219/1/3 218/1/3 217/1/3
f 221/1/3 219/1/3 217/1/3
f 221/1/3 220/1/3 219/1/3
f 222/1/3 220/1/3 221/1/3
f 224/1/3 223/1/3 222/1/3
f 225/1/3 223/1/3 224/1/3
f 227/1/3 221/1/3 217/1/3
f 228/1/3 221/1/3 227/1/3
f 230/1/3 226/1/3 225/1/3
f 231/1/3 226/1/3 230/1/3
f 233/1/3 229/1/3 228/1/3
f 234/1/3 229/1/3 233/1/3
f 235/1/3 232/1/3 231/1/3
f 236/1/3 232/1/3 235/1/3
f 242/2/3 238/2/3 237/2/3
f 243/2/3 238/2/3 242/2/3
f 244/2/3 240/2/3 239/2/3
f 245/2/3 240/2/3 244/2/3
f 247/2/3 242/2/3 241/2/3
f 248/2/3 242/2/3 247/2/3
f 251/2/3 246/2/3 245/2/3
f 252/2/3 246/2/3 251/2/3
f 253/2/3 249/2/3 248/2/3
f 254/2/3 249/2/3 253/2/3
f 255/2/3 251/2/3 250/2/3
f 256/2/3 251/2/3 255/2/3
f 262/1/3 258/1/3 257/1/3
f 263/1/3 258/1/3 262/1/3
f 265/1/3 260/1/3 259/1/3
f 266/1/3 260/1/3 265/1/3
f 268/1/3 265/1/3 264/1/3
f 269/1/3 265/1/3 268/1/3
f 270/1/3 262/1/3 261/1/3
f 271/1/3 268/1/3 267/1/3
f 272/1/3 268/1/3 271/1/3
f 273/1/3 270/1/3 261/1/3
f 273/1/3 271/1/3 270/1/3
f 274/1/3 271/1/3 273/1/3
f 275/1/3 273/1/3 261/1/3
f 276/1/3 273/1/3 275/1/3
f 277/1/4 278/1/4 279/1/4
f 277/1/4 279/1/4 281/1/4
f 279/1/4 280/1/4 281/1/4
f 281/1/4 280/1/4 282/1/4
f 282/1/4 283/1/4 284/1/4
f 284/1/4 283/1/4 285/1/4
f 277/1/4 281/1/4 287/1/4
f 287/1/4 281/1/4 288/1/4
f 285/1/4 286/1/4 290/1/4
f 290/1/4 286/1/4 291/1/4
f 288/1/4 289/1/4 293/1/4
f 293/1/4 289/1/4 294/1/4
f 291/1/4 292/1/4 295/1/4
f 295/1/4 292/1/4 296/1/4
f 297/2/4 298/2/4 302/2/4
f 302/2/4 298/2/4 303/2/4
f 299/2/4 300/2/4 304/2/4
f 304/2/4 300/2/4 305/2/4
f 301/2/4 302/2/4 307/2/4
f 307/2/4 302/2/4 308/2/4
f 305/2/4 306/2/4 311/2/4
f 311/2/4 306/2/4 312/2/4
f 308/2/4 309/2/4 313/2/4
f 313/2/4 309/2/4 314/2/4
f 310/2/4 311/2/4 315/2/4
f 315/2/4 311/2/4 316/2/4
f 317/1/4 318/1/4 322/1/4
f 322/1/4 318/1/4 323/1/4
f 319/1/4 320/1/4 325/1/4
f 325/1/4 320/1/4 326/1/4
f 324/1/4 325/1/4 328/1/4
f 328/1/4 325/1/4 329/1/4
f 321/1/4 322/1/4 330/1/4
f 327/1/4 328/1/4 331/1/4
f 331/1/4 328/1/4 332/1/4
f 321/1/4 330/1/4 333/1/4
f 330/1/4 331/1/4 333/1/4
f 333/1/4 331/1/4 334/1/4
f 321/1/4 333/1/4 335/1/4
f 335/1/4 333/1/4 336/1/4
f 337/2/4 338/2/4 339/2/4
f 337/2/4 339/2/4 341/2/4
f 339/2/4 340/2/4 341/2/4
f 341/2/4 340/2/4 342/2/4
f 342/2/4 340/2/4 343/2/4
f 343/2/4 344/2/4 345/2/4
f 342/2/4 343/2/4 345/2/4
f 342/2/4 345/2/4 347/2/4
f 345/2/4 346/2/4 347/2/4
f 347/2/4 346/2/4 348/2/4
f 348/2/4 346/2/4 349/2/4
f 349/2/4 346/2/4 350/2/4
f 347/1/4 348/1/4 352/1/4
f 348/3/4 349/3/4 353/3/4
f 352/1/4 348/1/4 353/1/4
f 349/1/4 350/1/4 354/1/4
f 353/3/4 349/3/4 354/3/4
f 354/1/4 350/1/4 355/1/4
f 351/2/4 352/2/4 357/2/4
f 352/2/4 353/2/4 357/2/4
f 357/2/4 353/2/4 358/2/4
f 353/1/4 354/1/4 359/1/4
f 358/2/4 353/2/4 359/2/4
f 354/2/4 355/2/4 360/2/4
f 359/1/4 354/1/4 360/1/4
f 355/2/4 356/2/4 360/2/4
f 360/2/4 356/2/4 361/2/4
f 361/2/4 356/2/4 362/2/4
f 358/1/4 359/1/4 363/1/4
f 359/3/4 360/3/4 364/3/4
f 363/1/4 359/1/4 364/1/4
f 360/1/4 361/1/4 365/1/4
f 364/3/4 360/3/4 365/3/4
f 365/1/4 361/1/4 366/1/4
f 363/2/4 364/2/4 367/2/4
f 364/2/4 365/2/4 367/2/4
f 365/2/4 366/2/4 367/2/4
f 367/2/4 366/2/4 368/2/4
f 363/2/4 367/2/4 370/2/4
f 370/2/4 367/2/4 371/2/4
f 371/2/4 367/2/4 372/2/4
f 369/2/4 370/2/4 373/2/4
f 370/2/4 371/2/4 373/2/4
f 373/2/4 371/2/4 374/2/4
f 369/2/4 373/2/4 375/2/4
f 375/2/4 373/2/4 376/2/4
f 379/2/5 378/2/5 377/2/5
f 380/2/5 378/2/5 379/2/5
f 384/2/5 382/2/5 381/2/5
f 385/2/5 382/2/5 384/2/5
f 387/2/5 384/2/5 383/2/5
f 388/2/5 384/2/5 387/2/5
f 389/2/5 386/2/5 385/2/5
f 390/2/5 386/2/5 389/2/5
f 391/2/5 389/2/5 388/2/5
f 392/2/5 389/2/5 391/2/5
f 397/1/5 394/1/5 393/1/5
f 398/1/5 394/1/5 397/1/5
f 399/1/5 396/1/5 395/1/5
f 400/1/5 396/1/5 399/1/5
f 405/2/5 402/2/5 401/2/5
f 406/2/5 402/2/5 405/2/5
f 409/2/5 404/2/5 403/2/5
f 410/2/5 404/2/5 409/2/5
f 412/1/5 407/1/5 406/1/5
f 413/1/5 407/1/5 412/1/5
f 414/1/5 409/1/5 408/1/5
f 415/1/5 409/1/5 414/1/5
f 417/2/5 412/2/5 411/2/5
f 418/2/5 412/2/5 417/2/5
f 419/2/5 416/2/5 415/2/5
f 420/2/5 416/2/5 419/2/5
f 427/2/5 422/2/5 421/2/5
f 428/2/5 422/2/5 427/2/5
f 429/1/5 423/1/5 422/1/5
f 429/2/5 422/2/5 428/2/5
f 430/1/5 423/1/5 429/1/5
f 431/1/5 425/1/5 424/1/5
f 432/2/5 426/2/5 425/2/5
f 432/1/5 425/1/5 431/1/5
f 433/2/5 426/2/5 432/2/5
f 434/2/5 426/2/5 433/2/5
f 436/1/5 429/1/5 428/1/5
f 437/1/5 429/1/5 436/1/5
f 440/1/5 433/1/5 432/1/5
f 441/1/5 433/1/5 440/1/5
f 443/2/5 436/2/5 435/2/5
f 443/2/5 437/2/5 436/2/5
f 444/1/5 438/1/5 437/1/5
f 444/2/5 437/2/5 443/2/5
f 445/1/5 438/1/5 444/1/5
f 446/1/5 440/1/5 439/1/5
f 447/2/5 442/2/5 441/2/5
f 447/1/5 440/1/5 446/1/5
f 447/2/5 441/2/5 440/2/5
f 448/2/5 442/2/5 447/2/5
f 449/1/6 450/1/6 453/1/6
f 453/1/6 450/1/6 454/1/6
f 451/1/6 452/1/6 455/1/6
f 455/1/6 452/1/6 456/1/6
f 457/2/6 458/2/6 462/2/6
f 462/2/6 458/2/6 463/2/6
f 459/2/6 460/2/6 464/2/6
f 464/2/6 460/2/6 465/2/6
f 461/1/6 462/1/6 467/1/6
f 467/1/6 462/1/6 468/1/6
f 465/1/6 466/1/6 471/1/6
f 471/1/6 466/1/6 472/1/6
f 468/2/6 469/2/6 473/2/6
f 473/2/6 469/2/6 474/2/6
f 470/2/6 471/2/6 475/2/6
f 475/2/6 471/2/6 476/2/6
f 477/2/6 478/2/6 482/2/6
f 482/2/6 478/2/6 483/2/6
f 479/2/6 480/2/6 484/2/6
f 484/2/6 480/2/6 485/2/6
f 481/1/6 482/1/6 487/1/6
f 487/1/6 482/1/6 488/1/6
f 485/1/6 486/1/6 491/1/6
f 491/1/6 486/1/6 492/1/6
f 488/2/6 489/2/6 493/2/6
f 493/2/6 489/2/6 494/2/6
f 490/2/6 491/2/6 495/2/6
f 495/2/6 491/2/6 496/2/6
f 497/2/6 498/2/6 502/2/6
f 502/2/6 498/2/6 503/2/6
f 499/2/6 500/2/6 504/2/6
f 504/2/6 500/2/6 505/2/6
f 501/1/6 502/1/6 507/1/6
f 507/1/6 502/1/6 508/1/6
f 505/1/6 506/1/6 511/1/6
f 511/1/6 506/1/6 512/1/6
f 508/2/6 509/2/6 513/2/6
f 513/2/6 509/2/6 514/2/6
f 510/2/6 511/2/6 515/2/6
f 515/2/6 511/2/6 516/2/6
f 517/2/6 518/2/6 524/2/6
f 518/1/6 519/1/6 525/1/6
f 524/2/6 518/2/6 525/2/6
f 525/1/6 519/1/6 526/1/6
f 520/1/6 521/1/6 527/1/6
f 521/2/6 522/2/6 528/2/6
f 527/1/6 521/1/6 528/1/6
f 528/2/6 522/2/6 529/2/6
f 523/1/6 524/1/6 531/1/6
f 524/1/6 525/1/6 531/1/6
f 531/1/6 525/1/6 532/1/6
f 532/1/6 525/1/6 533/1/6
f 529/1/6 530/1/6 536/1/6
f 528/1/6 529/1/6 536/1/6
f 536/1/6 530/1/6 537/1/6
f 537/1/6 530/1/6 538/1/6
f 532/2/6 533/2/6 539/2/6
f 533/1/6 534/1/6 540/1/6
f 539/2/6 533/2/6 540/2/6
f 540/1/6 534/1/6 541/1/6
f 535/1/6 536/1/6 542/1/6
f 536/2/6 537/2/6 543/2/6
f 542/1/6 536/1/6 543/1/6
f 543/2/6 537/2/6 544/2/6
f 545/2/6 546/2/6 548/2/6
f 548/2/6 546/2/6 549/2/6
f 547/2/6 548/2/6 551/2/6
f 551/2/6 548/2/6 552/2/6
f 549/2/6 550/2/6 553/2/6
f 553/2/6 550/2/6 554/2/6
f 552/2/6 553/2/6 555/2/6
f 555/2/6 553/2/6 556/2/6
f 557/2/6 558/2/6 559/2/6
f 559/2/6 558/2/6 560/2/6
