# MagicaVoxel @ Ephtracy

# group
o 

# material
mtllib Roaster01.mtl
usemtl palette

# normals
vn -1 0 0
vn 1 0 0
vn 0 0 1
vn 0 0 -1
vn 0 -1 0
vn 0 1 0

# texcoords
vt 0.310547 0.5
vt 0.365234 0.5
vt 0.986328 0.5

# verts
v -2.6 2.2 0.1
v -2.6 2.2 -0.0999999
v -2.6 2.4 0.1
v -2.6 2.4 -0.0999999
v -2.5 0 0.1
v -2.5 0 -0.0999999
v -2.5 0.1 0.1
v -2.5 0.1 -0.0999999
v -2.5 2.1 0.1
v -2.5 2.1 -0.0999999
v -2.5 2.2 0.2
v -2.5 2.2 0.1
v -2.5 2.2 -0.0999999
v -2.5 2.2 -0.2
v -2.5 2.4 0.2
v -2.5 2.4 0.1
v -2.5 2.4 -0.0999999
v -2.5 2.4 -0.2
v -2.5 2.5 0.1
v -2.5 2.5 -0.0999999
v -2.4 0 1.1
v -2.4 0 1
v -2.4 0 -1
v -2.4 0 -1.1
v -2.4 0.1 0.1
v -2.4 0.1 -0.0999999
v -2.4 0.2 1.1
v -2.4 0.2 1
v -2.4 0.2 0.1
v -2.4 0.2 -0.0999999
v -2.4 0.2 -1
v -2.4 0.2 -1.1
v -2.3 0 1.2
v -2.3 0 1.1
v -2.3 0 1
v -2.3 0 0.1
v -2.3 0 -0.0999999
v -2.3 0 -1
v -2.3 0 -1.1
v -2.3 0 -1.2
v -2.3 0.1 1.2
v -2.3 0.1 1.1
v -2.3 0.1 -1.1
v -2.3 0.1 -1.2
v -2.3 0.2 1.1
v -2.3 0.2 1
v -2.3 0.2 0.1
v -2.3 0.2 -0.0999999
v -2.3 0.2 -1
v -2.3 0.2 -1.1
v -2.3 0.3 1.1
v -2.3 0.3 0.2
v -2.3 0.3 -0.2
v -2.3 0.3 -1.1
v -2.3 2.2 0.1
v -2.3 2.2 -0.0999999
v -2.3 2.4 0.1
v -2.3 2.4 -0.0999999
v -2.3 2.5 0.2
v -2.3 2.5 -0.2
v 2 0 1.1
v 2 0 1
v 2 0 0.1
v 2 0 -0.0999999
v 2 0 -1
v 2 0 -1.1
v 2 0.1 0.1
v 2 0.1 -0.0999999
v 2 0.2 1.1
v 2 0.2 1
v 2 0.2 -1
v 2 0.2 -1.1
v 2.1 0 1.2
v 2.1 0 1.1
v 2.1 0 1
v 2.1 0 0.1
v 2.1 0 -0.0999999
v 2.1 0 -1
v 2.1 0 -1.1
v 2.1 0 -1.2
v 2.1 0.1 1.2
v 2.1 0.1 1.1
v 2.1 0.1 0.1
v 2.1 0.1 -0.0999999
v 2.1 0.1 -1.1
v 2.1 0.1 -1.2
v 2.1 0.2 1.1
v 2.1 0.2 1
v 2.1 0.2 -1
v 2.1 0.2 -1.1
v 2.1 0.3 1.1
v 2.1 0.3 0.2
v 2.1 0.3 -0.2
v 2.1 0.3 -1.1
v 2.1 2.2 0.1
v 2.1 2.2 -0.0999999
v 2.1 2.4 0.1
v 2.1 2.4 -0.0999999
v 2.1 2.5 0.2
v 2.1 2.5 -0.2
v 2.4 2.1 0.1
v 2.4 2.1 -0.0999999
v 2.4 2.2 0.2
v 2.4 2.2 0.1
v 2.4 2.2 -0.0999999
v 2.4 2.2 -0.2
v 2.4 2.4 0.2
v 2.4 2.4 0.1
v 2.4 2.4 -0.0999999
v 2.4 2.4 -0.2
v 2.4 2.5 0.1
v 2.4 2.5 -0.0999999
v 2.6 1.8 0
v 2.6 1.8 -0.0999999
v 2.6 2.2 0
v 2.6 2.2 -0.0999999
v -2.4 2.1 0.1
v -2.4 2.1 -0.0999999
v -2.4 2.2 0.2
v -2.4 2.2 0.1
v -2.4 2.2 -0.0999999
v -2.4 2.2 -0.2
v -2.4 2.4 0.2
v -2.4 2.4 0.1
v -2.4 2.4 -0.0999999
v -2.4 2.4 -0.2
v -2.4 2.5 0.1
v -2.4 2.5 -0.0999999
v -2.1 0 1.2
v -2.1 0 1.1
v -2.1 0 1
v -2.1 0 0.1
v -2.1 0 -0.0999999
v -2.1 0 -1
v -2.1 0 -1.1
v -2.1 0 -1.2
v -2.1 0.1 1.2
v -2.1 0.1 1.1
v -2.1 0.1 0.1
v -2.1 0.1 -0.0999999
v -2.1 0.1 -1.1
v -2.1 0.1 -1.2
v -2.1 0.2 1.1
v -2.1 0.2 1
v -2.1 0.2 -1
v -2.1 0.2 -1.1
v -2.1 0.3 1.1
v -2.1 0.3 0.2
v -2.1 0.3 -0.2
v -2.1 0.3 -1.1
v -2.1 2.2 0.1
v -2.1 2.2 -0.0999999
v -2.1 2.4 0.1
v -2.1 2.4 -0.0999999
v -2.1 2.5 0.2
v -2.1 2.5 -0.2
v -2 0 1.1
v -2 0 1
v -2 0 0.1
v -2 0 -0.0999999
v -2 0 -1
v -2 0 -1.1
v -2 0.1 0.1
v -2 0.1 -0.0999999
v -2 0.2 1.1
v -2 0.2 1
v -2 0.2 -1
v -2 0.2 -1.1
v 2.3 0 1.2
v 2.3 0 1.1
v 2.3 0 1
v 2.3 0 0.1
v 2.3 0 -0.0999999
v 2.3 0 -1
v 2.3 0 -1.1
v 2.3 0 -1.2
v 2.3 0.1 1.2
v 2.3 0.1 1.1
v 2.3 0.1 -1.1
v 2.3 0.1 -1.2
v 2.3 0.2 1.1
v 2.3 0.2 1
v 2.3 0.2 0.1
v 2.3 0.2 -0.0999999
v 2.3 0.2 -1
v 2.3 0.2 -1.1
v 2.3 0.3 1.1
v 2.3 0.3 0.2
v 2.3 0.3 -0.2
v 2.3 0.3 -1.1
v 2.3 2.2 0.1
v 2.3 2.2 -0.0999999
v 2.3 2.4 0.1
v 2.3 2.4 -0.0999999
v 2.3 2.5 0.2
v 2.3 2.5 -0.2
v 2.4 0 1.1
v 2.4 0 1
v 2.4 0 -1
v 2.4 0 -1.1
v 2.4 0.1 0.1
v 2.4 0.1 -0.0999999
v 2.4 0.2 1.1
v 2.4 0.2 1
v 2.4 0.2 0.1
v 2.4 0.2 -0.0999999
v 2.4 0.2 -1
v 2.4 0.2 -1.1
v 2.5 0 0.1
v 2.5 0 -0.0999999
v 2.5 0.1 0.1
v 2.5 0.1 -0.0999999
v 2.5 2.1 0.1
v 2.5 2.1 -0.0999999
v 2.5 2.2 0.2
v 2.5 2.2 0.1
v 2.5 2.2 -0.0999999
v 2.5 2.2 -0.2
v 2.5 2.4 0.2
v 2.5 2.4 0.1
v 2.5 2.4 -0.0999999
v 2.5 2.4 -0.2
v 2.5 2.5 0.1
v 2.5 2.5 -0.0999999
v 2.6 2.2 0.1
v 2.6 2.2 0
v 2.6 2.3 0
v 2.6 2.3 -0.0999999
v 2.6 2.4 0.1
v 2.6 2.4 -0.0999999
v 2.7 1.9 0
v 2.7 1.9 -0.0999999
v 2.7 2.3 0
v 2.7 2.3 -0.0999999
v 2.9 1.8 0
v 2.9 1.8 -0.0999999
v 2.9 1.9 0
v 2.9 1.9 -0.0999999
v -2.3 0 1.2
v -2.3 0.1 1.2
v -2.1 0 1.2
v -2.1 0.1 1.2
v 2.1 0 1.2
v 2.1 0.1 1.2
v 2.3 0 1.2
v 2.3 0.1 1.2
v -2.4 0 1.1
v -2.4 0.2 1.1
v -2.3 0 1.1
v -2.3 0.1 1.1
v -2.3 0.2 1.1
v -2.3 0.3 1.1
v -2.1 0 1.1
v -2.1 0.1 1.1
v -2.1 0.2 1.1
v -2.1 0.3 1.1
v -2 0 1.1
v -2 0.2 1.1
v 2 0 1.1
v 2 0.2 1.1
v 2.1 0 1.1
v 2.1 0.1 1.1
v 2.1 0.2 1.1
v 2.1 0.3 1.1
v 2.3 0 1.1
v 2.3 0.1 1.1
v 2.3 0.2 1.1
v 2.3 0.3 1.1
v 2.4 0 1.1
v 2.4 0.2 1.1
v -2.5 2.2 0.2
v -2.5 2.4 0.2
v -2.4 2.2 0.2
v -2.4 2.4 0.2
v -2.3 0.3 0.2
v -2.3 2.5 0.2
v -2.1 0.3 0.2
v -2.1 2.5 0.2
v 2.1 0.3 0.2
v 2.1 2.5 0.2
v 2.3 0.3 0.2
v 2.3 2.5 0.2
v 2.4 2.2 0.2
v 2.4 2.4 0.2
v 2.5 2.2 0.2
v 2.5 2.4 0.2
v -2.6 2.2 0.1
v -2.6 2.4 0.1
v -2.5 0 0.1
v -2.5 0.1 0.1
v -2.5 2.1 0.1
v -2.5 2.2 0.1
v -2.5 2.4 0.1
v -2.5 2.5 0.1
v -2.4 0.1 0.1
v -2.4 0.2 0.1
v -2.4 2.1 0.1
v -2.4 2.2 0.1
v -2.4 2.4 0.1
v -2.4 2.5 0.1
v -2.3 0 0.1
v -2.3 0.2 0.1
v -2.3 2.2 0.1
v -2.3 2.4 0.1
v -2.1 0 0.1
v -2.1 0.1 0.1
v -2.1 2.2 0.1
v -2.1 2.4 0.1
v -2 0 0.1
v -2 0.1 0.1
v 2 0 0.1
v 2 0.1 0.1
v 2.1 0 0.1
v 2.1 0.1 0.1
v 2.1 2.2 0.1
v 2.1 2.4 0.1
v 2.3 0 0.1
v 2.3 0.2 0.1
v 2.3 2.2 0.1
v 2.3 2.4 0.1
v 2.4 0.1 0.1
v 2.4 0.2 0.1
v 2.4 2.1 0.1
v 2.4 2.2 0.1
v 2.4 2.4 0.1
v 2.4 2.5 0.1
v 2.5 0 0.1
v 2.5 0.1 0.1
v 2.5 2.1 0.1
v 2.5 2.2 0.1
v 2.5 2.4 0.1
v 2.5 2.5 0.1
v 2.6 2.2 0.1
v 2.6 2.4 0.1
v 2.6 1.8 0
v 2.6 2.2 0
v 2.6 2.3 0
v 2.7 1.9 0
v 2.7 2.3 0
v 2.9 1.8 0
v 2.9 1.9 0
v -2.4 0 -1
v -2.4 0.2 -1
v -2.3 0 -1
v -2.3 0.2 -1
v -2.1 0 -1
v -2.1 0.2 -1
v -2 0 -1
v -2 0.2 -1
v 2 0 -1
v 2 0.2 -1
v 2.1 0 -1
v 2.1 0.2 -1
v 2.3 0 -1
v 2.3 0.2 -1
v 2.4 0 -1
v 2.4 0.2 -1
v -2.4 0 1
v -2.4 0.2 1
v -2.3 0 1
v -2.3 0.2 1
v -2.1 0 1
v -2.1 0.2 1
v -2 0 1
v -2 0.2 1
v 2 0 1
v 2 0.2 1
v 2.1 0 1
v 2.1 0.2 1
v 2.3 0 1
v 2.3 0.2 1
v 2.4 0 1
v 2.4 0.2 1
v -2.6 2.2 -0.0999999
v -2.6 2.4 -0.0999999
v -2.5 0 -0.0999999
v -2.5 0.1 -0.0999999
v -2.5 2.1 -0.0999999
v -2.5 2.2 -0.0999999
v -2.5 2.4 -0.0999999
v -2.5 2.5 -0.0999999
v -2.4 0.1 -0.0999999
v -2.4 0.2 -0.0999999
v -2.4 2.1 -0.0999999
v -2.4 2.2 -0.0999999
v -2.4 2.4 -0.0999999
v -2.4 2.5 -0.0999999
v -2.3 0 -0.0999999
v -2.3 0.2 -0.0999999
v -2.3 2.2 -0.0999999
v -2.3 2.4 -0.0999999
v -2.1 0 -0.0999999
v -2.1 0.1 -0.0999999
v -2.1 2.2 -0.0999999
v -2.1 2.4 -0.0999999
v -2 0 -0.0999999
v -2 0.1 -0.0999999
v 2 0 -0.0999999
v 2 0.1 -0.0999999
v 2.1 0 -0.0999999
v 2.1 0.1 -0.0999999
v 2.1 2.2 -0.0999999
v 2.1 2.4 -0.0999999
v 2.3 0 -0.0999999
v 2.3 0.2 -0.0999999
v 2.3 2.2 -0.0999999
v 2.3 2.4 -0.0999999
v 2.4 0.1 -0.0999999
v 2.4 0.2 -0.0999999
v 2.4 2.1 -0.0999999
v 2.4 2.2 -0.0999999
v 2.4 2.4 -0.0999999
v 2.4 2.5 -0.0999999
v 2.5 0 -0.0999999
v 2.5 0.1 -0.0999999
v 2.5 2.1 -0.0999999
v 2.5 2.2 -0.0999999
v 2.5 2.4 -0.0999999
v 2.5 2.5 -0.0999999
v 2.6 1.8 -0.0999999
v 2.6 2.2 -0.0999999
v 2.6 2.3 -0.0999999
v 2.6 2.4 -0.0999999
v 2.7 1.9 -0.0999999
v 2.7 2.3 -0.0999999
v 2.9 1.8 -0.0999999
v 2.9 1.9 -0.0999999
v -2.5 2.2 -0.2
v -2.5 2.4 -0.2
v -2.4 2.2 -0.2
v -2.4 2.4 -0.2
v -2.3 0.3 -0.2
v -2.3 2.5 -0.2
v -2.1 0.3 -0.2
v -2.1 2.5 -0.2
v 2.1 0.3 -0.2
v 2.1 2.5 -0.2
v 2.3 0.3 -0.2
v 2.3 2.5 -0.2
v 2.4 2.2 -0.2
v 2.4 2.4 -0.2
v 2.5 2.2 -0.2
v 2.5 2.4 -0.2
v -2.4 0 -1.1
v -2.4 0.2 -1.1
v -2.3 0 -1.1
v -2.3 0.1 -1.1
v -2.3 0.2 -1.1
v -2.3 0.3 -1.1
v -2.1 0 -1.1
v -2.1 0.1 -1.1
v -2.1 0.2 -1.1
v -2.1 0.3 -1.1
v -2 0 -1.1
v -2 0.2 -1.1
v 2 0 -1.1
v 2 0.2 -1.1
v 2.1 0 -1.1
v 2.1 0.1 -1.1
v 2.1 0.2 -1.1
v 2.1 0.3 -1.1
v 2.3 0 -1.1
v 2.3 0.1 -1.1
v 2.3 0.2 -1.1
v 2.3 0.3 -1.1
v 2.4 0 -1.1
v 2.4 0.2 -1.1
v -2.3 0 -1.2
v -2.3 0.1 -1.2
v -2.1 0 -1.2
v -2.1 0.1 -1.2
v 2.1 0 -1.2
v 2.1 0.1 -1.2
v 2.3 0 -1.2
v 2.3 0.1 -1.2
v -2.3 0 1.2
v -2.1 0 1.2
v 2.1 0 1.2
v 2.3 0 1.2
v -2.4 0 1.1
v -2.3 0 1.1
v -2.1 0 1.1
v -2 0 1.1
v 2 0 1.1
v 2.1 0 1.1
v 2.3 0 1.1
v 2.4 0 1.1
v -2.4 0 1
v -2.3 0 1
v -2.1 0 1
v -2 0 1
v 2 0 1
v 2.1 0 1
v 2.3 0 1
v 2.4 0 1
v -2.5 0 0.1
v -2.3 0 0.1
v -2.1 0 0.1
v -2 0 0.1
v 2 0 0.1
v 2.1 0 0.1
v 2.3 0 0.1
v 2.5 0 0.1
v -2.5 0 -0.0999999
v -2.3 0 -0.0999999
v -2.1 0 -0.0999999
v -2 0 -0.0999999
v 2 0 -0.0999999
v 2.1 0 -0.0999999
v 2.3 0 -0.0999999
v 2.5 0 -0.0999999
v -2.4 0 -1
v -2.3 0 -1
v -2.1 0 -1
v -2 0 -1
v 2 0 -1
v 2.1 0 -1
v 2.3 0 -1
v 2.4 0 -1
v -2.4 0 -1.1
v -2.3 0 -1.1
v -2.1 0 -1.1
v -2 0 -1.1
v 2 0 -1.1
v 2.1 0 -1.1
v 2.3 0 -1.1
v 2.4 0 -1.1
v -2.3 0 -1.2
v -2.1 0 -1.2
v 2.1 0 -1.2
v 2.3 0 -1.2
v 2.6 1.8 0
v 2.9 1.8 0
v 2.6 1.8 -0.0999999
v 2.9 1.8 -0.0999999
v -2.5 2.1 0.1
v -2.4 2.1 0.1
v 2.4 2.1 0.1
v 2.5 2.1 0.1
v -2.5 2.1 -0.0999999
v -2.4 2.1 -0.0999999
v 2.4 2.1 -0.0999999
v 2.5 2.1 -0.0999999
v -2.5 2.2 0.2
v -2.4 2.2 0.2
v 2.4 2.2 0.2
v 2.5 2.2 0.2
v -2.6 2.2 0.1
v -2.5 2.2 0.1
v -2.4 2.2 0.1
v -2.3 2.2 0.1
v -2.1 2.2 0.1
v 2.1 2.2 0.1
v 2.3 2.2 0.1
v 2.4 2.2 0.1
v 2.5 2.2 0.1
v 2.6 2.2 0.1
v 2.6 2.2 0
v -2.6 2.2 -0.0999999
v -2.5 2.2 -0.0999999
v -2.4 2.2 -0.0999999
v -2.3 2.2 -0.0999999
v -2.1 2.2 -0.0999999
v 2.1 2.2 -0.0999999
v 2.3 2.2 -0.0999999
v 2.4 2.2 -0.0999999
v 2.5 2.2 -0.0999999
v 2.6 2.2 -0.0999999
v -2.5 2.2 -0.2
v -2.4 2.2 -0.2
v 2.4 2.2 -0.2
v 2.5 2.2 -0.2
v -2.3 0.1 1.2
v -2.1 0.1 1.2
v 2.1 0.1 1.2
v 2.3 0.1 1.2
v -2.3 0.1 1.1
v -2.1 0.1 1.1
v 2.1 0.1 1.1
v 2.3 0.1 1.1
v -2.5 0.1 0.1
v -2.4 0.1 0.1
v -2.1 0.1 0.1
v -2 0.1 0.1
v 2 0.1 0.1
v 2.1 0.1 0.1
v 2.4 0.1 0.1
v 2.5 0.1 0.1
v -2.5 0.1 -0.0999999
v -2.4 0.1 -0.0999999
v -2.1 0.1 -0.0999999
v -2 0.1 -0.0999999
v 2 0.1 -0.0999999
v 2.1 0.1 -0.0999999
v 2.4 0.1 -0.0999999
v 2.5 0.1 -0.0999999
v -2.3 0.1 -1.1
v -2.1 0.1 -1.1
v 2.1 0.1 -1.1
v 2.3 0.1 -1.1
v -2.3 0.1 -1.2
v -2.1 0.1 -1.2
v 2.1 0.1 -1.2
v 2.3 0.1 -1.2
v -2.4 0.2 1.1
v -2.3 0.2 1.1
v -2.1 0.2 1.1
v -2 0.2 1.1
v 2 0.2 1.1
v 2.1 0.2 1.1
v 2.3 0.2 1.1
v 2.4 0.2 1.1
v -2.4 0.2 1
v -2.3 0.2 1
v -2.1 0.2 1
v -2 0.2 1
v 2 0.2 1
v 2.1 0.2 1
v 2.3 0.2 1
v 2.4 0.2 1
v -2.4 0.2 0.1
v -2.3 0.2 0.1
v 2.3 0.2 0.1
v 2.4 0.2 0.1
v -2.4 0.2 -0.0999999
v -2.3 0.2 -0.0999999
v 2.3 0.2 -0.0999999
v 2.4 0.2 -0.0999999
v -2.4 0.2 -1
v -2.3 0.2 -1
v -2.1 0.2 -1
v -2 0.2 -1
v 2 0.2 -1
v 2.1 0.2 -1
v 2.3 0.2 -1
v 2.4 0.2 -1
v -2.4 0.2 -1.1
v -2.3 0.2 -1.1
v -2.1 0.2 -1.1
v -2 0.2 -1.1
v 2 0.2 -1.1
v 2.1 0.2 -1.1
v 2.3 0.2 -1.1
v 2.4 0.2 -1.1
v -2.3 0.3 1.1
v -2.1 0.3 1.1
v 2.1 0.3 1.1
v 2.3 0.3 1.1
v -2.3 0.3 0.2
v -2.1 0.3 0.2
v 2.1 0.3 0.2
v 2.3 0.3 0.2
v -2.3 0.3 -0.2
v -2.1 0.3 -0.2
v 2.1 0.3 -0.2
v 2.3 0.3 -0.2
v -2.3 0.3 -1.1
v -2.1 0.3 -1.1
v 2.1 0.3 -1.1
v 2.3 0.3 -1.1
v 2.7 1.9 0
v 2.9 1.9 0
v 2.7 1.9 -0.0999999
v 2.9 1.9 -0.0999999
v 2.6 2.3 0
v 2.7 2.3 0
v 2.6 2.3 -0.0999999
v 2.7 2.3 -0.0999999
v -2.5 2.4 0.2
v -2.4 2.4 0.2
v 2.4 2.4 0.2
v 2.5 2.4 0.2
v -2.6 2.4 0.1
v -2.5 2.4 0.1
v -2.4 2.4 0.1
v -2.3 2.4 0.1
v -2.1 2.4 0.1
v 2.1 2.4 0.1
v 2.3 2.4 0.1
v 2.4 2.4 0.1
v 2.5 2.4 0.1
v 2.6 2.4 0.1
v -2.6 2.4 -0.0999999
v -2.5 2.4 -0.0999999
v -2.4 2.4 -0.0999999
v -2.3 2.4 -0.0999999
v -2.1 2.4 -0.0999999
v 2.1 2.4 -0.0999999
v 2.3 2.4 -0.0999999
v 2.4 2.4 -0.0999999
v 2.5 2.4 -0.0999999
v 2.6 2.4 -0.0999999
v -2.5 2.4 -0.2
v -2.4 2.4 -0.2
v 2.4 2.4 -0.2
v 2.5 2.4 -0.2
v -2.3 2.5 0.2
v -2.1 2.5 0.2
v 2.1 2.5 0.2
v 2.3 2.5 0.2
v -2.5 2.5 0.1
v -2.4 2.5 0.1
v 2.4 2.5 0.1
v 2.5 2.5 0.1
v -2.5 2.5 -0.0999999
v -2.4 2.5 -0.0999999
v 2.4 2.5 -0.0999999
v 2.5 2.5 -0.0999999
v -2.3 2.5 -0.2
v -2.1 2.5 -0.2
v 2.1 2.5 -0.2
v 2.3 2.5 -0.2

# faces
f 3/3/1 2/3/1 1/3/1
f 4/3/1 2/3/1 3/3/1
f 7/1/1 6/1/1 5/1/1
f 8/1/1 6/1/1 7/1/1
f 12/3/1 10/3/1 9/3/1
f 13/3/1 10/3/1 12/3/1
f 15/3/1 12/3/1 11/3/1
f 16/3/1 12/3/1 15/3/1
f 17/3/1 14/3/1 13/3/1
f 18/3/1 14/3/1 17/3/1
f 19/3/1 17/3/1 16/3/1
f 20/3/1 17/3/1 19/3/1
f 27/1/1 22/1/1 21/1/1
f 28/1/1 22/1/1 27/1/1
f 29/1/1 26/1/1 25/1/1
f 30/1/1 26/1/1 29/1/1
f 31/1/1 24/1/1 23/1/1
f 32/1/1 24/1/1 31/1/1
f 41/1/1 34/1/1 33/1/1
f 42/1/1 34/1/1 41/1/1
f 43/1/1 40/1/1 39/1/1
f 44/1/1 40/1/1 43/1/1
f 46/1/1 36/1/1 35/1/1
f 47/1/1 36/1/1 46/1/1
f 48/1/1 38/1/1 37/1/1
f 49/1/1 38/1/1 48/1/1
f 51/1/1 47/1/1 46/1/1
f 51/1/1 50/1/1 49/1/1
f 51/1/1 49/1/1 48/1/1
f 51/1/1 48/1/1 47/1/1
f 51/1/1 46/1/1 45/1/1
f 52/1/1 50/1/1 51/1/1
f 53/1/1 50/1/1 52/1/1
f 54/1/1 50/1/1 53/1/1
f 55/1/1 53/1/1 52/1/1
f 56/1/1 53/1/1 55/1/1
f 57/1/1 55/1/1 52/1/1
f 58/1/1 53/1/1 56/1/1
f 59/1/1 57/1/1 52/1/1
f 59/1/1 58/1/1 57/1/1
f 60/1/1 53/1/1 58/1/1
f 60/1/1 58/1/1 59/1/1
f 67/1/1 64/1/1 63/1/1
f 68/1/1 64/1/1 67/1/1
f 69/1/1 62/1/1 61/1/1
f 70/1/1 62/1/1 69/1/1
f 71/1/1 66/1/1 65/1/1
f 72/1/1 66/1/1 71/1/1
f 81/1/1 74/1/1 73/1/1
f 82/1/1 74/1/1 81/1/1
f 83/1/1 76/1/1 75/1/1
f 84/1/1 78/1/1 77/1/1
f 85/1/1 80/1/1 79/1/1
f 86/1/1 80/1/1 85/1/1
f 88/1/1 84/1/1 83/1/1
f 88/1/1 83/1/1 75/1/1
f 89/1/1 78/1/1 84/1/1
f 89/1/1 84/1/1 88/1/1
f 91/1/1 88/1/1 87/1/1
f 91/1/1 90/1/1 89/1/1
f 91/1/1 89/1/1 88/1/1
f 92/1/1 90/1/1 91/1/1
f 93/1/1 90/1/1 92/1/1
f 94/1/1 90/1/1 93/1/1
f 95/1/1 93/1/1 92/1/1
f 96/1/1 93/1/1 95/1/1
f 97/1/1 95/1/1 92/1/1
f 98/1/1 93/1/1 96/1/1
f 99/1/1 97/1/1 92/1/1
f 99/1/1 98/1/1 97/1/1
f 100/1/1 93/1/1 98/1/1
f 100/1/1 98/1/1 99/1/1
f 104/3/1 102/3/1 101/3/1
f 105/3/1 102/3/1 104/3/1
f 107/3/1 104/3/1 103/3/1
f 108/3/1 104/3/1 107/3/1
f 109/3/1 106/3/1 105/3/1
f 110/3/1 106/3/1 109/3/1
f 111/3/1 109/3/1 108/3/1
f 112/3/1 109/3/1 111/3/1
f 115/3/1 114/3/1 113/3/1
f 116/3/1 114/3/1 115/3/1
f 117/3/2 118/3/2 120/3/2
f 120/3/2 118/3/2 121/3/2
f 119/3/2 120/3/2 123/3/2
f 123/3/2 120/3/2 124/3/2
f 121/3/2 122/3/2 125/3/2
f 125/3/2 122/3/2 126/3/2
f 124/3/2 125/3/2 127/3/2
f 127/3/2 125/3/2 128/3/2
f 129/1/2 130/1/2 137/1/2
f 137/1/2 130/1/2 138/1/2
f 131/1/2 132/1/2 139/1/2
f 133/1/2 134/1/2 140/1/2
f 135/1/2 136/1/2 141/1/2
f 141/1/2 136/1/2 142/1/2
f 139/1/2 140/1/2 144/1/2
f 131/1/2 139/1/2 144/1/2
f 140/1/2 134/1/2 145/1/2
f 144/1/2 140/1/2 145/1/2
f 143/1/2 144/1/2 147/1/2
f 145/1/2 146/1/2 147/1/2
f 144/1/2 145/1/2 147/1/2
f 147/1/2 146/1/2 148/1/2
f 148/1/2 146/1/2 149/1/2
f 149/1/2 146/1/2 150/1/2
f 148/1/2 149/1/2 151/1/2
f 151/1/2 149/1/2 152/1/2
f 148/1/2 151/1/2 153/1/2
f 152/1/2 149/1/2 154/1/2
f 148/1/2 153/1/2 155/1/2
f 153/1/2 154/1/2 155/1/2
f 154/1/2 149/1/2 156/1/2
f 155/1/2 154/1/2 156/1/2
f 159/1/2 160/1/2 163/1/2
f 163/1/2 160/1/2 164/1/2
f 157/1/2 158/1/2 165/1/2
f 165/1/2 158/1/2 166/1/2
f 161/1/2 162/1/2 167/1/2
f 167/1/2 162/1/2 168/1/2
f 169/1/2 170/1/2 177/1/2
f 177/1/2 170/1/2 178/1/2
f 175/1/2 176/1/2 179/1/2
f 179/1/2 176/1/2 180/1/2
f 171/1/2 172/1/2 182/1/2
f 182/1/2 172/1/2 183/1/2
f 173/1/2 174/1/2 184/1/2
f 184/1/2 174/1/2 185/1/2
f 182/1/2 183/1/2 187/1/2
f 185/1/2 186/1/2 187/1/2
f 184/1/2 185/1/2 187/1/2
f 183/1/2 184/1/2 187/1/2
f 181/1/2 182/1/2 187/1/2
f 187/1/2 186/1/2 188/1/2
f 188/1/2 186/1/2 189/1/2
f 189/1/2 186/1/2 190/1/2
f 188/1/2 189/1/2 191/1/2
f 191/1/2 189/1/2 192/1/2
f 188/1/2 191/1/2 193/1/2
f 192/1/2 189/1/2 194/1/2
f 188/1/2 193/1/2 195/1/2
f 193/1/2 194/1/2 195/1/2
f 194/1/2 189/1/2 196/1/2
f 195/1/2 194/1/2 196/1/2
f 197/1/2 198/1/2 203/1/2
f 203/1/2 198/1/2 204/1/2
f 201/1/2 202/1/2 205/1/2
f 205/1/2 202/1/2 206/1/2
f 199/1/2 200/1/2 207/1/2
f 207/1/2 200/1/2 208/1/2
f 209/1/2 210/1/2 211/1/2
f 211/1/2 210/1/2 212/1/2
f 213/3/2 214/3/2 216/3/2
f 216/3/2 214/3/2 217/3/2
f 215/3/2 216/3/2 219/3/2
f 219/3/2 216/3/2 220/3/2
f 217/3/2 218/3/2 221/3/2
f 221/3/2 218/3/2 222/3/2
f 220/3/2 221/3/2 223/3/2
f 223/3/2 221/3/2 224/3/2
f 225/3/2 226/3/2 227/3/2
f 225/3/2 227/3/2 229/3/2
f 227/3/2 228/3/2 229/3/2
f 229/3/2 228/3/2 230/3/2
f 231/3/2 232/3/2 233/3/2
f 233/3/2 232/3/2 234/3/2
f 235/3/2 236/3/2 237/3/2
f 237/3/2 236/3/2 238/3/2
f 241/1/3 240/1/3 239/1/3
f 242/1/3 240/1/3 241/1/3
f 245/1/3 244/1/3 243/1/3
f 246/1/3 244/1/3 245/1/3
f 249/1/3 248/1/3 247/1/3
f 250/1/3 248/1/3 249/1/3
f 251/1/3 248/1/3 250/1/3
f 254/1/3 252/1/3 251/1/3
f 254/1/3 251/1/3 250/1/3
f 255/1/3 252/1/3 254/1/3
f 256/1/3 252/1/3 255/1/3
f 257/1/3 254/1/3 253/1/3
f 257/1/3 255/1/3 254/1/3
f 258/1/3 255/1/3 257/1/3
f 261/1/3 260/1/3 259/1/3
f 262/1/3 260/1/3 261/1/3
f 263/1/3 260/1/3 262/1/3
f 266/1/3 263/1/3 262/1/3
f 266/1/3 264/1/3 263/1/3
f 267/1/3 264/1/3 266/1/3
f 268/1/3 264/1/3 267/1/3
f 269/1/3 266/1/3 265/1/3
f 269/1/3 267/1/3 266/1/3
f 270/1/3 267/1/3 269/1/3
f 273/3/3 272/3/3 271/3/3
f 274/3/3 272/3/3 273/3/3
f 277/1/3 276/1/3 275/1/3
f 278/1/3 276/1/3 277/1/3
f 281/1/3 280/1/3 279/1/3
f 282/1/3 280/1/3 281/1/3
f 285/3/3 284/3/3 283/3/3
f 286/3/3 284/3/3 285/3/3
f 292/3/3 288/3/3 287/3/3
f 293/3/3 288/3/3 292/3/3
f 295/1/3 290/1/3 289/1/3
f 297/3/3 292/3/3 291/3/3
f 298/3/3 292/3/3 297/3/3
f 299/3/3 294/3/3 293/3/3
f 300/3/3 294/3/3 299/3/3
f 301/1/3 296/1/3 295/1/3
f 301/1/3 295/1/3 289/1/3
f 302/1/3 296/1/3 301/1/3
f 303/3/3 299/3/3 298/3/3
f 304/3/3 299/3/3 303/3/3
f 309/1/3 306/1/3 305/1/3
f 310/1/3 306/1/3 309/1/3
f 313/1/3 312/1/3 311/1/3
f 314/1/3 312/1/3 313/1/3
f 315/3/3 308/3/3 307/3/3
f 316/3/3 308/3/3 315/3/3
f 321/1/3 318/1/3 317/1/3
f 322/1/3 318/1/3 321/1/3
f 324/3/3 320/3/3 319/3/3
f 325/3/3 320/3/3 324/3/3
f 327/1/3 321/1/3 317/1/3
f 328/1/3 321/1/3 327/1/3
f 329/3/3 324/3/3 323/3/3
f 330/3/3 324/3/3 329/3/3
f 331/3/3 326/3/3 325/3/3
f 332/3/3 326/3/3 331/3/3
f 333/3/3 331/3/3 330/3/3
f 334/3/3 331/3/3 333/3/3
f 338/3/3 336/3/3 335/3/3
f 338/3/3 337/3/3 336/3/3
f 339/3/3 337/3/3 338/3/3
f 340/3/3 338/3/3 335/3/3
f 341/3/3 338/3/3 340/3/3
f 344/1/3 343/1/3 342/1/3
f 345/1/3 343/1/3 344/1/3
f 348/1/3 347/1/3 346/1/3
f 349/1/3 347/1/3 348/1/3
f 352/1/3 351/1/3 350/1/3
f 353/1/3 351/1/3 352/1/3
f 356/1/3 355/1/3 354/1/3
f 357/1/3 355/1/3 356/1/3
f 358/1/4 359/1/4 360/1/4
f 360/1/4 359/1/4 361/1/4
f 362/1/4 363/1/4 364/1/4
f 364/1/4 363/1/4 365/1/4
f 366/1/4 367/1/4 368/1/4
f 368/1/4 367/1/4 369/1/4
f 370/1/4 371/1/4 372/1/4
f 372/1/4 371/1/4 373/1/4
f 374/3/4 375/3/4 379/3/4
f 379/3/4 375/3/4 380/3/4
f 376/1/4 377/1/4 382/1/4
f 378/3/4 379/3/4 384/3/4
f 384/3/4 379/3/4 385/3/4
f 380/3/4 381/3/4 386/3/4
f 386/3/4 381/3/4 387/3/4
f 382/1/4 383/1/4 388/1/4
f 376/1/4 382/1/4 388/1/4
f 388/1/4 383/1/4 389/1/4
f 385/3/4 386/3/4 390/3/4
f 390/3/4 386/3/4 391/3/4
f 392/1/4 393/1/4 396/1/4
f 396/1/4 393/1/4 397/1/4
f 398/1/4 399/1/4 400/1/4
f 400/1/4 399/1/4 401/1/4
f 394/3/4 395/3/4 402/3/4
f 402/3/4 395/3/4 403/3/4
f 404/1/4 405/1/4 408/1/4
f 408/1/4 405/1/4 409/1/4
f 406/3/4 407/3/4 411/3/4
f 411/3/4 407/3/4 412/3/4
f 404/1/4 408/1/4 414/1/4
f 414/1/4 408/1/4 415/1/4
f 410/3/4 411/3/4 416/3/4
f 416/3/4 411/3/4 417/3/4
f 412/3/4 413/3/4 418/3/4
f 418/3/4 413/3/4 419/3/4
f 417/3/4 418/3/4 421/3/4
f 421/3/4 418/3/4 422/3/4
f 422/3/4 418/3/4 423/3/4
f 420/3/4 421/3/4 424/3/4
f 421/3/4 422/3/4 424/3/4
f 424/3/4 422/3/4 425/3/4
f 420/3/4 424/3/4 426/3/4
f 426/3/4 424/3/4 427/3/4
f 428/3/4 429/3/4 430/3/4
f 430/3/4 429/3/4 431/3/4
f 432/1/4 433/1/4 434/1/4
f 434/1/4 433/1/4 435/1/4
f 436/1/4 437/1/4 438/1/4
f 438/1/4 437/1/4 439/1/4
f 440/3/4 441/3/4 442/3/4
f 442/3/4 441/3/4 443/3/4
f 444/1/4 445/1/4 446/1/4
f 446/1/4 445/1/4 447/1/4
f 447/1/4 445/1/4 448/1/4
f 448/1/4 449/1/4 451/1/4
f 447/1/4 448/1/4 451/1/4
f 451/1/4 449/1/4 452/1/4
f 452/1/4 449/1/4 453/1/4
f 450/1/4 451/1/4 454/1/4
f 451/1/4 452/1/4 454/1/4
f 454/1/4 452/1/4 455/1/4
f 456/1/4 457/1/4 458/1/4
f 458/1/4 457/1/4 459/1/4
f 459/1/4 457/1/4 460/1/4
f 459/1/4 460/1/4 463/1/4
f 460/1/4 461/1/4 463/1/4
f 463/1/4 461/1/4 464/1/4
f 464/1/4 461/1/4 465/1/4
f 462/1/4 463/1/4 466/1/4
f 463/1/4 464/1/4 466/1/4
f 466/1/4 464/1/4 467/1/4
f 468/1/4 469/1/4 470/1/4
f 470/1/4 469/1/4 471/1/4
f 472/1/4 473/1/4 474/1/4
f 474/1/4 473/1/4 475/1/4
f 481/1/5 477/1/5 476/1/5
f 482/1/5 477/1/5 481/1/5
f 485/1/5 479/1/5 478/1/5
f 486/1/5 479/1/5 485/1/5
f 488/1/5 483/1/5 482/1/5
f 488/1/5 481/1/5 480/1/5
f 488/1/5 482/1/5 481/1/5
f 489/1/5 483/1/5 488/1/5
f 490/1/5 483/1/5 489/1/5
f 491/1/5 483/1/5 490/1/5
f 492/1/5 487/1/5 486/1/5
f 492/1/5 486/1/5 485/1/5
f 492/1/5 485/1/5 484/1/5
f 493/1/5 487/1/5 492/1/5
f 494/1/5 487/1/5 493/1/5
f 495/1/5 487/1/5 494/1/5
f 497/1/5 490/1/5 489/1/5
f 498/1/5 490/1/5 497/1/5
f 501/1/5 494/1/5 493/1/5
f 502/1/5 494/1/5 501/1/5
f 504/1/5 499/1/5 498/1/5
f 504/1/5 497/1/5 496/1/5
f 504/1/5 498/1/5 497/1/5
f 505/1/5 499/1/5 504/1/5
f 506/1/5 499/1/5 505/1/5
f 507/1/5 499/1/5 506/1/5
f 508/1/5 502/1/5 501/1/5
f 508/1/5 503/1/5 502/1/5
f 508/1/5 501/1/5 500/1/5
f 509/1/5 503/1/5 508/1/5
f 510/1/5 503/1/5 509/1/5
f 511/1/5 503/1/5 510/1/5
f 513/1/5 506/1/5 505/1/5
f 514/1/5 506/1/5 513/1/5
f 517/1/5 510/1/5 509/1/5
f 518/1/5 510/1/5 517/1/5
f 520/1/5 515/1/5 514/1/5
f 520/1/5 513/1/5 512/1/5
f 520/1/5 514/1/5 513/1/5
f 521/1/5 515/1/5 520/1/5
f 522/1/5 515/1/5 521/1/5
f 523/1/5 515/1/5 522/1/5
f 524/1/5 519/1/5 518/1/5
f 524/1/5 518/1/5 517/1/5
f 524/1/5 517/1/5 516/1/5
f 525/1/5 519/1/5 524/1/5
f 526/1/5 519/1/5 525/1/5
f 527/1/5 519/1/5 526/1/5
f 528/1/5 522/1/5 521/1/5
f 529/1/5 522/1/5 528/1/5
f 530/1/5 526/1/5 525/1/5
f 531/1/5 526/1/5 530/1/5
f 534/3/5 533/3/5 532/3/5
f 535/3/5 533/3/5 534/3/5
f 540/3/5 537/3/5 536/3/5
f 541/3/5 537/3/5 540/3/5
f 542/3/5 539/3/5 538/3/5
f 543/3/5 539/3/5 542/3/5
f 549/3/5 545/3/5 544/3/5
f 550/3/5 545/3/5 549/3/5
f 555/3/5 547/3/5 546/3/5
f 556/3/5 547/3/5 555/3/5
f 558/3/5 557/3/5 556/3/5
f 559/3/5 549/3/5 548/3/5
f 560/3/5 549/3/5 559/3/5
f 561/3/5 551/3/5 550/3/5
f 562/3/5 551/3/5 561/3/5
f 563/3/5 553/3/5 552/3/5
f 564/3/5 553/3/5 563/3/5
f 565/3/5 555/3/5 554/3/5
f 566/3/5 555/3/5 565/3/5
f 567/3/5 558/3/5 556/3/5
f 568/3/5 558/3/5 567/3/5
f 569/3/5 561/3/5 560/3/5
f 570/3/5 561/3/5 569/3/5
f 571/3/5 567/3/5 566/3/5
f 572/3/5 567/3/5 571/3/5
f 573/1/6 574/1/6 577/1/6
f 577/1/6 574/1/6 578/1/6
f 575/1/6 576/1/6 579/1/6
f 579/1/6 576/1/6 580/1/6
f 581/1/6 582/1/6 589/1/6
f 589/1/6 582/1/6 590/1/6
f 583/1/6 584/1/6 591/1/6
f 591/1/6 584/1/6 592/1/6
f 585/1/6 586/1/6 593/1/6
f 593/1/6 586/1/6 594/1/6
f 587/1/6 588/1/6 595/1/6
f 595/1/6 588/1/6 596/1/6
f 597/1/6 598/1/6 601/1/6
f 601/1/6 598/1/6 602/1/6
f 599/1/6 600/1/6 603/1/6
f 603/1/6 600/1/6 604/1/6
f 605/1/6 606/1/6 613/1/6
f 613/1/6 606/1/6 614/1/6
f 607/1/6 608/1/6 615/1/6
f 615/1/6 608/1/6 616/1/6
f 609/1/6 610/1/6 617/1/6
f 617/1/6 610/1/6 618/1/6
f 611/1/6 612/1/6 619/1/6
f 619/1/6 612/1/6 620/1/6
f 621/1/6 622/1/6 625/1/6
f 625/1/6 622/1/6 626/1/6
f 623/1/6 624/1/6 627/1/6
f 627/1/6 624/1/6 628/1/6
f 629/1/6 630/1/6 637/1/6
f 637/1/6 630/1/6 638/1/6
f 631/1/6 632/1/6 639/1/6
f 639/1/6 632/1/6 640/1/6
f 633/1/6 634/1/6 641/1/6
f 641/1/6 634/1/6 642/1/6
f 635/1/6 636/1/6 643/1/6
f 643/1/6 636/1/6 644/1/6
f 645/1/6 646/1/6 649/1/6
f 649/1/6 646/1/6 650/1/6
f 647/1/6 648/1/6 651/1/6
f 651/1/6 648/1/6 652/1/6
f 653/1/6 654/1/6 657/1/6
f 657/1/6 654/1/6 658/1/6
f 655/1/6 656/1/6 659/1/6
f 659/1/6 656/1/6 660/1/6
f 661/3/6 662/3/6 663/3/6
f 663/3/6 662/3/6 664/3/6
f 665/3/6 666/3/6 667/3/6
f 667/3/6 666/3/6 668/3/6
f 669/3/6 670/3/6 674/3/6
f 674/3/6 670/3/6 675/3/6
f 671/3/6 672/3/6 680/3/6
f 680/3/6 672/3/6 681/3/6
f 673/3/6 674/3/6 683/3/6
f 683/3/6 674/3/6 684/3/6
f 675/3/6 676/3/6 685/3/6
f 685/3/6 676/3/6 686/3/6
f 677/3/6 678/3/6 687/3/6
f 687/3/6 678/3/6 688/3/6
f 679/3/6 680/3/6 689/3/6
f 689/3/6 680/3/6 690/3/6
f 681/3/6 682/3/6 691/3/6
f 691/3/6 682/3/6 692/3/6
f 684/3/6 685/3/6 693/3/6
f 693/3/6 685/3/6 694/3/6
f 690/3/6 691/3/6 695/3/6
f 695/3/6 691/3/6 696/3/6
f 701/3/6 702/3/6 705/3/6
f 705/3/6 702/3/6 706/3/6
f 703/3/6 704/3/6 707/3/6
f 707/3/6 704/3/6 708/3/6
f 697/1/6 698/1/6 709/1/6
f 709/1/6 698/1/6 710/1/6
f 699/1/6 700/1/6 711/1/6
f 711/1/6 700/1/6 712/1/6
