# MagicaVoxel @ Ephtracy

# group
o 

# material
mtllib Sword01.mtl
usemtl palette

# normals
vn -1 0 0
vn 1 0 0
vn 0 0 1
vn 0 0 -1
vn 0 -1 0
vn 0 1 0

# texcoords
vt 0.310547 0.5
vt 0.318359 0.5
vt 0.341797 0.5
vt 0.365234 0.5

# verts
v -0.5 0.9 0.1
v -0.5 0.9 0
v -0.5 1 0.1
v -0.5 1 0
v -0.3 1.3 0.1
v -0.3 1.3 0
v -0.3 2.2 0.1
v -0.3 2.2 0
v -0.2 0.1 0.1
v -0.2 0.1 0
v -0.2 0.9 0.2
v -0.2 0.9 0.1
v -0.2 0.9 0
v -0.2 0.9 -0.1
v -0.2 1 0.2
v -0.2 1 0.1
v -0.2 1 0
v -0.2 1 -0.1
v -0.2 1.3 0.1
v -0.2 1.3 0
v -0.2 2.2 0.1
v -0.2 2.2 0
v -0.2 2.5 0.1
v -0.2 2.5 0
v -0.1 0 0.1
v -0.1 0 0
v -0.1 0.1 0.2
v -0.1 0.1 0.1
v -0.1 0.1 0
v -0.1 0.1 -0.1
v -0.1 0.9 0.2
v -0.1 0.9 0.1
v -0.1 0.9 0
v -0.1 0.9 -0.1
v -0.1 1.2 0.2
v -0.1 1.2 0.1
v -0.1 1.2 0
v -0.1 1.2 -0.1
v -0.1 2.3 0.2
v -0.1 2.3 0.1
v -0.1 2.3 0
v -0.1 2.3 -0.1
v -0.1 2.5 0.1
v -0.1 2.5 0
v -0.1 2.6 0.1
v -0.1 2.6 0
v 0 0 0.1
v 0 0 0
v 0 0.1 0.2
v 0 0.1 0.1
v 0 0.1 0
v 0 0.1 -0.1
v 0 0.9 0.2
v 0 0.9 0.1
v 0 0.9 0
v 0 0.9 -0.1
v 0 1.2 0.2
v 0 1.2 0.1
v 0 1.2 0
v 0 1.2 -0.1
v 0 2.3 0.2
v 0 2.3 0.1
v 0 2.3 0
v 0 2.3 -0.1
v 0 2.5 0.1
v 0 2.5 0
v 0 2.6 0.1
v 0 2.6 0
v 0.1 0.1 0.1
v 0.1 0.1 0
v 0.1 0.9 0.2
v 0.1 0.9 0.1
v 0.1 0.9 0
v 0.1 0.9 -0.1
v 0.1 1 0.2
v 0.1 1 0.1
v 0.1 1 0
v 0.1 1 -0.1
v 0.1 1.3 0.1
v 0.1 1.3 0
v 0.1 2.2 0.1
v 0.1 2.2 0
v 0.1 2.5 0.1
v 0.1 2.5 0
v 0.2 1.3 0.1
v 0.2 1.3 0
v 0.2 2.2 0.1
v 0.2 2.2 0
v 0.4 0.9 0.1
v 0.4 0.9 0
v 0.4 1 0.1
v 0.4 1 0
v -0.2 0.9 0.2
v -0.2 1 0.2
v -0.1 0.1 0.2
v -0.1 0.9 0.2
v -0.1 1.2 0.2
v -0.1 2.3 0.2
v 0 0.1 0.2
v 0 0.9 0.2
v 0 1.2 0.2
v 0 2.3 0.2
v 0.1 0.9 0.2
v 0.1 1 0.2
v -0.5 0.9 0.1
v -0.5 1 0.1
v -0.3 1.3 0.1
v -0.3 2.2 0.1
v -0.2 0.1 0.1
v -0.2 0.9 0.1
v -0.2 1 0.1
v -0.2 1.3 0.1
v -0.2 2.2 0.1
v -0.2 2.5 0.1
v -0.1 0 0.1
v -0.1 0.1 0.1
v -0.1 0.9 0.1
v -0.1 1 0.1
v -0.1 1.2 0.1
v -0.1 2.3 0.1
v -0.1 2.5 0.1
v -0.1 2.6 0.1
v 0 0 0.1
v 0 0.1 0.1
v 0 0.9 0.1
v 0 1 0.1
v 0 1.2 0.1
v 0 2.3 0.1
v 0 2.5 0.1
v 0 2.6 0.1
v 0.1 0.1 0.1
v 0.1 0.9 0.1
v 0.1 1 0.1
v 0.1 1.3 0.1
v 0.1 2.2 0.1
v 0.1 2.5 0.1
v 0.2 1.3 0.1
v 0.2 2.2 0.1
v 0.4 0.9 0.1
v 0.4 1 0.1
v -0.5 0.9 0
v -0.5 1 0
v -0.3 1.3 0
v -0.3 2.2 0
v -0.2 0.1 0
v -0.2 0.9 0
v -0.2 1 0
v -0.2 1.3 0
v -0.2 2.2 0
v -0.2 2.5 0
v -0.1 0 0
v -0.1 0.1 0
v -0.1 0.9 0
v -0.1 1 0
v -0.1 1.2 0
v -0.1 2.3 0
v -0.1 2.5 0
v -0.1 2.6 0
v 0 0 0
v 0 0.1 0
v 0 0.9 0
v 0 1 0
v 0 1.2 0
v 0 2.3 0
v 0 2.5 0
v 0 2.6 0
v 0.1 0.1 0
v 0.1 0.9 0
v 0.1 1 0
v 0.1 1.3 0
v 0.1 2.2 0
v 0.1 2.5 0
v 0.2 1.3 0
v 0.2 2.2 0
v 0.4 0.9 0
v 0.4 1 0
v -0.2 0.9 -0.1
v -0.2 1 -0.1
v -0.1 0.1 -0.1
v -0.1 0.9 -0.1
v -0.1 1.2 -0.1
v -0.1 2.3 -0.1
v 0 0.1 -0.1
v 0 0.9 -0.1
v 0 1.2 -0.1
v 0 2.3 -0.1
v 0.1 0.9 -0.1
v 0.1 1 -0.1
v -0.1 0 0.1
v 0 0 0.1
v -0.1 0 0
v 0 0 0
v -0.1 0.1 0.2
v 0 0.1 0.2
v -0.2 0.1 0.1
v -0.1 0.1 0.1
v 0 0.1 0.1
v 0.1 0.1 0.1
v -0.2 0.1 0
v -0.1 0.1 0
v 0 0.1 0
v 0.1 0.1 0
v -0.1 0.1 -0.1
v 0 0.1 -0.1
v -0.2 0.9 0.2
v -0.1 0.9 0.2
v 0 0.9 0.2
v 0.1 0.9 0.2
v -0.5 0.9 0.1
v -0.2 0.9 0.1
v -0.1 0.9 0.1
v 0 0.9 0.1
v 0.1 0.9 0.1
v 0.4 0.9 0.1
v -0.5 0.9 0
v -0.2 0.9 0
v -0.1 0.9 0
v 0 0.9 0
v 0.1 0.9 0
v 0.4 0.9 0
v -0.2 0.9 -0.1
v -0.1 0.9 -0.1
v 0 0.9 -0.1
v 0.1 0.9 -0.1
v -0.1 1.2 0.2
v 0 1.2 0.2
v -0.1 1.2 0.1
v 0 1.2 0.1
v -0.1 1.2 0
v 0 1.2 0
v -0.1 1.2 -0.1
v 0 1.2 -0.1
v -0.3 1.3 0.1
v -0.2 1.3 0.1
v 0.1 1.3 0.1
v 0.2 1.3 0.1
v -0.3 1.3 0
v -0.2 1.3 0
v 0.1 1.3 0
v 0.2 1.3 0
v -0.2 1 0.2
v 0.1 1 0.2
v -0.5 1 0.1
v -0.2 1 0.1
v -0.1 1 0.1
v 0 1 0.1
v 0.1 1 0.1
v 0.4 1 0.1
v -0.5 1 0
v -0.2 1 0
v -0.1 1 0
v 0 1 0
v 0.1 1 0
v 0.4 1 0
v -0.2 1 -0.1
v 0.1 1 -0.1
v -0.3 2.2 0.1
v -0.2 2.2 0.1
v 0.1 2.2 0.1
v 0.2 2.2 0.1
v -0.3 2.2 0
v -0.2 2.2 0
v 0.1 2.2 0
v 0.2 2.2 0
v -0.1 2.3 0.2
v 0 2.3 0.2
v -0.1 2.3 0.1
v 0 2.3 0.1
v -0.1 2.3 0
v 0 2.3 0
v -0.1 2.3 -0.1
v 0 2.3 -0.1
v -0.2 2.5 0.1
v -0.1 2.5 0.1
v 0 2.5 0.1
v 0.1 2.5 0.1
v -0.2 2.5 0
v -0.1 2.5 0
v 0 2.5 0
v 0.1 2.5 0
v -0.1 2.6 0.1
v 0 2.6 0.1
v -0.1 2.6 0
v 0 2.6 0

# faces
f 3/1/1 2/1/1 1/1/1
f 4/1/1 2/1/1 3/1/1
f 7/4/1 6/4/1 5/4/1
f 8/4/1 6/4/1 7/4/1
f 12/2/1 10/2/1 9/2/1
f 13/2/1 10/2/1 12/2/1
f 15/1/1 12/1/1 11/1/1
f 16/1/1 12/1/1 15/1/1
f 17/1/1 14/1/1 13/1/1
f 18/1/1 14/1/1 17/1/1
f 19/3/1 17/3/1 16/3/1
f 20/3/1 17/3/1 19/3/1
f 23/3/1 22/3/1 21/3/1
f 24/3/1 22/3/1 23/3/1
f 28/2/1 26/2/1 25/2/1
f 29/2/1 26/2/1 28/2/1
f 31/2/1 28/2/1 27/2/1
f 32/2/1 28/2/1 31/2/1
f 33/2/1 30/2/1 29/2/1
f 34/2/1 30/2/1 33/2/1
f 39/2/1 36/2/1 35/2/1
f 40/2/1 36/2/1 39/2/1
f 41/2/1 38/2/1 37/2/1
f 42/2/1 38/2/1 41/2/1
f 45/2/1 44/2/1 43/2/1
f 46/2/1 44/2/1 45/2/1
f 47/2/2 48/2/2 50/2/2
f 50/2/2 48/2/2 51/2/2
f 49/2/2 50/2/2 53/2/2
f 53/2/2 50/2/2 54/2/2
f 51/2/2 52/2/2 55/2/2
f 55/2/2 52/2/2 56/2/2
f 57/2/2 58/2/2 61/2/2
f 61/2/2 58/2/2 62/2/2
f 59/2/2 60/2/2 63/2/2
f 63/2/2 60/2/2 64/2/2
f 65/2/2 66/2/2 67/2/2
f 67/2/2 66/2/2 68/2/2
f 69/2/2 70/2/2 72/2/2
f 72/2/2 70/2/2 73/2/2
f 71/1/2 72/1/2 75/1/2
f 75/1/2 72/1/2 76/1/2
f 73/1/2 74/1/2 77/1/2
f 77/1/2 74/1/2 78/1/2
f 76/3/2 77/3/2 79/3/2
f 79/3/2 77/3/2 80/3/2
f 81/3/2 82/3/2 83/3/2
f 83/3/2 82/3/2 84/3/2
f 85/4/2 86/4/2 87/4/2
f 87/4/2 86/4/2 88/4/2
f 89/1/2 90/1/2 91/1/2
f 91/1/2 90/1/2 92/1/2
f 96/1/3 94/1/3 93/1/3
f 99/2/3 96/2/3 95/2/3
f 100/1/3 94/1/3 96/1/3
f 100/2/3 96/2/3 99/2/3
f 101/2/3 98/2/3 97/2/3
f 102/2/3 98/2/3 101/2/3
f 103/1/3 94/1/3 100/1/3
f 104/1/3 94/1/3 103/1/3
f 110/1/3 106/1/3 105/1/3
f 111/1/3 106/1/3 110/1/3
f 112/4/3 108/4/3 107/4/3
f 113/4/3 108/4/3 112/4/3
f 116/2/3 110/2/3 109/2/3
f 117/2/3 110/2/3 116/2/3
f 118/3/3 114/3/3 113/3/3
f 118/3/3 113/3/3 112/3/3
f 118/3/3 112/3/3 111/3/3
f 119/3/3 114/3/3 118/3/3
f 120/3/3 114/3/3 119/3/3
f 121/3/3 114/3/3 120/3/3
f 123/2/3 116/2/3 115/2/3
f 124/2/3 116/2/3 123/2/3
f 126/2/3 119/2/3 118/2/3
f 127/2/3 119/2/3 126/2/3
f 128/2/3 122/2/3 121/2/3
f 128/2/3 121/2/3 120/2/3
f 129/2/3 122/2/3 128/2/3
f 130/2/3 122/2/3 129/2/3
f 131/2/3 125/2/3 124/2/3
f 132/2/3 125/2/3 131/2/3
f 133/3/3 127/3/3 126/3/3
f 133/3/3 129/3/3 128/3/3
f 133/3/3 128/3/3 127/3/3
f 134/3/3 129/3/3 133/3/3
f 135/3/3 129/3/3 134/3/3
f 136/3/3 129/3/3 135/3/3
f 137/4/3 135/4/3 134/4/3
f 138/4/3 135/4/3 137/4/3
f 139/1/3 133/1/3 132/1/3
f 140/1/3 133/1/3 139/1/3
f 141/1/4 142/1/4 146/1/4
f 146/1/4 142/1/4 147/1/4
f 143/4/4 144/4/4 148/4/4
f 148/4/4 144/4/4 149/4/4
f 145/2/4 146/2/4 152/2/4
f 152/2/4 146/2/4 153/2/4
f 149/3/4 150/3/4 154/3/4
f 148/3/4 149/3/4 154/3/4
f 147/3/4 148/3/4 154/3/4
f 154/3/4 150/3/4 155/3/4
f 155/3/4 150/3/4 156/3/4
f 156/3/4 150/3/4 157/3/4
f 151/2/4 152/2/4 159/2/4
f 159/2/4 152/2/4 160/2/4
f 154/2/4 155/2/4 162/2/4
f 162/2/4 155/2/4 163/2/4
f 157/2/4 158/2/4 164/2/4
f 156/2/4 157/2/4 164/2/4
f 164/2/4 158/2/4 165/2/4
f 165/2/4 158/2/4 166/2/4
f 160/2/4 161/2/4 167/2/4
f 167/2/4 161/2/4 168/2/4
f 162/3/4 163/3/4 169/3/4
f 164/3/4 165/3/4 169/3/4
f 163/3/4 164/3/4 169/3/4
f 169/3/4 165/3/4 170/3/4
f 170/3/4 165/3/4 171/3/4
f 171/3/4 165/3/4 172/3/4
f 170/4/4 171/4/4 173/4/4
f 173/4/4 171/4/4 174/4/4
f 168/1/4 169/1/4 175/1/4
f 175/1/4 169/1/4 176/1/4
f 177/1/4 178/1/4 180/1/4
f 179/2/4 180/2/4 183/2/4
f 180/1/4 178/1/4 184/1/4
f 183/2/4 180/2/4 184/2/4
f 181/2/4 182/2/4 185/2/4
f 185/2/4 182/2/4 186/2/4
f 184/1/4 178/1/4 187/1/4
f 187/1/4 178/1/4 188/1/4
f 191/2/5 190/2/5 189/2/5
f 192/2/5 190/2/5 191/2/5
f 196/2/5 194/2/5 193/2/5
f 197/2/5 194/2/5 196/2/5
f 199/2/5 196/2/5 195/2/5
f 200/2/5 196/2/5 199/2/5
f 201/2/5 198/2/5 197/2/5
f 202/2/5 198/2/5 201/2/5
f 203/2/5 201/2/5 200/2/5
f 204/2/5 201/2/5 203/2/5
f 210/1/5 206/1/5 205/1/5
f 211/1/5 206/1/5 210/1/5
f 212/1/5 208/1/5 207/1/5
f 213/1/5 208/1/5 212/1/5
f 215/1/5 210/1/5 209/1/5
f 216/1/5 210/1/5 215/1/5
f 219/1/5 214/1/5 213/1/5
f 220/1/5 214/1/5 219/1/5
f 221/1/5 217/1/5 216/1/5
f 222/1/5 217/1/5 221/1/5
f 223/1/5 219/1/5 218/1/5
f 224/1/5 219/1/5 223/1/5
f 227/2/5 226/2/5 225/2/5
f 228/2/5 226/2/5 227/2/5
f 231/2/5 230/2/5 229/2/5
f 232/2/5 230/2/5 231/2/5
f 237/4/5 234/4/5 233/4/5
f 238/4/5 234/4/5 237/4/5
f 239/4/5 236/4/5 235/4/5
f 240/4/5 236/4/5 239/4/5
f 241/1/6 242/1/6 244/1/6
f 244/1/6 242/1/6 245/1/6
f 245/1/6 242/1/6 246/1/6
f 246/1/6 242/1/6 247/1/6
f 243/1/6 244/1/6 249/1/6
f 249/1/6 244/1/6 250/1/6
f 247/1/6 248/1/6 253/1/6
f 253/1/6 248/1/6 254/1/6
f 251/1/6 252/1/6 255/1/6
f 252/1/6 253/1/6 255/1/6
f 250/1/6 251/1/6 255/1/6
f 255/1/6 253/1/6 256/1/6
f 257/4/6 258/4/6 261/4/6
f 261/4/6 258/4/6 262/4/6
f 259/4/6 260/4/6 263/4/6
f 263/4/6 260/4/6 264/4/6
f 265/2/6 266/2/6 267/2/6
f 267/2/6 266/2/6 268/2/6
f 269/2/6 270/2/6 271/2/6
f 271/2/6 270/2/6 272/2/6
f 273/3/6 274/3/6 277/3/6
f 277/3/6 274/3/6 278/3/6
f 275/3/6 276/3/6 279/3/6
f 279/3/6 276/3/6 280/3/6
f 281/2/6 282/2/6 283/2/6
f 283/2/6 282/2/6 284/2/6
